<?xml version="1.0" encoding="UTF-8" standalone="no"?><svg xmlns="http://www.w3.org/2000/svg" xmlns:xlink="http://www.w3.org/1999/xlink" contentStyleType="text/css" height="208px" preserveAspectRatio="none" style="width:115px;height:208px;background:#FFFFFF;" version="1.1" viewBox="0 0 115 208" width="115px" zoomAndPan="magnify"><defs/><g><!--MD5=[7fd4401f5c5cb0e3d029c879cad30c04]
class Animal--><g id="elem_Animal"><rect codeLine="187" fill="#F1F1F1" height="67.0679" id="Animal" rx="2.5" ry="2.5" style="stroke:#181818;stroke-width:0.5;" width="101" x="7" y="7"/><ellipse cx="31.9" cy="23" fill="#ADD1B2" rx="11" ry="11" style="stroke:#181818;stroke-width:1.0;"/><path d="M31.3688,29.9219 Q29.6188,29.9219 28.4781,29.1875 Q27.3531,28.4375 26.7906,27.0938 Q26.2438,25.7344 26.2438,23.9375 Q26.2438,21.9063 26.9,20.4531 Q27.5563,19 28.8375,18.2188 Q30.1188,17.4375 31.9938,17.4375 Q32.8844,17.4375 33.5563,17.625 Q34.2281,17.7969 34.9156,18.1406 L34.1031,20.1563 Q33.4781,19.8438 32.9313,19.7188 Q32.4,19.5938 31.9156,19.5938 Q30.7438,19.5938 30.0406,20.125 Q29.3375,20.6563 29.0406,21.6094 Q28.7438,22.5625 28.7438,23.8281 Q28.7438,25.8438 29.4625,26.8125 Q30.1813,27.7656 31.775,27.7656 Q32.3688,27.7656 32.9938,27.6094 Q33.6188,27.4531 34.4469,27.0781 L34.4469,29.2969 Q33.7125,29.6094 32.9156,29.7656 Q32.1344,29.9219 31.3688,29.9219 Z " fill="#000000"/><text fill="#000000" font-family="sans-serif" font-size="14" lengthAdjust="spacing" textLength="47" x="48.1" y="28.432">Animal</text><line style="stroke:#181818;stroke-width:0.5;" x1="8" x2="107" y1="39" y2="39"/><line style="stroke:#181818;stroke-width:0.5;" x1="8" x2="107" y1="47" y2="47"/><ellipse cx="18" cy="58" fill="#84BE84" rx="3" ry="3" style="stroke:#038048;stroke-width:1.0;"/><text fill="#000000" font-family="sans-serif" font-size="14" lengthAdjust="spacing" textLength="75" x="27" y="65.9659">void show()</text></g><!--MD5=[0ba60c1c7eece7977c024cb94d0d3fa3]
class Fish--><g id="elem_Fish"><rect codeLine="190" fill="#F1F1F1" height="67.0679" id="Fish" rx="2.5" ry="2.5" style="stroke:#181818;stroke-width:0.5;" width="100" x="7.5" y="134"/><ellipse cx="40.95" cy="150" fill="#ADD1B2" rx="11" ry="11" style="stroke:#181818;stroke-width:1.0;"/><path d="M40.4188,156.9219 Q38.6688,156.9219 37.5281,156.1875 Q36.4031,155.4375 35.8406,154.0938 Q35.2938,152.7344 35.2938,150.9375 Q35.2938,148.9063 35.95,147.4531 Q36.6063,146 37.8875,145.2188 Q39.1688,144.4375 41.0438,144.4375 Q41.9344,144.4375 42.6063,144.625 Q43.2781,144.7969 43.9656,145.1406 L43.1531,147.1563 Q42.5281,146.8438 41.9813,146.7188 Q41.45,146.5938 40.9656,146.5938 Q39.7938,146.5938 39.0906,147.125 Q38.3875,147.6563 38.0906,148.6094 Q37.7938,149.5625 37.7938,150.8281 Q37.7938,152.8438 38.5125,153.8125 Q39.2313,154.7656 40.825,154.7656 Q41.4188,154.7656 42.0438,154.6094 Q42.6688,154.4531 43.4969,154.0781 L43.4969,156.2969 Q42.7625,156.6094 41.9656,156.7656 Q41.1844,156.9219 40.4188,156.9219 Z " fill="#000000"/><text fill="#000000" font-family="sans-serif" font-size="14" lengthAdjust="spacing" textLength="27" x="59.05" y="155.432">Fish</text><line style="stroke:#181818;stroke-width:0.5;" x1="8.5" x2="106.5" y1="166" y2="166"/><line style="stroke:#181818;stroke-width:0.5;" x1="8.5" x2="106.5" y1="174" y2="174"/><ellipse cx="18.5" cy="185" fill="#84BE84" rx="3" ry="3" style="stroke:#038048;stroke-width:1.0;"/><text fill="#000000" font-family="sans-serif" font-size="14" lengthAdjust="spacing" textLength="74" x="27.5" y="192.9659">void draw()</text></g><!--MD5=[148c53dede49fe4472cc2dd7d4afcf03]
reverse link Animal to Fish--><g id="link_Animal_Fish"><path codeLine="194" d="M57.5,94.2 C57.5,107.61 57.5,121.63 57.5,133.71 " fill="none" id="Animal-backto-Fish" style="stroke:#181818;stroke-width:1.0;"/><polygon fill="none" points="50.5,94.02,57.5,74.02,64.5,94.02,50.5,94.02" style="stroke:#181818;stroke-width:1.0;"/></g><!--MD5=[8948f8a6bf15e3ffe4fe3bc73a7b2e9a]
@startuml 10-class-diagram-3
class Animal {
	+ void show()
}
class Fish {
	+ void draw()
}

Fish -u-|> Animal
@enduml

PlantUML version 1.2022.6(Wed Jun 22 02:34:49 KST 2022)
(GPL source distribution)
Java Runtime: OpenJDK Runtime Environment
JVM: OpenJDK 64-Bit Server VM
Default Encoding: UTF-8
Language: en
Country: US
--></g></svg>