<?xml version="1.0" encoding="UTF-8" standalone="no"?><svg xmlns="http://www.w3.org/2000/svg" xmlns:xlink="http://www.w3.org/1999/xlink" contentStyleType="text/css" height="386px" preserveAspectRatio="none" style="width:447px;height:386px;background:#FFFFFF;" version="1.1" viewBox="0 0 447 386" width="447px" zoomAndPan="magnify"><defs/><g><!--MD5=[27e07e36948c47b4efc69b1ef7e121f8]
class TestInterface--><g id="elem_TestInterface"><rect codeLine="1199" fill="#F1F1F1" height="48" id="TestInterface" rx="2.5" ry="2.5" style="stroke:#181818;stroke-width:0.5;" width="113" x="261" y="7"/><ellipse cx="276" cy="23" fill="#B4A7E5" rx="11" ry="11" style="stroke:#181818;stroke-width:1.0;"/><path d="M272.0313,29.5 L272.0313,27.7969 L274.3906,27.5313 L274.3906,19.3281 L272.0313,19.0625 L272.0313,17.3594 L279.1719,17.3594 L279.1719,19.0625 L276.75,19.3281 L276.75,27.5313 L279.1719,27.7969 L279.1719,29.5 L272.0313,29.5 Z " fill="#000000"/><text fill="#000000" font-family="sans-serif" font-size="14" font-style="italic" lengthAdjust="spacing" textLength="81" x="290" y="28.432">TestInterface</text><line style="stroke:#181818;stroke-width:0.5;" x1="262" x2="373" y1="39" y2="39"/><line style="stroke:#181818;stroke-width:0.5;" x1="262" x2="373" y1="47" y2="47"/></g><!--MD5=[aa7f586532e18719e6cefa70fc650583]
class Object--><g id="elem_Object"><rect codeLine="1200" fill="#F1F1F1" height="48" id="Object" rx="2.5" ry="2.5" style="stroke:#181818;stroke-width:0.5;" width="76" x="163.5" y="115"/><ellipse cx="178.5" cy="131" fill="#ADD1B2" rx="11" ry="11" style="stroke:#181818;stroke-width:1.0;"/><path d="M177.9688,137.9219 Q176.2188,137.9219 175.0781,137.1875 Q173.9531,136.4375 173.3906,135.0938 Q172.8438,133.7344 172.8438,131.9375 Q172.8438,129.9063 173.5,128.4531 Q174.1563,127 175.4375,126.2188 Q176.7188,125.4375 178.5938,125.4375 Q179.4844,125.4375 180.1563,125.625 Q180.8281,125.7969 181.5156,126.1406 L180.7031,128.1563 Q180.0781,127.8438 179.5313,127.7188 Q179,127.5938 178.5156,127.5938 Q177.3438,127.5938 176.6406,128.125 Q175.9375,128.6563 175.6406,129.6094 Q175.3438,130.5625 175.3438,131.8281 Q175.3438,133.8438 176.0625,134.8125 Q176.7813,135.7656 178.375,135.7656 Q178.9688,135.7656 179.5938,135.6094 Q180.2188,135.4531 181.0469,135.0781 L181.0469,137.2969 Q180.3125,137.6094 179.5156,137.7656 Q178.7344,137.9219 177.9688,137.9219 Z " fill="#000000"/><text fill="#000000" font-family="sans-serif" font-size="14" lengthAdjust="spacing" textLength="44" x="192.5" y="136.432">Object</text><line style="stroke:#181818;stroke-width:0.5;" x1="164.5" x2="238.5" y1="147" y2="147"/><line style="stroke:#181818;stroke-width:0.5;" x1="164.5" x2="238.5" y1="155" y2="155"/></g><!--MD5=[894442645724153f40a9f7a43026dbfc]
class Invoice--><g id="elem_Invoice"><rect codeLine="1208" fill="#F1F1F1" height="48" id="Invoice" rx="2.5" ry="2.5" style="stroke:#181818;stroke-width:0.5;" width="80" x="158.5" y="223"/><ellipse cx="173.5" cy="239" fill="#ADD1B2" rx="11" ry="11" style="stroke:#181818;stroke-width:1.0;"/><path d="M172.9688,245.9219 Q171.2188,245.9219 170.0781,245.1875 Q168.9531,244.4375 168.3906,243.0938 Q167.8438,241.7344 167.8438,239.9375 Q167.8438,237.9063 168.5,236.4531 Q169.1563,235 170.4375,234.2188 Q171.7188,233.4375 173.5938,233.4375 Q174.4844,233.4375 175.1563,233.625 Q175.8281,233.7969 176.5156,234.1406 L175.7031,236.1563 Q175.0781,235.8438 174.5313,235.7188 Q174,235.5938 173.5156,235.5938 Q172.3438,235.5938 171.6406,236.125 Q170.9375,236.6563 170.6406,237.6094 Q170.3438,238.5625 170.3438,239.8281 Q170.3438,241.8438 171.0625,242.8125 Q171.7813,243.7656 173.375,243.7656 Q173.9688,243.7656 174.5938,243.6094 Q175.2188,243.4531 176.0469,243.0781 L176.0469,245.2969 Q175.3125,245.6094 174.5156,245.7656 Q173.7344,245.9219 172.9688,245.9219 Z " fill="#000000"/><text fill="#000000" font-family="sans-serif" font-size="14" lengthAdjust="spacing" textLength="48" x="187.5" y="244.432">Invoice</text><line style="stroke:#181818;stroke-width:0.5;" x1="159.5" x2="237.5" y1="255" y2="255"/><line style="stroke:#181818;stroke-width:0.5;" x1="159.5" x2="237.5" y1="263" y2="263"/></g><!--MD5=[7421f545a0d8420c5bec41e74b387d9c]
class Employee--><g id="elem_Employee"><rect codeLine="1209" fill="#F1F1F1" height="48" id="Employee" rx="2.5" ry="2.5" style="stroke:#181818;stroke-width:0.5;" width="92" x="273.5" y="223"/><ellipse cx="288.5" cy="239" fill="#A9DCDF" rx="11" ry="11" style="stroke:#181818;stroke-width:1.0;"/><path d="M283.6719,244.75 L287.0156,232.5625 L290.1563,232.5625 L293.5313,244.75 L291.0625,244.75 L290.3281,241.7344 L286.8125,241.7344 L286.0625,244.75 L283.6719,244.75 Z M288.0781,236.7031 L287.3281,239.7031 L289.8438,239.7031 L289.125,236.7031 Q288.9844,236.125 288.8594,235.5781 Q288.7344,235.0156 288.5938,234.4375 Q288.4844,235.0156 288.3438,235.5781 Q288.2031,236.125 288.0781,236.7031 Z " fill="#000000"/><text fill="#000000" font-family="sans-serif" font-size="14" font-style="italic" lengthAdjust="spacing" textLength="60" x="302.5" y="244.432">Employee</text><line style="stroke:#181818;stroke-width:0.5;" x1="274.5" x2="364.5" y1="255" y2="255"/><line style="stroke:#181818;stroke-width:0.5;" x1="274.5" x2="364.5" y1="263" y2="263"/></g><!--MD5=[383c8b01ba31795719714c256298f432]
class OffInvoice--><g id="elem_OffInvoice"><rect codeLine="1203" fill="#F1F1F1" height="48" id="OffInvoice" rx="2.5" ry="2.5" style="stroke:#181818;stroke-width:0.5;" width="101" x="7" y="331"/><ellipse cx="22" cy="347" fill="#ADD1B2" rx="11" ry="11" style="stroke:#181818;stroke-width:1.0;"/><path d="M21.4688,353.9219 Q19.7188,353.9219 18.5781,353.1875 Q17.4531,352.4375 16.8906,351.0938 Q16.3438,349.7344 16.3438,347.9375 Q16.3438,345.9063 17,344.4531 Q17.6563,343 18.9375,342.2188 Q20.2188,341.4375 22.0938,341.4375 Q22.9844,341.4375 23.6563,341.625 Q24.3281,341.7969 25.0156,342.1406 L24.2031,344.1563 Q23.5781,343.8438 23.0313,343.7188 Q22.5,343.5938 22.0156,343.5938 Q20.8438,343.5938 20.1406,344.125 Q19.4375,344.6563 19.1406,345.6094 Q18.8438,346.5625 18.8438,347.8281 Q18.8438,349.8438 19.5625,350.8125 Q20.2813,351.7656 21.875,351.7656 Q22.4688,351.7656 23.0938,351.6094 Q23.7188,351.4531 24.5469,351.0781 L24.5469,353.2969 Q23.8125,353.6094 23.0156,353.7656 Q22.2344,353.9219 21.4688,353.9219 Z " fill="#000000"/><text fill="#000000" font-family="sans-serif" font-size="14" lengthAdjust="spacing" textLength="69" x="36" y="352.432">OffInvoice</text><line style="stroke:#181818;stroke-width:0.5;" x1="8" x2="107" y1="363" y2="363"/><line style="stroke:#181818;stroke-width:0.5;" x1="8" x2="107" y1="371" y2="371"/></g><!--MD5=[e2877b18fdabf7a966b5f9e0a88bf202]
class ComInvoice--><g id="elem_ComInvoice"><rect codeLine="1204" fill="#F1F1F1" height="48" id="ComInvoice" rx="2.5" ry="2.5" style="stroke:#181818;stroke-width:0.5;" width="110" x="143.5" y="331"/><ellipse cx="158.5" cy="347" fill="#ADD1B2" rx="11" ry="11" style="stroke:#181818;stroke-width:1.0;"/><path d="M157.9688,353.9219 Q156.2188,353.9219 155.0781,353.1875 Q153.9531,352.4375 153.3906,351.0938 Q152.8438,349.7344 152.8438,347.9375 Q152.8438,345.9063 153.5,344.4531 Q154.1563,343 155.4375,342.2188 Q156.7188,341.4375 158.5938,341.4375 Q159.4844,341.4375 160.1563,341.625 Q160.8281,341.7969 161.5156,342.1406 L160.7031,344.1563 Q160.0781,343.8438 159.5313,343.7188 Q159,343.5938 158.5156,343.5938 Q157.3438,343.5938 156.6406,344.125 Q155.9375,344.6563 155.6406,345.6094 Q155.3438,346.5625 155.3438,347.8281 Q155.3438,349.8438 156.0625,350.8125 Q156.7813,351.7656 158.375,351.7656 Q158.9688,351.7656 159.5938,351.6094 Q160.2188,351.4531 161.0469,351.0781 L161.0469,353.2969 Q160.3125,353.6094 159.5156,353.7656 Q158.7344,353.9219 157.9688,353.9219 Z " fill="#000000"/><text fill="#000000" font-family="sans-serif" font-size="14" lengthAdjust="spacing" textLength="78" x="172.5" y="352.432">ComInvoice</text><line style="stroke:#181818;stroke-width:0.5;" x1="144.5" x2="252.5" y1="363" y2="363"/><line style="stroke:#181818;stroke-width:0.5;" x1="144.5" x2="252.5" y1="371" y2="371"/></g><!--MD5=[1f570ed761f4e3402fcd142935c16e01]
class SalariedEmployee--><g id="elem_SalariedEmployee"><rect codeLine="1205" fill="#F1F1F1" height="48" id="SalariedEmployee" rx="2.5" ry="2.5" style="stroke:#181818;stroke-width:0.5;" width="152" x="288.5" y="331"/><ellipse cx="303.5" cy="347" fill="#ADD1B2" rx="11" ry="11" style="stroke:#181818;stroke-width:1.0;"/><path d="M302.9688,353.9219 Q301.2188,353.9219 300.0781,353.1875 Q298.9531,352.4375 298.3906,351.0938 Q297.8438,349.7344 297.8438,347.9375 Q297.8438,345.9063 298.5,344.4531 Q299.1563,343 300.4375,342.2188 Q301.7188,341.4375 303.5938,341.4375 Q304.4844,341.4375 305.1563,341.625 Q305.8281,341.7969 306.5156,342.1406 L305.7031,344.1563 Q305.0781,343.8438 304.5313,343.7188 Q304,343.5938 303.5156,343.5938 Q302.3438,343.5938 301.6406,344.125 Q300.9375,344.6563 300.6406,345.6094 Q300.3438,346.5625 300.3438,347.8281 Q300.3438,349.8438 301.0625,350.8125 Q301.7813,351.7656 303.375,351.7656 Q303.9688,351.7656 304.5938,351.6094 Q305.2188,351.4531 306.0469,351.0781 L306.0469,353.2969 Q305.3125,353.6094 304.5156,353.7656 Q303.7344,353.9219 302.9688,353.9219 Z " fill="#000000"/><text fill="#000000" font-family="sans-serif" font-size="14" lengthAdjust="spacing" textLength="120" x="317.5" y="352.432">SalariedEmployee</text><line style="stroke:#181818;stroke-width:0.5;" x1="289.5" x2="439.5" y1="363" y2="363"/><line style="stroke:#181818;stroke-width:0.5;" x1="289.5" x2="439.5" y1="371" y2="371"/></g><!--MD5=[690bdd5a5fcc261aa2ec0857313066c2]
class Payable--><g id="elem_Payable"><rect fill="#F1F1F1" height="48" id="Payable" rx="2.5" ry="2.5" style="stroke:#181818;stroke-width:0.5;" width="84" x="275.5" y="115"/><ellipse cx="290.5" cy="131" fill="#ADD1B2" rx="11" ry="11" style="stroke:#181818;stroke-width:1.0;"/><path d="M289.9688,137.9219 Q288.2188,137.9219 287.0781,137.1875 Q285.9531,136.4375 285.3906,135.0938 Q284.8438,133.7344 284.8438,131.9375 Q284.8438,129.9063 285.5,128.4531 Q286.1563,127 287.4375,126.2188 Q288.7188,125.4375 290.5938,125.4375 Q291.4844,125.4375 292.1563,125.625 Q292.8281,125.7969 293.5156,126.1406 L292.7031,128.1563 Q292.0781,127.8438 291.5313,127.7188 Q291,127.5938 290.5156,127.5938 Q289.3438,127.5938 288.6406,128.125 Q287.9375,128.6563 287.6406,129.6094 Q287.3438,130.5625 287.3438,131.8281 Q287.3438,133.8438 288.0625,134.8125 Q288.7813,135.7656 290.375,135.7656 Q290.9688,135.7656 291.5938,135.6094 Q292.2188,135.4531 293.0469,135.0781 L293.0469,137.2969 Q292.3125,137.6094 291.5156,137.7656 Q290.7344,137.9219 289.9688,137.9219 Z " fill="#000000"/><text fill="#000000" font-family="sans-serif" font-size="14" lengthAdjust="spacing" textLength="52" x="304.5" y="136.432">Payable</text><line style="stroke:#181818;stroke-width:0.5;" x1="276.5" x2="358.5" y1="147" y2="147"/><line style="stroke:#181818;stroke-width:0.5;" x1="276.5" x2="358.5" y1="155" y2="155"/></g><!--MD5=[5b26a33c82adcbade6ebfd752f8c9980]
reverse link TestInterface to Payable--><g id="link_TestInterface_Payable"><path codeLine="1207" d="M317.5,75.02 C317.5,88.58 317.5,103.04 317.5,114.68 " fill="none" id="TestInterface-backto-Payable" style="stroke:#181818;stroke-width:1.0;"/><polygon fill="none" points="310.5,75,317.5,55,324.5,75,310.5,75" style="stroke:#181818;stroke-width:1.0;"/></g><!--MD5=[2816e1f7ded47e4b1a2160a38e996543]
reverse link Payable to Invoice--><g id="link_Payable_Invoice"><path d="M276.71,176.34 C259.48,191.68 239.93,209.1 224.68,222.68 " fill="none" id="Payable-backto-Invoice" style="stroke:#181818;stroke-width:1.0;stroke-dasharray:7.0,7.0;"/><polygon fill="none" points="272.09,171.08,291.68,163,281.4,181.53,272.09,171.08" style="stroke:#181818;stroke-width:1.0;"/></g><!--MD5=[803efb3966bf0ee498cd7df458fdeab3]
reverse link Payable to Employee--><g id="link_Payable_Employee"><path d="M318.31,183.02 C318.57,196.58 318.84,211.04 319.06,222.68 " fill="none" id="Payable-backto-Employee" style="stroke:#181818;stroke-width:1.0;stroke-dasharray:7.0,7.0;"/><polygon fill="none" points="311.31,183.13,317.93,163,325.31,182.86,311.31,183.13" style="stroke:#181818;stroke-width:1.0;"/></g><!--MD5=[2af32a21f080cdaea0454eb5d9afa505]
reverse link Object to Invoice--><g id="link_Object_Invoice"><path codeLine="1210" d="M200.28,183.02 C199.9,196.58 199.49,211.04 199.16,222.68 " fill="none" id="Object-backto-Invoice" style="stroke:#181818;stroke-width:1.0;"/><polygon fill="none" points="193.29,182.79,200.85,163,207.28,183.19,193.29,182.79" style="stroke:#181818;stroke-width:1.0;"/></g><!--MD5=[a84477c024db835ad656a3bab832d406]
reverse link Object to Employee--><g id="link_Object_Employee"><path codeLine="1211" d="M242.21,176.57 C259.23,191.86 278.5,209.17 293.54,222.68 " fill="none" id="Object-backto-Employee" style="stroke:#181818;stroke-width:1.0;"/><polygon fill="none" points="237.3,181.57,227.1,163,246.66,171.16,237.3,181.57" style="stroke:#181818;stroke-width:1.0;"/></g><!--MD5=[51755a233fcd49f40c3450edf1eb41d0]
reverse link Invoice to OffInvoice--><g id="link_Invoice_OffInvoice"><path codeLine="1212" d="M151.72,283.17 C130.94,298.79 107.05,316.75 88.52,330.68 " fill="none" id="Invoice-backto-OffInvoice" style="stroke:#181818;stroke-width:1.0;"/><polygon fill="none" points="147.71,277.42,167.91,271,156.13,288.61,147.71,277.42" style="stroke:#181818;stroke-width:1.0;"/></g><!--MD5=[e468e4f9f079841a927640717320931e]
reverse link Invoice to ComInvoice--><g id="link_Invoice_ComInvoice"><path codeLine="1213" d="M198.5,291.02 C198.5,304.58 198.5,319.04 198.5,330.68 " fill="none" id="Invoice-backto-ComInvoice" style="stroke:#181818;stroke-width:1.0;"/><polygon fill="none" points="191.5,291,198.5,271,205.5,291,191.5,291" style="stroke:#181818;stroke-width:1.0;"/></g><!--MD5=[14f1b6234bf78c2a4d17b2496aa205af]
reverse link Employee to SalariedEmployee--><g id="link_Employee_SalariedEmployee"><path codeLine="1214" d="M337.15,289.57 C343.08,303.54 349.48,318.62 354.6,330.68 " fill="none" id="Employee-backto-SalariedEmployee" style="stroke:#181818;stroke-width:1.0;"/><polygon fill="none" points="330.64,292.15,329.26,271,343.52,286.67,330.64,292.15" style="stroke:#181818;stroke-width:1.0;"/></g><!--MD5=[101dd2de9a891f31bd5baaf9b43ab3bc]
link Invoice to Employee--><!--MD5=[c93d5963832441f15de3c62132f742ab]
@startuml 10-class-diagram-7
skinparam classAttributeIconSize 0
interface TestInterface
class Object
class Invoice
abstract Employee
class OffInvoice
class ComInvoice
class SalariedEmployee

Payable -u-|> TestInterface
class Invoice implements Payable
abstract Employee implements Payable
Invoice -u-|> Object
Employee -u-|> Object
OffInvoice -u-|> Invoice
ComInvoice -u-|> Invoice
SalariedEmployee -u-|> Employee

Invoice -[hidden]> Employee
@enduml

PlantUML version 1.2022.6(Wed Jun 22 02:34:49 KST 2022)
(GPL source distribution)
Java Runtime: OpenJDK Runtime Environment
JVM: OpenJDK 64-Bit Server VM
Default Encoding: UTF-8
Language: en
Country: US
--></g></svg>