<?xml version="1.0" encoding="UTF-8" standalone="no"?><svg xmlns="http://www.w3.org/2000/svg" xmlns:xlink="http://www.w3.org/1999/xlink" contentStyleType="text/css" height="208px" preserveAspectRatio="none" style="width:109px;height:208px;background:#FFFFFF;" version="1.1" viewBox="0 0 109 208" width="109px" zoomAndPan="magnify"><defs/><g><!--MD5=[7fd4401f5c5cb0e3d029c879cad30c04]
class Animal--><g id="elem_Animal"><rect codeLine="189" fill="#F1F1F1" height="67.0679" id="Animal" rx="2.5" ry="2.5" style="stroke:#181818;stroke-width:0.5;" width="95" x="7" y="7"/><ellipse cx="29.2" cy="23" fill="#ADD1B2" rx="11" ry="11" style="stroke:#181818;stroke-width:1.0;"/><path d="M28.6688,29.9219 Q26.9188,29.9219 25.7781,29.1875 Q24.6531,28.4375 24.0906,27.0938 Q23.5438,25.7344 23.5438,23.9375 Q23.5438,21.9063 24.2,20.4531 Q24.8563,19 26.1375,18.2188 Q27.4188,17.4375 29.2938,17.4375 Q30.1844,17.4375 30.8563,17.625 Q31.5281,17.7969 32.2156,18.1406 L31.4031,20.1563 Q30.7781,19.8438 30.2313,19.7188 Q29.7,19.5938 29.2156,19.5938 Q28.0438,19.5938 27.3406,20.125 Q26.6375,20.6563 26.3406,21.6094 Q26.0438,22.5625 26.0438,23.8281 Q26.0438,25.8438 26.7625,26.8125 Q27.4813,27.7656 29.075,27.7656 Q29.6688,27.7656 30.2938,27.6094 Q30.9188,27.4531 31.7469,27.0781 L31.7469,29.2969 Q31.0125,29.6094 30.2156,29.7656 Q29.4344,29.9219 28.6688,29.9219 Z " fill="#000000"/><text fill="#000000" font-family="sans-serif" font-size="14" lengthAdjust="spacing" textLength="47" x="44.8" y="28.432">Animal</text><line style="stroke:#181818;stroke-width:0.5;" x1="8" x2="101" y1="39" y2="39"/><line style="stroke:#181818;stroke-width:0.5;" x1="8" x2="101" y1="47" y2="47"/><text fill="#000000" font-family="sans-serif" font-size="14" lengthAdjust="spacing" textLength="83" x="13" y="65.9659">+void show()</text></g><!--MD5=[0ba60c1c7eece7977c024cb94d0d3fa3]
class Fish--><g id="elem_Fish"><rect codeLine="192" fill="#F1F1F1" height="67.0679" id="Fish" rx="2.5" ry="2.5" style="stroke:#181818;stroke-width:0.5;" width="94" x="7.5" y="134"/><ellipse cx="38.25" cy="150" fill="#ADD1B2" rx="11" ry="11" style="stroke:#181818;stroke-width:1.0;"/><path d="M37.7188,156.9219 Q35.9688,156.9219 34.8281,156.1875 Q33.7031,155.4375 33.1406,154.0938 Q32.5938,152.7344 32.5938,150.9375 Q32.5938,148.9063 33.25,147.4531 Q33.9063,146 35.1875,145.2188 Q36.4688,144.4375 38.3438,144.4375 Q39.2344,144.4375 39.9063,144.625 Q40.5781,144.7969 41.2656,145.1406 L40.4531,147.1563 Q39.8281,146.8438 39.2813,146.7188 Q38.75,146.5938 38.2656,146.5938 Q37.0938,146.5938 36.3906,147.125 Q35.6875,147.6563 35.3906,148.6094 Q35.0938,149.5625 35.0938,150.8281 Q35.0938,152.8438 35.8125,153.8125 Q36.5313,154.7656 38.125,154.7656 Q38.7188,154.7656 39.3438,154.6094 Q39.9688,154.4531 40.7969,154.0781 L40.7969,156.2969 Q40.0625,156.6094 39.2656,156.7656 Q38.4844,156.9219 37.7188,156.9219 Z " fill="#000000"/><text fill="#000000" font-family="sans-serif" font-size="14" lengthAdjust="spacing" textLength="27" x="55.75" y="155.432">Fish</text><line style="stroke:#181818;stroke-width:0.5;" x1="8.5" x2="100.5" y1="166" y2="166"/><line style="stroke:#181818;stroke-width:0.5;" x1="8.5" x2="100.5" y1="174" y2="174"/><text fill="#000000" font-family="sans-serif" font-size="14" lengthAdjust="spacing" textLength="82" x="13.5" y="192.9659">+void draw()</text></g><!--MD5=[148c53dede49fe4472cc2dd7d4afcf03]
reverse link Animal to Fish--><g id="link_Animal_Fish"><path codeLine="196" d="M54.5,94.2 C54.5,107.61 54.5,121.63 54.5,133.71 " fill="none" id="Animal-backto-Fish" style="stroke:#181818;stroke-width:1.0;"/><polygon fill="none" points="47.5,94.02,54.5,74.02,61.5,94.02,47.5,94.02" style="stroke:#181818;stroke-width:1.0;"/></g><!--MD5=[743b10060fc2d430446353cc08d03795]
@startuml 10-class-diagram-4
skinparam classAttributeIconSize 0
class Animal {
	+ void show()
}
class Fish {
	+ void draw()
}

Fish -u-|> Animal
@enduml

PlantUML version 1.2022.6(Wed Jun 22 02:34:49 KST 2022)
(GPL source distribution)
Java Runtime: OpenJDK Runtime Environment
JVM: OpenJDK 64-Bit Server VM
Default Encoding: UTF-8
Language: en
Country: US
--></g></svg>