<?xml version="1.0" encoding="UTF-8" standalone="no"?><svg xmlns="http://www.w3.org/2000/svg" xmlns:xlink="http://www.w3.org/1999/xlink" contentStyleType="text/css" height="278px" preserveAspectRatio="none" style="width:266px;height:278px;background:#FFFFFF;" version="1.1" viewBox="0 0 266 278" width="266px" zoomAndPan="magnify"><defs/><g><!--MD5=[f81db3ec5346a5ba3eb4b5ea54b1a916]
class Frog--><g id="elem_Frog"><rect fill="#F1F1F1" height="48" id="Frog" rx="2.5" ry="2.5" style="stroke:#181818;stroke-width:0.5;" width="62" x="7" y="115"/><ellipse cx="22" cy="131" fill="#ADD1B2" rx="11" ry="11" style="stroke:#181818;stroke-width:1.0;"/><path d="M21.4688,137.9219 Q19.7188,137.9219 18.5781,137.1875 Q17.4531,136.4375 16.8906,135.0938 Q16.3438,133.7344 16.3438,131.9375 Q16.3438,129.9063 17,128.4531 Q17.6563,127 18.9375,126.2188 Q20.2188,125.4375 22.0938,125.4375 Q22.9844,125.4375 23.6563,125.625 Q24.3281,125.7969 25.0156,126.1406 L24.2031,128.1563 Q23.5781,127.8438 23.0313,127.7188 Q22.5,127.5938 22.0156,127.5938 Q20.8438,127.5938 20.1406,128.125 Q19.4375,128.6563 19.1406,129.6094 Q18.8438,130.5625 18.8438,131.8281 Q18.8438,133.8438 19.5625,134.8125 Q20.2813,135.7656 21.875,135.7656 Q22.4688,135.7656 23.0938,135.6094 Q23.7188,135.4531 24.5469,135.0781 L24.5469,137.2969 Q23.8125,137.6094 23.0156,137.7656 Q22.2344,137.9219 21.4688,137.9219 Z " fill="#000000"/><text fill="#000000" font-family="sans-serif" font-size="14" lengthAdjust="spacing" textLength="30" x="36" y="136.432">Frog</text><line style="stroke:#181818;stroke-width:0.5;" x1="8" x2="68" y1="147" y2="147"/><line style="stroke:#181818;stroke-width:0.5;" x1="8" x2="68" y1="155" y2="155"/></g><!--MD5=[7fd4401f5c5cb0e3d029c879cad30c04]
class Animal--><g id="elem_Animal"><rect fill="#F1F1F1" height="48" id="Animal" rx="2.5" ry="2.5" style="stroke:#181818;stroke-width:0.5;" width="79" x="94.5" y="7"/><ellipse cx="109.5" cy="23" fill="#ADD1B2" rx="11" ry="11" style="stroke:#181818;stroke-width:1.0;"/><path d="M108.9688,29.9219 Q107.2188,29.9219 106.0781,29.1875 Q104.9531,28.4375 104.3906,27.0938 Q103.8438,25.7344 103.8438,23.9375 Q103.8438,21.9063 104.5,20.4531 Q105.1563,19 106.4375,18.2188 Q107.7188,17.4375 109.5938,17.4375 Q110.4844,17.4375 111.1563,17.625 Q111.8281,17.7969 112.5156,18.1406 L111.7031,20.1563 Q111.0781,19.8438 110.5313,19.7188 Q110,19.5938 109.5156,19.5938 Q108.3438,19.5938 107.6406,20.125 Q106.9375,20.6563 106.6406,21.6094 Q106.3438,22.5625 106.3438,23.8281 Q106.3438,25.8438 107.0625,26.8125 Q107.7813,27.7656 109.375,27.7656 Q109.9688,27.7656 110.5938,27.6094 Q111.2188,27.4531 112.0469,27.0781 L112.0469,29.2969 Q111.3125,29.6094 110.5156,29.7656 Q109.7344,29.9219 108.9688,29.9219 Z " fill="#000000"/><text fill="#000000" font-family="sans-serif" font-size="14" lengthAdjust="spacing" textLength="47" x="123.5" y="28.432">Animal</text><line style="stroke:#181818;stroke-width:0.5;" x1="95.5" x2="172.5" y1="39" y2="39"/><line style="stroke:#181818;stroke-width:0.5;" x1="95.5" x2="172.5" y1="47" y2="47"/></g><!--MD5=[0ba60c1c7eece7977c024cb94d0d3fa3]
class Fish--><g id="elem_Fish"><rect fill="#F1F1F1" height="48" id="Fish" rx="2.5" ry="2.5" style="stroke:#181818;stroke-width:0.5;" width="59" x="104.5" y="115"/><ellipse cx="119.5" cy="131" fill="#ADD1B2" rx="11" ry="11" style="stroke:#181818;stroke-width:1.0;"/><path d="M118.9688,137.9219 Q117.2188,137.9219 116.0781,137.1875 Q114.9531,136.4375 114.3906,135.0938 Q113.8438,133.7344 113.8438,131.9375 Q113.8438,129.9063 114.5,128.4531 Q115.1563,127 116.4375,126.2188 Q117.7188,125.4375 119.5938,125.4375 Q120.4844,125.4375 121.1563,125.625 Q121.8281,125.7969 122.5156,126.1406 L121.7031,128.1563 Q121.0781,127.8438 120.5313,127.7188 Q120,127.5938 119.5156,127.5938 Q118.3438,127.5938 117.6406,128.125 Q116.9375,128.6563 116.6406,129.6094 Q116.3438,130.5625 116.3438,131.8281 Q116.3438,133.8438 117.0625,134.8125 Q117.7813,135.7656 119.375,135.7656 Q119.9688,135.7656 120.5938,135.6094 Q121.2188,135.4531 122.0469,135.0781 L122.0469,137.2969 Q121.3125,137.6094 120.5156,137.7656 Q119.7344,137.9219 118.9688,137.9219 Z " fill="#000000"/><text fill="#000000" font-family="sans-serif" font-size="14" lengthAdjust="spacing" textLength="27" x="133.5" y="136.432">Fish</text><line style="stroke:#181818;stroke-width:0.5;" x1="105.5" x2="162.5" y1="147" y2="147"/><line style="stroke:#181818;stroke-width:0.5;" x1="105.5" x2="162.5" y1="155" y2="155"/></g><!--MD5=[90f66edba3ee2ef2943b92b287a7e5d6]
class Bird--><g id="elem_Bird"><rect fill="#F1F1F1" height="48" id="Bird" rx="2.5" ry="2.5" style="stroke:#181818;stroke-width:0.5;" width="60" x="199" y="115"/><ellipse cx="214" cy="131" fill="#ADD1B2" rx="11" ry="11" style="stroke:#181818;stroke-width:1.0;"/><path d="M213.4688,137.9219 Q211.7188,137.9219 210.5781,137.1875 Q209.4531,136.4375 208.8906,135.0938 Q208.3438,133.7344 208.3438,131.9375 Q208.3438,129.9063 209,128.4531 Q209.6563,127 210.9375,126.2188 Q212.2188,125.4375 214.0938,125.4375 Q214.9844,125.4375 215.6563,125.625 Q216.3281,125.7969 217.0156,126.1406 L216.2031,128.1563 Q215.5781,127.8438 215.0313,127.7188 Q214.5,127.5938 214.0156,127.5938 Q212.8438,127.5938 212.1406,128.125 Q211.4375,128.6563 211.1406,129.6094 Q210.8438,130.5625 210.8438,131.8281 Q210.8438,133.8438 211.5625,134.8125 Q212.2813,135.7656 213.875,135.7656 Q214.4688,135.7656 215.0938,135.6094 Q215.7188,135.4531 216.5469,135.0781 L216.5469,137.2969 Q215.8125,137.6094 215.0156,137.7656 Q214.2344,137.9219 213.4688,137.9219 Z " fill="#000000"/><text fill="#000000" font-family="sans-serif" font-size="14" lengthAdjust="spacing" textLength="28" x="228" y="136.432">Bird</text><line style="stroke:#181818;stroke-width:0.5;" x1="200" x2="258" y1="147" y2="147"/><line style="stroke:#181818;stroke-width:0.5;" x1="200" x2="258" y1="155" y2="155"/></g><!--MD5=[6113e5c4515ad319fb6b60dc3703394e]
class GoldFish--><g id="elem_GoldFish"><rect fill="#F1F1F1" height="48" id="GoldFish" rx="2.5" ry="2.5" style="stroke:#181818;stroke-width:0.5;" width="90" x="89" y="223"/><ellipse cx="104" cy="239" fill="#ADD1B2" rx="11" ry="11" style="stroke:#181818;stroke-width:1.0;"/><path d="M103.4688,245.9219 Q101.7188,245.9219 100.5781,245.1875 Q99.4531,244.4375 98.8906,243.0938 Q98.3438,241.7344 98.3438,239.9375 Q98.3438,237.9063 99,236.4531 Q99.6563,235 100.9375,234.2188 Q102.2188,233.4375 104.0938,233.4375 Q104.9844,233.4375 105.6563,233.625 Q106.3281,233.7969 107.0156,234.1406 L106.2031,236.1563 Q105.5781,235.8438 105.0313,235.7188 Q104.5,235.5938 104.0156,235.5938 Q102.8438,235.5938 102.1406,236.125 Q101.4375,236.6563 101.1406,237.6094 Q100.8438,238.5625 100.8438,239.8281 Q100.8438,241.8438 101.5625,242.8125 Q102.2813,243.7656 103.875,243.7656 Q104.4688,243.7656 105.0938,243.6094 Q105.7188,243.4531 106.5469,243.0781 L106.5469,245.2969 Q105.8125,245.6094 105.0156,245.7656 Q104.2344,245.9219 103.4688,245.9219 Z " fill="#000000"/><text fill="#000000" font-family="sans-serif" font-size="14" lengthAdjust="spacing" textLength="58" x="118" y="244.432">GoldFish</text><line style="stroke:#181818;stroke-width:0.5;" x1="90" x2="178" y1="255" y2="255"/><line style="stroke:#181818;stroke-width:0.5;" x1="90" x2="178" y1="263" y2="263"/></g><!--MD5=[33a5d9c44f6326da31329df29c5d9c88]
reverse link Animal to Frog--><g id="link_Animal_Frog"><path codeLine="56" d="M99.38,70.23 C85.91,85.1 70.92,101.65 59.12,114.68 " fill="none" id="Animal-backto-Frog" style="stroke:#181818;stroke-width:1.0;"/><polygon fill="none" points="94.56,65.13,113.17,55,104.93,74.52,94.56,65.13" style="stroke:#181818;stroke-width:1.0;"/></g><!--MD5=[148c53dede49fe4472cc2dd7d4afcf03]
reverse link Animal to Fish--><g id="link_Animal_Fish"><path codeLine="57" d="M134,75.02 C134,88.58 134,103.04 134,114.68 " fill="none" id="Animal-backto-Fish" style="stroke:#181818;stroke-width:1.0;"/><polygon fill="none" points="127,75,134,55,141,75,127,75" style="stroke:#181818;stroke-width:1.0;"/></g><!--MD5=[a84a51317509fe0330c0e17948498a29]
reverse link Animal to Bird--><g id="link_Animal_Bird"><path codeLine="58" d="M168.26,70.23 C181.59,85.1 196.42,101.65 208.1,114.68 " fill="none" id="Animal-backto-Bird" style="stroke:#181818;stroke-width:1.0;"/><polygon fill="none" points="162.75,74.57,154.61,55,173.17,65.22,162.75,74.57" style="stroke:#181818;stroke-width:1.0;"/></g><!--MD5=[5dde25c4ca70d7e3a68ccdf54d90888f]
reverse link Fish to GoldFish--><g id="link_Fish_GoldFish"><path codeLine="59" d="M134,183.02 C134,196.58 134,211.04 134,222.68 " fill="none" id="Fish-backto-GoldFish" style="stroke:#181818;stroke-width:1.0;"/><polygon fill="none" points="127,183,134,163,141,183,127,183" style="stroke:#181818;stroke-width:1.0;"/></g><!--MD5=[b6326904dd72fdf62c2ba4e498d34866]
link Frog to Fish--><!--MD5=[8406df5e8e7da1719f33dffda1033343]
@startuml 10-class-diagram-1
skinparam classAttributeIconSize 0
Frog -u-|> Animal
Fish -u-|> Animal
Bird -u-|> Animal
GoldFish -u-|> Fish
Frog -[hidden]> Fish
@enduml

PlantUML version 1.2022.6(Wed Jun 22 02:34:49 KST 2022)
(GPL source distribution)
Java Runtime: OpenJDK Runtime Environment
JVM: OpenJDK 64-Bit Server VM
Default Encoding: UTF-8
Language: en
Country: US
--></g></svg>