<?xml version="1.0" encoding="UTF-8" standalone="no"?><svg xmlns="http://www.w3.org/2000/svg" xmlns:xlink="http://www.w3.org/1999/xlink" contentStyleType="text/css" height="208px" preserveAspectRatio="none" style="width:253px;height:208px;background:#FFFFFF;" version="1.1" viewBox="0 0 253 208" width="253px" zoomAndPan="magnify"><defs/><g><!--MD5=[3756e011bab916eeadcee8ce3db1a22e]
class CommissionEmployee--><g id="elem_CommissionEmployee"><rect codeLine="225" fill="#F1F1F1" height="67.0679" id="CommissionEmployee" rx="2.5" ry="2.5" style="stroke:#181818;stroke-width:0.5;" width="179" x="37" y="7"/><ellipse cx="52" cy="23" fill="#ADD1B2" rx="11" ry="11" style="stroke:#181818;stroke-width:1.0;"/><path d="M51.4688,29.9219 Q49.7188,29.9219 48.5781,29.1875 Q47.4531,28.4375 46.8906,27.0938 Q46.3438,25.7344 46.3438,23.9375 Q46.3438,21.9063 47,20.4531 Q47.6563,19 48.9375,18.2188 Q50.2188,17.4375 52.0938,17.4375 Q52.9844,17.4375 53.6563,17.625 Q54.3281,17.7969 55.0156,18.1406 L54.2031,20.1563 Q53.5781,19.8438 53.0313,19.7188 Q52.5,19.5938 52.0156,19.5938 Q50.8438,19.5938 50.1406,20.125 Q49.4375,20.6563 49.1406,21.6094 Q48.8438,22.5625 48.8438,23.8281 Q48.8438,25.8438 49.5625,26.8125 Q50.2813,27.7656 51.875,27.7656 Q52.4688,27.7656 53.0938,27.6094 Q53.7188,27.4531 54.5469,27.0781 L54.5469,29.2969 Q53.8125,29.6094 53.0156,29.7656 Q52.2344,29.9219 51.4688,29.9219 Z " fill="#000000"/><text fill="#000000" font-family="sans-serif" font-size="14" lengthAdjust="spacing" textLength="147" x="66" y="28.432">CommissionEmployee</text><line style="stroke:#181818;stroke-width:0.5;" x1="38" x2="215" y1="39" y2="39"/><line style="stroke:#181818;stroke-width:0.5;" x1="38" x2="215" y1="47" y2="47"/><text fill="#000000" font-family="sans-serif" font-size="14" lengthAdjust="spacing" textLength="115" x="43" y="65.9659">+String toString()</text></g><!--MD5=[5798aced8547ac8cbf94d58165a7a7eb]
class BasePlusCommissionEmployee--><g id="elem_BasePlusCommissionEmployee"><rect codeLine="228" fill="#F1F1F1" height="67.0679" id="BasePlusCommissionEmployee" rx="2.5" ry="2.5" style="stroke:#181818;stroke-width:0.5;" width="239" x="7" y="134"/><ellipse cx="22" cy="150" fill="#ADD1B2" rx="11" ry="11" style="stroke:#181818;stroke-width:1.0;"/><path d="M21.4688,156.9219 Q19.7188,156.9219 18.5781,156.1875 Q17.4531,155.4375 16.8906,154.0938 Q16.3438,152.7344 16.3438,150.9375 Q16.3438,148.9063 17,147.4531 Q17.6563,146 18.9375,145.2188 Q20.2188,144.4375 22.0938,144.4375 Q22.9844,144.4375 23.6563,144.625 Q24.3281,144.7969 25.0156,145.1406 L24.2031,147.1563 Q23.5781,146.8438 23.0313,146.7188 Q22.5,146.5938 22.0156,146.5938 Q20.8438,146.5938 20.1406,147.125 Q19.4375,147.6563 19.1406,148.6094 Q18.8438,149.5625 18.8438,150.8281 Q18.8438,152.8438 19.5625,153.8125 Q20.2813,154.7656 21.875,154.7656 Q22.4688,154.7656 23.0938,154.6094 Q23.7188,154.4531 24.5469,154.0781 L24.5469,156.2969 Q23.8125,156.6094 23.0156,156.7656 Q22.2344,156.9219 21.4688,156.9219 Z " fill="#000000"/><text fill="#000000" font-family="sans-serif" font-size="14" lengthAdjust="spacing" textLength="207" x="36" y="155.432">BasePlusCommissionEmployee</text><line style="stroke:#181818;stroke-width:0.5;" x1="8" x2="245" y1="166" y2="166"/><text fill="#000000" font-family="sans-serif" font-size="14" lengthAdjust="spacing" textLength="194" x="13" y="184.9659">+String toString  // overriden</text><line style="stroke:#181818;stroke-width:0.5;" x1="8" x2="245" y1="193.0679" y2="193.0679"/></g><!--MD5=[f52955450710b3c76fa204ec870f0bb0]
reverse link CommissionEmployee to BasePlusCommissionEmployee--><g id="link_CommissionEmployee_BasePlusCommissionEmployee"><path codeLine="232" d="M126.5,94.2 C126.5,107.61 126.5,121.63 126.5,133.71 " fill="none" id="CommissionEmployee-backto-BasePlusCommissionEmployee" style="stroke:#181818;stroke-width:1.0;"/><polygon fill="none" points="119.5,94.02,126.5,74.02,133.5,94.02,119.5,94.02" style="stroke:#181818;stroke-width:1.0;"/></g><!--MD5=[36e818aa71de5366429be78859cdf229]
@startuml 10-class-diagram-5
skinparam classAttributeIconSize 0
class CommissionEmployee {
	+ String toString()
}
class BasePlusCommissionEmployee {
	+ String toString  // overriden
}

BasePlusCommissionEmployee -u-|> CommissionEmployee
@enduml

PlantUML version 1.2022.6(Wed Jun 22 02:34:49 KST 2022)
(GPL source distribution)
Java Runtime: OpenJDK Runtime Environment
JVM: OpenJDK 64-Bit Server VM
Default Encoding: UTF-8
Language: en
Country: US
--></g></svg>