<?xml version="1.0" encoding="UTF-8" standalone="no"?><svg xmlns="http://www.w3.org/2000/svg" xmlns:xlink="http://www.w3.org/1999/xlink" contentStyleType="text/css" height="246px" preserveAspectRatio="none" style="width:197px;height:246px;background:#FFFFFF;" version="1.1" viewBox="0 0 197 246" width="197px" zoomAndPan="magnify"><defs/><g><!--MD5=[7fd4401f5c5cb0e3d029c879cad30c04]
class Animal--><g id="elem_Animal"><rect codeLine="79" fill="#F1F1F1" height="86.1358" id="Animal" rx="2.5" ry="2.5" style="stroke:#181818;stroke-width:0.5;" width="96" x="50.5" y="7"/><ellipse cx="73.15" cy="23" fill="#ADD1B2" rx="11" ry="11" style="stroke:#181818;stroke-width:1.0;"/><path d="M72.6188,29.9219 Q70.8688,29.9219 69.7281,29.1875 Q68.6031,28.4375 68.0406,27.0938 Q67.4938,25.7344 67.4938,23.9375 Q67.4938,21.9063 68.15,20.4531 Q68.8063,19 70.0875,18.2188 Q71.3688,17.4375 73.2438,17.4375 Q74.1344,17.4375 74.8063,17.625 Q75.4781,17.7969 76.1656,18.1406 L75.3531,20.1563 Q74.7281,19.8438 74.1813,19.7188 Q73.65,19.5938 73.1656,19.5938 Q71.9938,19.5938 71.2906,20.125 Q70.5875,20.6563 70.2906,21.6094 Q69.9938,22.5625 69.9938,23.8281 Q69.9938,25.8438 70.7125,26.8125 Q71.4313,27.7656 73.025,27.7656 Q73.6188,27.7656 74.2438,27.6094 Q74.8688,27.4531 75.6969,27.0781 L75.6969,29.2969 Q74.9625,29.6094 74.1656,29.7656 Q73.3844,29.9219 72.6188,29.9219 Z " fill="#000000"/><text fill="#000000" font-family="sans-serif" font-size="14" lengthAdjust="spacing" textLength="47" x="88.85" y="28.432">Animal</text><line style="stroke:#181818;stroke-width:0.5;" x1="51.5" x2="145.5" y1="39" y2="39"/><line style="stroke:#181818;stroke-width:0.5;" x1="51.5" x2="145.5" y1="47" y2="47"/><text fill="#000000" font-family="sans-serif" font-size="14" lengthAdjust="spacing" textLength="83" x="56.5" y="65.9659">+void show()</text><text fill="#000000" font-family="sans-serif" font-size="14" lengthAdjust="spacing" textLength="84" x="56.5" y="85.0339">+void move()</text></g><!--MD5=[0ba60c1c7eece7977c024cb94d0d3fa3]
class Fish--><g id="elem_Fish"><rect codeLine="83" fill="#F1F1F1" height="86.1358" id="Fish" rx="2.5" ry="2.5" style="stroke:#181818;stroke-width:0.5;" width="183" x="7" y="153"/><ellipse cx="80.75" cy="169" fill="#ADD1B2" rx="11" ry="11" style="stroke:#181818;stroke-width:1.0;"/><path d="M80.2188,175.9219 Q78.4688,175.9219 77.3281,175.1875 Q76.2031,174.4375 75.6406,173.0938 Q75.0938,171.7344 75.0938,169.9375 Q75.0938,167.9063 75.75,166.4531 Q76.4063,165 77.6875,164.2188 Q78.9688,163.4375 80.8438,163.4375 Q81.7344,163.4375 82.4063,163.625 Q83.0781,163.7969 83.7656,164.1406 L82.9531,166.1563 Q82.3281,165.8438 81.7813,165.7188 Q81.25,165.5938 80.7656,165.5938 Q79.5938,165.5938 78.8906,166.125 Q78.1875,166.6563 77.8906,167.6094 Q77.5938,168.5625 77.5938,169.8281 Q77.5938,171.8438 78.3125,172.8125 Q79.0313,173.7656 80.625,173.7656 Q81.2188,173.7656 81.8438,173.6094 Q82.4688,173.4531 83.2969,173.0781 L83.2969,175.2969 Q82.5625,175.6094 81.7656,175.7656 Q80.9844,175.9219 80.2188,175.9219 Z " fill="#000000"/><text fill="#000000" font-family="sans-serif" font-size="14" lengthAdjust="spacing" textLength="27" x="101.25" y="174.432">Fish</text><line style="stroke:#181818;stroke-width:0.5;" x1="8" x2="189" y1="185" y2="185"/><line style="stroke:#181818;stroke-width:0.5;" x1="8" x2="189" y1="193" y2="193"/><text fill="#000000" font-family="sans-serif" font-size="14" lengthAdjust="spacing" textLength="82" x="13" y="211.9659">+void draw()</text><text fill="#000000" font-family="sans-serif" font-size="14" lengthAdjust="spacing" textLength="171" x="13" y="231.0339">+void move()  // overriden</text></g><!--MD5=[148c53dede49fe4472cc2dd7d4afcf03]
reverse link Animal to Fish--><g id="link_Animal_Fish"><path codeLine="88" d="M98.5,113.29 C98.5,126.58 98.5,140.33 98.5,152.66 " fill="none" id="Animal-backto-Fish" style="stroke:#181818;stroke-width:1.0;"/><polygon fill="none" points="91.5,113.04,98.5,93.04,105.5,113.04,91.5,113.04" style="stroke:#181818;stroke-width:1.0;"/></g><!--MD5=[47454d247c3459c626e1fc988a03702f]
@startuml 10-class-diagram-2
skinparam classAttributeIconSize 0
class Animal {
	+ void show()
	+ void move()
}
class Fish {
	+ void draw()
	+ void move()  // overriden
}

Fish -u-|> Animal
@enduml

PlantUML version 1.2022.6(Wed Jun 22 02:34:49 KST 2022)
(GPL source distribution)
Java Runtime: OpenJDK Runtime Environment
JVM: OpenJDK 64-Bit Server VM
Default Encoding: UTF-8
Language: en
Country: US
--></g></svg>