<?xml version="1.0" encoding="UTF-8" standalone="no"?><svg xmlns="http://www.w3.org/2000/svg" xmlns:xlink="http://www.w3.org/1999/xlink" contentStyleType="text/css" height="392px" preserveAspectRatio="none" style="width:473px;height:392px;background:#FFFFFF;" version="1.1" viewBox="0 0 473 392" width="473px" zoomAndPan="magnify"><defs/><g><!--MD5=[690bdd5a5fcc261aa2ec0857313066c2]
class Payable--><g id="elem_Payable"><rect codeLine="1267" fill="#F1F1F1" height="67.0679" id="Payable" rx="2.5" ry="2.5" style="stroke:#181818;stroke-width:0.5;" width="199" x="247.5" y="7"/><ellipse cx="317.75" cy="23" fill="#B4A7E5" rx="11" ry="11" style="stroke:#181818;stroke-width:1.0;"/><path d="M313.7813,29.5 L313.7813,27.7969 L316.1406,27.5313 L316.1406,19.3281 L313.7813,19.0625 L313.7813,17.3594 L320.9219,17.3594 L320.9219,19.0625 L318.5,19.3281 L318.5,27.5313 L320.9219,27.7969 L320.9219,29.5 L313.7813,29.5 Z " fill="#000000"/><text fill="#000000" font-family="sans-serif" font-size="14" font-style="italic" lengthAdjust="spacing" textLength="50" x="338.25" y="28.432">Payable</text><line style="stroke:#181818;stroke-width:0.5;" x1="248.5" x2="445.5" y1="39" y2="39"/><line style="stroke:#181818;stroke-width:0.5;" x1="248.5" x2="445.5" y1="47" y2="47"/><text fill="#000000" font-family="sans-serif" font-size="14" font-style="italic" lengthAdjust="spacing" textLength="187" x="253.5" y="65.9659">+double getPaymentAmount()</text></g><!--MD5=[aa7f586532e18719e6cefa70fc650583]
class Object--><g id="elem_Object"><rect codeLine="1270" fill="#F1F1F1" height="67.0679" id="Object" rx="2.5" ry="2.5" style="stroke:#181818;stroke-width:0.5;" width="127" x="73.5" y="7"/><ellipse cx="111.45" cy="23" fill="#ADD1B2" rx="11" ry="11" style="stroke:#181818;stroke-width:1.0;"/><path d="M110.9188,29.9219 Q109.1688,29.9219 108.0281,29.1875 Q106.9031,28.4375 106.3406,27.0938 Q105.7938,25.7344 105.7938,23.9375 Q105.7938,21.9063 106.45,20.4531 Q107.1063,19 108.3875,18.2188 Q109.6688,17.4375 111.5438,17.4375 Q112.4344,17.4375 113.1063,17.625 Q113.7781,17.7969 114.4656,18.1406 L113.6531,20.1563 Q113.0281,19.8438 112.4813,19.7188 Q111.95,19.5938 111.4656,19.5938 Q110.2938,19.5938 109.5906,20.125 Q108.8875,20.6563 108.5906,21.6094 Q108.2938,22.5625 108.2938,23.8281 Q108.2938,25.8438 109.0125,26.8125 Q109.7313,27.7656 111.325,27.7656 Q111.9188,27.7656 112.5438,27.6094 Q113.1688,27.4531 113.9969,27.0781 L113.9969,29.2969 Q113.2625,29.6094 112.4656,29.7656 Q111.6844,29.9219 110.9188,29.9219 Z " fill="#000000"/><text fill="#000000" font-family="sans-serif" font-size="14" lengthAdjust="spacing" textLength="44" x="130.55" y="28.432">Object</text><line style="stroke:#181818;stroke-width:0.5;" x1="74.5" x2="199.5" y1="39" y2="39"/><line style="stroke:#181818;stroke-width:0.5;" x1="74.5" x2="199.5" y1="47" y2="47"/><text fill="#000000" font-family="sans-serif" font-size="14" lengthAdjust="spacing" textLength="115" x="79.5" y="65.9659">+String toString()</text></g><!--MD5=[894442645724153f40a9f7a43026dbfc]
class Invoice--><g id="elem_Invoice"><rect codeLine="1287" fill="#F1F1F1" height="86.1358" id="Invoice" rx="2.5" ry="2.5" style="stroke:#181818;stroke-width:0.5;" width="212" x="7" y="143.5"/><ellipse cx="84.75" cy="159.5" fill="#ADD1B2" rx="11" ry="11" style="stroke:#181818;stroke-width:1.0;"/><path d="M84.2188,166.4219 Q82.4688,166.4219 81.3281,165.6875 Q80.2031,164.9375 79.6406,163.5938 Q79.0938,162.2344 79.0938,160.4375 Q79.0938,158.4063 79.75,156.9531 Q80.4063,155.5 81.6875,154.7188 Q82.9688,153.9375 84.8438,153.9375 Q85.7344,153.9375 86.4063,154.125 Q87.0781,154.2969 87.7656,154.6406 L86.9531,156.6563 Q86.3281,156.3438 85.7813,156.2188 Q85.25,156.0938 84.7656,156.0938 Q83.5938,156.0938 82.8906,156.625 Q82.1875,157.1563 81.8906,158.1094 Q81.5938,159.0625 81.5938,160.3281 Q81.5938,162.3438 82.3125,163.3125 Q83.0313,164.2656 84.625,164.2656 Q85.2188,164.2656 85.8438,164.1094 Q86.4688,163.9531 87.2969,163.5781 L87.2969,165.7969 Q86.5625,166.1094 85.7656,166.2656 Q84.9844,166.4219 84.2188,166.4219 Z " fill="#000000"/><text fill="#000000" font-family="sans-serif" font-size="14" lengthAdjust="spacing" textLength="48" x="105.25" y="164.932">Invoice</text><line style="stroke:#181818;stroke-width:0.5;" x1="8" x2="218" y1="175.5" y2="175.5"/><line style="stroke:#181818;stroke-width:0.5;" x1="8" x2="218" y1="183.5" y2="183.5"/><text fill="#000000" font-family="sans-serif" font-size="14" lengthAdjust="spacing" textLength="115" x="13" y="202.4659">+String toString()</text><text fill="#000000" font-family="sans-serif" font-size="14" lengthAdjust="spacing" textLength="200" x="13" y="221.5339">+double getPaymentAmount()</text></g><!--MD5=[7421f545a0d8420c5bec41e74b387d9c]
class Employee--><g id="elem_Employee"><rect codeLine="1288" fill="#F1F1F1" height="105.2038" id="Employee" rx="2.5" ry="2.5" style="stroke:#181818;stroke-width:0.5;" width="212" x="254" y="134"/><ellipse cx="325.75" cy="150" fill="#A9DCDF" rx="11" ry="11" style="stroke:#181818;stroke-width:1.0;"/><path d="M320.9219,155.75 L324.2656,143.5625 L327.4063,143.5625 L330.7813,155.75 L328.3125,155.75 L327.5781,152.7344 L324.0625,152.7344 L323.3125,155.75 L320.9219,155.75 Z M325.3281,147.7031 L324.5781,150.7031 L327.0938,150.7031 L326.375,147.7031 Q326.2344,147.125 326.1094,146.5781 Q325.9844,146.0156 325.8438,145.4375 Q325.7344,146.0156 325.5938,146.5781 Q325.4531,147.125 325.3281,147.7031 Z " fill="#000000"/><text fill="#000000" font-family="sans-serif" font-size="14" font-style="italic" lengthAdjust="spacing" textLength="60" x="346.25" y="155.432">Employee</text><line style="stroke:#181818;stroke-width:0.5;" x1="255" x2="465" y1="166" y2="166"/><line style="stroke:#181818;stroke-width:0.5;" x1="255" x2="465" y1="174" y2="174"/><text fill="#000000" font-family="sans-serif" font-size="14" font-style="italic" lengthAdjust="spacing" textLength="118" x="260" y="192.9659">+double earnings()</text><text fill="#000000" font-family="sans-serif" font-size="14" lengthAdjust="spacing" textLength="115" x="260" y="212.0339">+String toString()</text><text fill="#000000" font-family="sans-serif" font-size="14" lengthAdjust="spacing" textLength="200" x="260" y="231.1018">+double getPaymentAmount()</text></g><!--MD5=[1f570ed761f4e3402fcd142935c16e01]
class SalariedEmployee--><g id="elem_SalariedEmployee"><rect codeLine="1282" fill="#F1F1F1" height="86.1358" id="SalariedEmployee" rx="2.5" ry="2.5" style="stroke:#181818;stroke-width:0.5;" width="152" x="284" y="299"/><ellipse cx="299" cy="315" fill="#ADD1B2" rx="11" ry="11" style="stroke:#181818;stroke-width:1.0;"/><path d="M298.4688,321.9219 Q296.7188,321.9219 295.5781,321.1875 Q294.4531,320.4375 293.8906,319.0938 Q293.3438,317.7344 293.3438,315.9375 Q293.3438,313.9063 294,312.4531 Q294.6563,311 295.9375,310.2188 Q297.2188,309.4375 299.0938,309.4375 Q299.9844,309.4375 300.6563,309.625 Q301.3281,309.7969 302.0156,310.1406 L301.2031,312.1563 Q300.5781,311.8438 300.0313,311.7188 Q299.5,311.5938 299.0156,311.5938 Q297.8438,311.5938 297.1406,312.125 Q296.4375,312.6563 296.1406,313.6094 Q295.8438,314.5625 295.8438,315.8281 Q295.8438,317.8438 296.5625,318.8125 Q297.2813,319.7656 298.875,319.7656 Q299.4688,319.7656 300.0938,319.6094 Q300.7188,319.4531 301.5469,319.0781 L301.5469,321.2969 Q300.8125,321.6094 300.0156,321.7656 Q299.2344,321.9219 298.4688,321.9219 Z " fill="#000000"/><text fill="#000000" font-family="sans-serif" font-size="14" lengthAdjust="spacing" textLength="120" x="313" y="320.432">SalariedEmployee</text><line style="stroke:#181818;stroke-width:0.5;" x1="285" x2="435" y1="331" y2="331"/><line style="stroke:#181818;stroke-width:0.5;" x1="285" x2="435" y1="339" y2="339"/><text fill="#000000" font-family="sans-serif" font-size="14" lengthAdjust="spacing" textLength="127" x="290" y="357.9659">+double earnings()</text><text fill="#000000" font-family="sans-serif" font-size="14" lengthAdjust="spacing" textLength="115" x="290" y="377.0339">+String toString()</text></g><!--MD5=[2816e1f7ded47e4b1a2160a38e996543]
reverse link Payable to Invoice--><g id="link_Payable_Invoice"><path d="M276.78,84.71 C246.6,103.29 211.44,124.92 181.45,143.38 " fill="none" id="Payable-backto-Invoice" style="stroke:#181818;stroke-width:1.0;stroke-dasharray:7.0,7.0;"/><polygon fill="none" points="273.2,78.7,293.9,74.18,280.54,90.62,273.2,78.7" style="stroke:#181818;stroke-width:1.0;"/></g><!--MD5=[803efb3966bf0ee498cd7df458fdeab3]
reverse link Payable to Employee--><g id="link_Payable_Employee"><path d="M351.75,94.11 C352.92,107.04 354.16,120.86 355.33,133.75 " fill="none" id="Payable-backto-Employee" style="stroke:#181818;stroke-width:1.0;stroke-dasharray:7.0,7.0;"/><polygon fill="none" points="344.78,94.72,349.95,74.18,358.72,93.47,344.78,94.72" style="stroke:#181818;stroke-width:1.0;"/></g><!--MD5=[2af32a21f080cdaea0454eb5d9afa505]
reverse link Object to Invoice--><g id="link_Object_Invoice"><path codeLine="1289" d="M128.24,94.04 C125.54,110.28 122.59,127.94 120.02,143.38 " fill="none" id="Object-backto-Invoice" style="stroke:#181818;stroke-width:1.0;"/><polygon fill="none" points="121.36,92.75,131.55,74.18,135.17,95.05,121.36,92.75" style="stroke:#181818;stroke-width:1.0;"/></g><!--MD5=[a84477c024db835ad656a3bab832d406]
reverse link Object to Employee--><g id="link_Object_Employee"><path codeLine="1290" d="M204.63,85.17 C228.35,100.49 255.21,117.84 279.86,133.75 " fill="none" id="Object-backto-Employee" style="stroke:#181818;stroke-width:1.0;"/><polygon fill="none" points="200.61,90.91,187.6,74.18,208.2,79.14,200.61,90.91" style="stroke:#181818;stroke-width:1.0;"/></g><!--MD5=[14f1b6234bf78c2a4d17b2496aa205af]
reverse link Employee to SalariedEmployee--><g id="link_Employee_SalariedEmployee"><path codeLine="1291" d="M360,259.12 C360,272.61 360,286.3 360,298.53 " fill="none" id="Employee-backto-SalariedEmployee" style="stroke:#181818;stroke-width:1.0;"/><polygon fill="none" points="353,259.04,360,239.04,367,259.04,353,259.04" style="stroke:#181818;stroke-width:1.0;"/></g><!--MD5=[101dd2de9a891f31bd5baaf9b43ab3bc]
link Invoice to Employee--><!--MD5=[7bd8b187a330db4fb30097d1df236f8d]
@startuml 10-class-diagram-8
skinparam classAttributeIconSize 0
interface Payable {
	+ {abstract} double getPaymentAmount()
}
class Object {
	+ String toString()
}
class Invoice {
	+ String toString()
	+ double getPaymentAmount()
}
abstract Employee {
	+ {abstract} double earnings()
	+ String toString()
	+ double getPaymentAmount()
}
class SalariedEmployee {
	+ double earnings()
	+ String toString()
}

class Invoice implements Payable
abstract Employee implements Payable
Invoice -u-|> Object
Employee -u-|> Object
SalariedEmployee -u-|> Employee

Invoice -[hidden]> Employee
@enduml

PlantUML version 1.2022.6(Wed Jun 22 02:34:49 KST 2022)
(GPL source distribution)
Java Runtime: OpenJDK Runtime Environment
JVM: OpenJDK 64-Bit Server VM
Default Encoding: UTF-8
Language: en
Country: US
--></g></svg>