<?xml version="1.0" encoding="UTF-8" standalone="no"?><svg xmlns="http://www.w3.org/2000/svg" xmlns:xlink="http://www.w3.org/1999/xlink" contentStyleType="text/css" height="208px" preserveAspectRatio="none" style="width:660px;height:208px;background:#FFFFFF;" version="1.1" viewBox="0 0 660 208" width="660px" zoomAndPan="magnify"><defs/><g><!--MD5=[7fd4401f5c5cb0e3d029c879cad30c04]
class Animal--><g id="elem_Animal"><rect codeLine="134" fill="#F1F1F1" height="67.0679" id="Animal" rx="2.5" ry="2.5" style="stroke:#181818;stroke-width:0.5;" width="96" x="282" y="7"/><ellipse cx="304.65" cy="23" fill="#ADD1B2" rx="11" ry="11" style="stroke:#181818;stroke-width:1.0;"/><path d="M304.1188,29.9219 Q302.3688,29.9219 301.2281,29.1875 Q300.1031,28.4375 299.5406,27.0938 Q298.9938,25.7344 298.9938,23.9375 Q298.9938,21.9063 299.65,20.4531 Q300.3063,19 301.5875,18.2188 Q302.8688,17.4375 304.7438,17.4375 Q305.6344,17.4375 306.3063,17.625 Q306.9781,17.7969 307.6656,18.1406 L306.8531,20.1563 Q306.2281,19.8438 305.6813,19.7188 Q305.15,19.5938 304.6656,19.5938 Q303.4938,19.5938 302.7906,20.125 Q302.0875,20.6563 301.7906,21.6094 Q301.4938,22.5625 301.4938,23.8281 Q301.4938,25.8438 302.2125,26.8125 Q302.9313,27.7656 304.525,27.7656 Q305.1188,27.7656 305.7438,27.6094 Q306.3688,27.4531 307.1969,27.0781 L307.1969,29.2969 Q306.4625,29.6094 305.6656,29.7656 Q304.8844,29.9219 304.1188,29.9219 Z " fill="#000000"/><text fill="#000000" font-family="sans-serif" font-size="14" lengthAdjust="spacing" textLength="47" x="320.35" y="28.432">Animal</text><line style="stroke:#181818;stroke-width:0.5;" x1="283" x2="377" y1="39" y2="39"/><line style="stroke:#181818;stroke-width:0.5;" x1="283" x2="377" y1="47" y2="47"/><text fill="#000000" font-family="sans-serif" font-size="14" lengthAdjust="spacing" textLength="84" x="288" y="65.9659">+void move()</text></g><!--MD5=[0ba60c1c7eece7977c024cb94d0d3fa3]
class Fish--><g id="elem_Fish"><rect codeLine="137" fill="#F1F1F1" height="67.0679" id="Fish" rx="2.5" ry="2.5" style="stroke:#181818;stroke-width:0.5;" width="192" x="7" y="134"/><ellipse cx="85.25" cy="150" fill="#ADD1B2" rx="11" ry="11" style="stroke:#181818;stroke-width:1.0;"/><path d="M84.7188,156.9219 Q82.9688,156.9219 81.8281,156.1875 Q80.7031,155.4375 80.1406,154.0938 Q79.5938,152.7344 79.5938,150.9375 Q79.5938,148.9063 80.25,147.4531 Q80.9063,146 82.1875,145.2188 Q83.4688,144.4375 85.3438,144.4375 Q86.2344,144.4375 86.9063,144.625 Q87.5781,144.7969 88.2656,145.1406 L87.4531,147.1563 Q86.8281,146.8438 86.2813,146.7188 Q85.75,146.5938 85.2656,146.5938 Q84.0938,146.5938 83.3906,147.125 Q82.6875,147.6563 82.3906,148.6094 Q82.0938,149.5625 82.0938,150.8281 Q82.0938,152.8438 82.8125,153.8125 Q83.5313,154.7656 85.125,154.7656 Q85.7188,154.7656 86.3438,154.6094 Q86.9688,154.4531 87.7969,154.0781 L87.7969,156.2969 Q87.0625,156.6094 86.2656,156.7656 Q85.4844,156.9219 84.7188,156.9219 Z " fill="#000000"/><text fill="#000000" font-family="sans-serif" font-size="14" lengthAdjust="spacing" textLength="27" x="105.75" y="155.432">Fish</text><line style="stroke:#181818;stroke-width:0.5;" x1="8" x2="198" y1="166" y2="166"/><line style="stroke:#181818;stroke-width:0.5;" x1="8" x2="198" y1="174" y2="174"/><text fill="#000000" font-family="sans-serif" font-size="14" lengthAdjust="spacing" textLength="180" x="13" y="192.9659">+void move()  // overridden</text></g><!--MD5=[f81db3ec5346a5ba3eb4b5ea54b1a916]
class Frog--><g id="elem_Frog"><rect codeLine="140" fill="#F1F1F1" height="67.0679" id="Frog" rx="2.5" ry="2.5" style="stroke:#181818;stroke-width:0.5;" width="192" x="234" y="134"/><ellipse cx="310.75" cy="150" fill="#ADD1B2" rx="11" ry="11" style="stroke:#181818;stroke-width:1.0;"/><path d="M310.2188,156.9219 Q308.4688,156.9219 307.3281,156.1875 Q306.2031,155.4375 305.6406,154.0938 Q305.0938,152.7344 305.0938,150.9375 Q305.0938,148.9063 305.75,147.4531 Q306.4063,146 307.6875,145.2188 Q308.9688,144.4375 310.8438,144.4375 Q311.7344,144.4375 312.4063,144.625 Q313.0781,144.7969 313.7656,145.1406 L312.9531,147.1563 Q312.3281,146.8438 311.7813,146.7188 Q311.25,146.5938 310.7656,146.5938 Q309.5938,146.5938 308.8906,147.125 Q308.1875,147.6563 307.8906,148.6094 Q307.5938,149.5625 307.5938,150.8281 Q307.5938,152.8438 308.3125,153.8125 Q309.0313,154.7656 310.625,154.7656 Q311.2188,154.7656 311.8438,154.6094 Q312.4688,154.4531 313.2969,154.0781 L313.2969,156.2969 Q312.5625,156.6094 311.7656,156.7656 Q310.9844,156.9219 310.2188,156.9219 Z " fill="#000000"/><text fill="#000000" font-family="sans-serif" font-size="14" lengthAdjust="spacing" textLength="30" x="331.25" y="155.432">Frog</text><line style="stroke:#181818;stroke-width:0.5;" x1="235" x2="425" y1="166" y2="166"/><line style="stroke:#181818;stroke-width:0.5;" x1="235" x2="425" y1="174" y2="174"/><text fill="#000000" font-family="sans-serif" font-size="14" lengthAdjust="spacing" textLength="180" x="240" y="192.9659">+void move()  // overridden</text></g><!--MD5=[90f66edba3ee2ef2943b92b287a7e5d6]
class Bird--><g id="elem_Bird"><rect codeLine="143" fill="#F1F1F1" height="67.0679" id="Bird" rx="2.5" ry="2.5" style="stroke:#181818;stroke-width:0.5;" width="192" x="461" y="134"/><ellipse cx="538.75" cy="150" fill="#ADD1B2" rx="11" ry="11" style="stroke:#181818;stroke-width:1.0;"/><path d="M538.2188,156.9219 Q536.4688,156.9219 535.3281,156.1875 Q534.2031,155.4375 533.6406,154.0938 Q533.0938,152.7344 533.0938,150.9375 Q533.0938,148.9063 533.75,147.4531 Q534.4063,146 535.6875,145.2188 Q536.9688,144.4375 538.8438,144.4375 Q539.7344,144.4375 540.4063,144.625 Q541.0781,144.7969 541.7656,145.1406 L540.9531,147.1563 Q540.3281,146.8438 539.7813,146.7188 Q539.25,146.5938 538.7656,146.5938 Q537.5938,146.5938 536.8906,147.125 Q536.1875,147.6563 535.8906,148.6094 Q535.5938,149.5625 535.5938,150.8281 Q535.5938,152.8438 536.3125,153.8125 Q537.0313,154.7656 538.625,154.7656 Q539.2188,154.7656 539.8438,154.6094 Q540.4688,154.4531 541.2969,154.0781 L541.2969,156.2969 Q540.5625,156.6094 539.7656,156.7656 Q538.9844,156.9219 538.2188,156.9219 Z " fill="#000000"/><text fill="#000000" font-family="sans-serif" font-size="14" lengthAdjust="spacing" textLength="28" x="559.25" y="155.432">Bird</text><line style="stroke:#181818;stroke-width:0.5;" x1="462" x2="652" y1="166" y2="166"/><line style="stroke:#181818;stroke-width:0.5;" x1="462" x2="652" y1="174" y2="174"/><text fill="#000000" font-family="sans-serif" font-size="14" lengthAdjust="spacing" textLength="180" x="467" y="192.9659">+void move()  // overridden</text></g><!--MD5=[148c53dede49fe4472cc2dd7d4afcf03]
reverse link Animal to Fish--><g id="link_Animal_Fish"><path codeLine="147" d="M264.23,77.72 C232.07,95.43 193.65,116.58 162.38,133.8 " fill="none" id="Animal-backto-Fish" style="stroke:#181818;stroke-width:1.0;"/><polygon fill="none" points="260.96,71.52,281.86,68.01,267.72,83.79,260.96,71.52" style="stroke:#181818;stroke-width:1.0;"/></g><!--MD5=[33a5d9c44f6326da31329df29c5d9c88]
reverse link Animal to Frog--><g id="link_Animal_Frog"><path codeLine="148" d="M330,94.2 C330,107.61 330,121.63 330,133.71 " fill="none" id="Animal-backto-Frog" style="stroke:#181818;stroke-width:1.0;"/><polygon fill="none" points="323,94.02,330,74.02,337,94.02,323,94.02" style="stroke:#181818;stroke-width:1.0;"/></g><!--MD5=[a84a51317509fe0330c0e17948498a29]
reverse link Animal to Bird--><g id="link_Animal_Bird"><path codeLine="149" d="M395.77,77.72 C427.93,95.43 466.35,116.58 497.62,133.8 " fill="none" id="Animal-backto-Bird" style="stroke:#181818;stroke-width:1.0;"/><polygon fill="none" points="392.28,83.79,378.14,68.01,399.04,71.52,392.28,83.79" style="stroke:#181818;stroke-width:1.0;"/></g><!--MD5=[d3e189fa6fdffd14c3b84b4f674e3392]
@startuml 10-class-diagram-2
skinparam classAttributeIconSize 0
class Animal {
	+ void move()
}
class Fish {
	+ void move()  // overridden
}
class Frog {
	+ void move()  // overridden
}
class Bird {
	+ void move()  // overridden
}

Fish -u-|> Animal
Frog -u-|> Animal
Bird -u-|> Animal
@enduml

PlantUML version 1.2022.6(Wed Jun 22 02:34:49 KST 2022)
(GPL source distribution)
Java Runtime: OpenJDK Runtime Environment
JVM: OpenJDK 64-Bit Server VM
Default Encoding: UTF-8
Language: en
Country: US
--></g></svg>