<?xml version="1.0" encoding="UTF-8" standalone="no"?><svg xmlns="http://www.w3.org/2000/svg" xmlns:xlink="http://www.w3.org/1999/xlink" contentStyleType="text/css" height="392px" preserveAspectRatio="none" style="width:556px;height:392px;background:#FFFFFF;" version="1.1" viewBox="0 0 556 392" width="556px" zoomAndPan="magnify"><defs/><g><!--MD5=[7421f545a0d8420c5bec41e74b387d9c]
class Employee--><g id="elem_Employee"><rect codeLine="370" fill="#F1F1F1" height="86.1358" id="Employee" rx="2.5" ry="2.5" style="stroke:#181818;stroke-width:0.5;" width="130" x="219" y="7"/><ellipse cx="251.1" cy="23" fill="#A9DCDF" rx="11" ry="11" style="stroke:#181818;stroke-width:1.0;"/><path d="M246.2719,28.75 L249.6156,16.5625 L252.7563,16.5625 L256.1313,28.75 L253.6625,28.75 L252.9281,25.7344 L249.4125,25.7344 L248.6625,28.75 L246.2719,28.75 Z M250.6781,20.7031 L249.9281,23.7031 L252.4438,23.7031 L251.725,20.7031 Q251.5844,20.125 251.4594,19.5781 Q251.3344,19.0156 251.1938,18.4375 Q251.0844,19.0156 250.9438,19.5781 Q250.8031,20.125 250.6781,20.7031 Z " fill="#000000"/><text fill="#000000" font-family="sans-serif" font-size="14" font-style="italic" lengthAdjust="spacing" textLength="60" x="268.9" y="28.432">Employee</text><line style="stroke:#181818;stroke-width:0.5;" x1="220" x2="348" y1="39" y2="39"/><line style="stroke:#181818;stroke-width:0.5;" x1="220" x2="348" y1="47" y2="47"/><text fill="#000000" font-family="sans-serif" font-size="14" font-style="italic" lengthAdjust="spacing" textLength="118" x="225" y="65.9659">+double earnings()</text><text fill="#000000" font-family="sans-serif" font-size="14" lengthAdjust="spacing" textLength="115" x="225" y="85.0339">+String toString()</text></g><!--MD5=[1f570ed761f4e3402fcd142935c16e01]
class SalariedEmployee--><g id="elem_SalariedEmployee"><rect codeLine="374" fill="#F1F1F1" height="86.1358" id="SalariedEmployee" rx="2.5" ry="2.5" style="stroke:#181818;stroke-width:0.5;" width="152" x="7" y="153"/><ellipse cx="22" cy="169" fill="#ADD1B2" rx="11" ry="11" style="stroke:#181818;stroke-width:1.0;"/><path d="M21.4688,175.9219 Q19.7188,175.9219 18.5781,175.1875 Q17.4531,174.4375 16.8906,173.0938 Q16.3438,171.7344 16.3438,169.9375 Q16.3438,167.9063 17,166.4531 Q17.6563,165 18.9375,164.2188 Q20.2188,163.4375 22.0938,163.4375 Q22.9844,163.4375 23.6563,163.625 Q24.3281,163.7969 25.0156,164.1406 L24.2031,166.1563 Q23.5781,165.8438 23.0313,165.7188 Q22.5,165.5938 22.0156,165.5938 Q20.8438,165.5938 20.1406,166.125 Q19.4375,166.6563 19.1406,167.6094 Q18.8438,168.5625 18.8438,169.8281 Q18.8438,171.8438 19.5625,172.8125 Q20.2813,173.7656 21.875,173.7656 Q22.4688,173.7656 23.0938,173.6094 Q23.7188,173.4531 24.5469,173.0781 L24.5469,175.2969 Q23.8125,175.6094 23.0156,175.7656 Q22.2344,175.9219 21.4688,175.9219 Z " fill="#000000"/><text fill="#000000" font-family="sans-serif" font-size="14" lengthAdjust="spacing" textLength="120" x="36" y="174.432">SalariedEmployee</text><line style="stroke:#181818;stroke-width:0.5;" x1="8" x2="158" y1="185" y2="185"/><line style="stroke:#181818;stroke-width:0.5;" x1="8" x2="158" y1="193" y2="193"/><text fill="#000000" font-family="sans-serif" font-size="14" lengthAdjust="spacing" textLength="127" x="13" y="211.9659">+double earnings()</text><text fill="#000000" font-family="sans-serif" font-size="14" lengthAdjust="spacing" textLength="115" x="13" y="231.0339">+String toString()</text></g><!--MD5=[3756e011bab916eeadcee8ce3db1a22e]
class CommissionEmployee--><g id="elem_CommissionEmployee"><rect codeLine="378" fill="#F1F1F1" height="86.1358" id="CommissionEmployee" rx="2.5" ry="2.5" style="stroke:#181818;stroke-width:0.5;" width="179" x="194.5" y="153"/><ellipse cx="209.5" cy="169" fill="#ADD1B2" rx="11" ry="11" style="stroke:#181818;stroke-width:1.0;"/><path d="M208.9688,175.9219 Q207.2188,175.9219 206.0781,175.1875 Q204.9531,174.4375 204.3906,173.0938 Q203.8438,171.7344 203.8438,169.9375 Q203.8438,167.9063 204.5,166.4531 Q205.1563,165 206.4375,164.2188 Q207.7188,163.4375 209.5938,163.4375 Q210.4844,163.4375 211.1563,163.625 Q211.8281,163.7969 212.5156,164.1406 L211.7031,166.1563 Q211.0781,165.8438 210.5313,165.7188 Q210,165.5938 209.5156,165.5938 Q208.3438,165.5938 207.6406,166.125 Q206.9375,166.6563 206.6406,167.6094 Q206.3438,168.5625 206.3438,169.8281 Q206.3438,171.8438 207.0625,172.8125 Q207.7813,173.7656 209.375,173.7656 Q209.9688,173.7656 210.5938,173.6094 Q211.2188,173.4531 212.0469,173.0781 L212.0469,175.2969 Q211.3125,175.6094 210.5156,175.7656 Q209.7344,175.9219 208.9688,175.9219 Z " fill="#000000"/><text fill="#000000" font-family="sans-serif" font-size="14" lengthAdjust="spacing" textLength="147" x="223.5" y="174.432">CommissionEmployee</text><line style="stroke:#181818;stroke-width:0.5;" x1="195.5" x2="372.5" y1="185" y2="185"/><line style="stroke:#181818;stroke-width:0.5;" x1="195.5" x2="372.5" y1="193" y2="193"/><text fill="#000000" font-family="sans-serif" font-size="14" lengthAdjust="spacing" textLength="127" x="200.5" y="211.9659">+double earnings()</text><text fill="#000000" font-family="sans-serif" font-size="14" lengthAdjust="spacing" textLength="115" x="200.5" y="231.0339">+String toString()</text></g><!--MD5=[dae0ed1c900060366ffd53b87280382a]
class HourlyEmployee--><g id="elem_HourlyEmployee"><rect codeLine="382" fill="#F1F1F1" height="86.1358" id="HourlyEmployee" rx="2.5" ry="2.5" style="stroke:#181818;stroke-width:0.5;" width="141" x="408.5" y="153"/><ellipse cx="423.5" cy="169" fill="#ADD1B2" rx="11" ry="11" style="stroke:#181818;stroke-width:1.0;"/><path d="M422.9688,175.9219 Q421.2188,175.9219 420.0781,175.1875 Q418.9531,174.4375 418.3906,173.0938 Q417.8438,171.7344 417.8438,169.9375 Q417.8438,167.9063 418.5,166.4531 Q419.1563,165 420.4375,164.2188 Q421.7188,163.4375 423.5938,163.4375 Q424.4844,163.4375 425.1563,163.625 Q425.8281,163.7969 426.5156,164.1406 L425.7031,166.1563 Q425.0781,165.8438 424.5313,165.7188 Q424,165.5938 423.5156,165.5938 Q422.3438,165.5938 421.6406,166.125 Q420.9375,166.6563 420.6406,167.6094 Q420.3438,168.5625 420.3438,169.8281 Q420.3438,171.8438 421.0625,172.8125 Q421.7813,173.7656 423.375,173.7656 Q423.9688,173.7656 424.5938,173.6094 Q425.2188,173.4531 426.0469,173.0781 L426.0469,175.2969 Q425.3125,175.6094 424.5156,175.7656 Q423.7344,175.9219 422.9688,175.9219 Z " fill="#000000"/><text fill="#000000" font-family="sans-serif" font-size="14" lengthAdjust="spacing" textLength="109" x="437.5" y="174.432">HourlyEmployee</text><line style="stroke:#181818;stroke-width:0.5;" x1="409.5" x2="548.5" y1="185" y2="185"/><line style="stroke:#181818;stroke-width:0.5;" x1="409.5" x2="548.5" y1="193" y2="193"/><text fill="#000000" font-family="sans-serif" font-size="14" lengthAdjust="spacing" textLength="127" x="414.5" y="211.9659">+double earnings()</text><text fill="#000000" font-family="sans-serif" font-size="14" lengthAdjust="spacing" textLength="115" x="414.5" y="231.0339">+String toString()</text></g><!--MD5=[5798aced8547ac8cbf94d58165a7a7eb]
class BasePlusCommissionEmployee--><g id="elem_BasePlusCommissionEmployee"><rect codeLine="386" fill="#F1F1F1" height="86.1358" id="BasePlusCommissionEmployee" rx="2.5" ry="2.5" style="stroke:#181818;stroke-width:0.5;" width="239" x="164.5" y="299"/><ellipse cx="179.5" cy="315" fill="#ADD1B2" rx="11" ry="11" style="stroke:#181818;stroke-width:1.0;"/><path d="M178.9688,321.9219 Q177.2188,321.9219 176.0781,321.1875 Q174.9531,320.4375 174.3906,319.0938 Q173.8438,317.7344 173.8438,315.9375 Q173.8438,313.9063 174.5,312.4531 Q175.1563,311 176.4375,310.2188 Q177.7188,309.4375 179.5938,309.4375 Q180.4844,309.4375 181.1563,309.625 Q181.8281,309.7969 182.5156,310.1406 L181.7031,312.1563 Q181.0781,311.8438 180.5313,311.7188 Q180,311.5938 179.5156,311.5938 Q178.3438,311.5938 177.6406,312.125 Q176.9375,312.6563 176.6406,313.6094 Q176.3438,314.5625 176.3438,315.8281 Q176.3438,317.8438 177.0625,318.8125 Q177.7813,319.7656 179.375,319.7656 Q179.9688,319.7656 180.5938,319.6094 Q181.2188,319.4531 182.0469,319.0781 L182.0469,321.2969 Q181.3125,321.6094 180.5156,321.7656 Q179.7344,321.9219 178.9688,321.9219 Z " fill="#000000"/><text fill="#000000" font-family="sans-serif" font-size="14" lengthAdjust="spacing" textLength="207" x="193.5" y="320.432">BasePlusCommissionEmployee</text><line style="stroke:#181818;stroke-width:0.5;" x1="165.5" x2="402.5" y1="331" y2="331"/><line style="stroke:#181818;stroke-width:0.5;" x1="165.5" x2="402.5" y1="339" y2="339"/><text fill="#000000" font-family="sans-serif" font-size="14" lengthAdjust="spacing" textLength="127" x="170.5" y="357.9659">+double earnings()</text><text fill="#000000" font-family="sans-serif" font-size="14" lengthAdjust="spacing" textLength="115" x="170.5" y="377.0339">+String toString()</text></g><!--MD5=[14f1b6234bf78c2a4d17b2496aa205af]
reverse link Employee to SalariedEmployee--><g id="link_Employee_SalariedEmployee"><path codeLine="390" d="M208.8,104.88 C186.63,120.75 162.72,137.89 141.75,152.91 " fill="none" id="Employee-backto-SalariedEmployee" style="stroke:#181818;stroke-width:1.0;"/><polygon fill="none" points="204.99,99,225.32,93.04,213.14,110.38,204.99,99" style="stroke:#181818;stroke-width:1.0;"/></g><!--MD5=[a1000640d989e5630bbc73d78cff7413]
reverse link Employee to CommissionEmployee--><g id="link_Employee_CommissionEmployee"><path codeLine="391" d="M284,113.29 C284,126.58 284,140.33 284,152.66 " fill="none" id="Employee-backto-CommissionEmployee" style="stroke:#181818;stroke-width:1.0;"/><polygon fill="none" points="277,113.04,284,93.04,291,113.04,277,113.04" style="stroke:#181818;stroke-width:1.0;"/></g><!--MD5=[48baa9e3bcbc894daa451df939935f55]
reverse link Employee to HourlyEmployee--><g id="link_Employee_HourlyEmployee"><path codeLine="392" d="M357.28,105.11 C378.69,120.92 401.76,137.96 422,152.91 " fill="none" id="Employee-backto-HourlyEmployee" style="stroke:#181818;stroke-width:1.0;"/><polygon fill="none" points="352.86,110.55,340.93,93.04,361.17,99.29,352.86,110.55" style="stroke:#181818;stroke-width:1.0;"/></g><!--MD5=[f52955450710b3c76fa204ec870f0bb0]
reverse link CommissionEmployee to BasePlusCommissionEmployee--><g id="link_CommissionEmployee_BasePlusCommissionEmployee"><path codeLine="393" d="M284,259.29 C284,272.58 284,286.33 284,298.66 " fill="none" id="CommissionEmployee-backto-BasePlusCommissionEmployee" style="stroke:#181818;stroke-width:1.0;"/><polygon fill="none" points="277,259.04,284,239.04,291,259.04,277,259.04" style="stroke:#181818;stroke-width:1.0;"/></g><!--MD5=[6bc50cd102d4c8d96a5bf5b73bd3c869]
link SalariedEmployee to CommissionEmployee--><!--MD5=[eba4ad0ee6c24ce7edf315eaef286c8f]
@startuml 10-employee-hierarchy
skinparam classAttributeIconSize 0
abstract Employee {
 + {abstract} double earnings()
 + String toString()
}
class SalariedEmployee {
 + double earnings()
 + String toString()
}
class CommissionEmployee {
 + double earnings()
 + String toString()
}
class HourlyEmployee {
 + double earnings()
 + String toString()
}
class BasePlusCommissionEmployee {
 + double earnings()
 + String toString()
}
SalariedEmployee -u-|> Employee
CommissionEmployee -u-|> Employee
HourlyEmployee -u-|> Employee
BasePlusCommissionEmployee -u-|> CommissionEmployee
SalariedEmployee -[hidden]> CommissionEmployee
@enduml

PlantUML version 1.2022.6(Wed Jun 22 02:34:49 KST 2022)
(GPL source distribution)
Java Runtime: OpenJDK Runtime Environment
JVM: OpenJDK 64-Bit Server VM
Default Encoding: UTF-8
Language: en
Country: US
--></g></svg>