<?xml version="1.0" encoding="UTF-8" standalone="no"?><svg xmlns="http://www.w3.org/2000/svg" xmlns:xlink="http://www.w3.org/1999/xlink" contentStyleType="text/css" height="208px" preserveAspectRatio="none" style="width:372px;height:208px;background:#FFFFFF;" version="1.1" viewBox="0 0 372 208" width="372px" zoomAndPan="magnify"><defs/><g><!--MD5=[7fd4401f5c5cb0e3d029c879cad30c04]
class Animal--><g id="elem_Animal"><rect codeLine="1860" fill="#F1F1F1" height="67.0679" id="Animal" rx="2.5" ry="2.5" style="stroke:#181818;stroke-width:0.5;" width="96" x="138" y="7"/><ellipse cx="160.65" cy="23" fill="#ADD1B2" rx="11" ry="11" style="stroke:#181818;stroke-width:1.0;"/><path d="M160.1188,29.9219 Q158.3688,29.9219 157.2281,29.1875 Q156.1031,28.4375 155.5406,27.0938 Q154.9938,25.7344 154.9938,23.9375 Q154.9938,21.9063 155.65,20.4531 Q156.3063,19 157.5875,18.2188 Q158.8688,17.4375 160.7438,17.4375 Q161.6344,17.4375 162.3063,17.625 Q162.9781,17.7969 163.6656,18.1406 L162.8531,20.1563 Q162.2281,19.8438 161.6813,19.7188 Q161.15,19.5938 160.6656,19.5938 Q159.4938,19.5938 158.7906,20.125 Q158.0875,20.6563 157.7906,21.6094 Q157.4938,22.5625 157.4938,23.8281 Q157.4938,25.8438 158.2125,26.8125 Q158.9313,27.7656 160.525,27.7656 Q161.1188,27.7656 161.7438,27.6094 Q162.3688,27.4531 163.1969,27.0781 L163.1969,29.2969 Q162.4625,29.6094 161.6656,29.7656 Q160.8844,29.9219 160.1188,29.9219 Z " fill="#000000"/><text fill="#000000" font-family="sans-serif" font-size="14" lengthAdjust="spacing" textLength="47" x="176.35" y="28.432">Animal</text><line style="stroke:#181818;stroke-width:0.5;" x1="139" x2="233" y1="39" y2="39"/><line style="stroke:#181818;stroke-width:0.5;" x1="139" x2="233" y1="47" y2="47"/><text fill="#000000" font-family="sans-serif" font-size="14" lengthAdjust="spacing" textLength="84" x="144" y="65.9659">+void move()</text></g><!--MD5=[0ba60c1c7eece7977c024cb94d0d3fa3]
class Fish--><g id="elem_Fish"><rect codeLine="1873" fill="#F1F1F1" height="67.0679" id="Fish" rx="2.5" ry="2.5" style="stroke:#181818;stroke-width:0.5;" width="96" x="7" y="134"/><ellipse cx="38.65" cy="150" fill="#ADD1B2" rx="11" ry="11" style="stroke:#181818;stroke-width:1.0;"/><path d="M38.1188,156.9219 Q36.3688,156.9219 35.2281,156.1875 Q34.1031,155.4375 33.5406,154.0938 Q32.9938,152.7344 32.9938,150.9375 Q32.9938,148.9063 33.65,147.4531 Q34.3063,146 35.5875,145.2188 Q36.8688,144.4375 38.7438,144.4375 Q39.6344,144.4375 40.3063,144.625 Q40.9781,144.7969 41.6656,145.1406 L40.8531,147.1563 Q40.2281,146.8438 39.6813,146.7188 Q39.15,146.5938 38.6656,146.5938 Q37.4938,146.5938 36.7906,147.125 Q36.0875,147.6563 35.7906,148.6094 Q35.4938,149.5625 35.4938,150.8281 Q35.4938,152.8438 36.2125,153.8125 Q36.9313,154.7656 38.525,154.7656 Q39.1188,154.7656 39.7438,154.6094 Q40.3688,154.4531 41.1969,154.0781 L41.1969,156.2969 Q40.4625,156.6094 39.6656,156.7656 Q38.8844,156.9219 38.1188,156.9219 Z " fill="#000000"/><text fill="#000000" font-family="sans-serif" font-size="14" lengthAdjust="spacing" textLength="27" x="56.35" y="155.432">Fish</text><line style="stroke:#181818;stroke-width:0.5;" x1="8" x2="102" y1="166" y2="166"/><line style="stroke:#181818;stroke-width:0.5;" x1="8" x2="102" y1="174" y2="174"/><text fill="#000000" font-family="sans-serif" font-size="14" lengthAdjust="spacing" textLength="84" x="13" y="192.9659">+void move()</text></g><!--MD5=[f81db3ec5346a5ba3eb4b5ea54b1a916]
class Frog--><g id="elem_Frog"><rect codeLine="1874" fill="#F1F1F1" height="67.0679" id="Frog" rx="2.5" ry="2.5" style="stroke:#181818;stroke-width:0.5;" width="96" x="138" y="134"/><ellipse cx="168.3" cy="150" fill="#ADD1B2" rx="11" ry="11" style="stroke:#181818;stroke-width:1.0;"/><path d="M167.7688,156.9219 Q166.0188,156.9219 164.8781,156.1875 Q163.7531,155.4375 163.1906,154.0938 Q162.6438,152.7344 162.6438,150.9375 Q162.6438,148.9063 163.3,147.4531 Q163.9563,146 165.2375,145.2188 Q166.5188,144.4375 168.3938,144.4375 Q169.2844,144.4375 169.9563,144.625 Q170.6281,144.7969 171.3156,145.1406 L170.5031,147.1563 Q169.8781,146.8438 169.3313,146.7188 Q168.8,146.5938 168.3156,146.5938 Q167.1438,146.5938 166.4406,147.125 Q165.7375,147.6563 165.4406,148.6094 Q165.1438,149.5625 165.1438,150.8281 Q165.1438,152.8438 165.8625,153.8125 Q166.5813,154.7656 168.175,154.7656 Q168.7688,154.7656 169.3938,154.6094 Q170.0188,154.4531 170.8469,154.0781 L170.8469,156.2969 Q170.1125,156.6094 169.3156,156.7656 Q168.5344,156.9219 167.7688,156.9219 Z " fill="#000000"/><text fill="#000000" font-family="sans-serif" font-size="14" lengthAdjust="spacing" textLength="30" x="185.7" y="155.432">Frog</text><line style="stroke:#181818;stroke-width:0.5;" x1="139" x2="233" y1="166" y2="166"/><line style="stroke:#181818;stroke-width:0.5;" x1="139" x2="233" y1="174" y2="174"/><text fill="#000000" font-family="sans-serif" font-size="14" lengthAdjust="spacing" textLength="84" x="144" y="192.9659">+void move()</text></g><!--MD5=[90f66edba3ee2ef2943b92b287a7e5d6]
class Bird--><g id="elem_Bird"><rect codeLine="1875" fill="#F1F1F1" height="67.0679" id="Bird" rx="2.5" ry="2.5" style="stroke:#181818;stroke-width:0.5;" width="96" x="269" y="134"/><ellipse cx="300.2" cy="150" fill="#ADD1B2" rx="11" ry="11" style="stroke:#181818;stroke-width:1.0;"/><path d="M299.6688,156.9219 Q297.9188,156.9219 296.7781,156.1875 Q295.6531,155.4375 295.0906,154.0938 Q294.5438,152.7344 294.5438,150.9375 Q294.5438,148.9063 295.2,147.4531 Q295.8563,146 297.1375,145.2188 Q298.4188,144.4375 300.2938,144.4375 Q301.1844,144.4375 301.8563,144.625 Q302.5281,144.7969 303.2156,145.1406 L302.4031,147.1563 Q301.7781,146.8438 301.2313,146.7188 Q300.7,146.5938 300.2156,146.5938 Q299.0438,146.5938 298.3406,147.125 Q297.6375,147.6563 297.3406,148.6094 Q297.0438,149.5625 297.0438,150.8281 Q297.0438,152.8438 297.7625,153.8125 Q298.4813,154.7656 300.075,154.7656 Q300.6688,154.7656 301.2938,154.6094 Q301.9188,154.4531 302.7469,154.0781 L302.7469,156.2969 Q302.0125,156.6094 301.2156,156.7656 Q300.4344,156.9219 299.6688,156.9219 Z " fill="#000000"/><text fill="#000000" font-family="sans-serif" font-size="14" lengthAdjust="spacing" textLength="28" x="317.8" y="155.432">Bird</text><line style="stroke:#181818;stroke-width:0.5;" x1="270" x2="364" y1="166" y2="166"/><line style="stroke:#181818;stroke-width:0.5;" x1="270" x2="364" y1="174" y2="174"/><text fill="#000000" font-family="sans-serif" font-size="14" lengthAdjust="spacing" textLength="84" x="275" y="192.9659">+void move()</text></g><!--MD5=[148c53dede49fe4472cc2dd7d4afcf03]
reverse link Animal to Fish--><g id="link_Animal_Fish"><path d="M137.23,88.03 C121.32,103.22 103.99,119.76 89.36,133.71 " fill="none" id="Animal-backto-Fish" style="stroke:#181818;stroke-width:1.0;"/><polygon fill="none" points="132.62,82.76,151.92,74.02,142.29,92.89,132.62,82.76" style="stroke:#181818;stroke-width:1.0;"/></g><!--MD5=[33a5d9c44f6326da31329df29c5d9c88]
reverse link Animal to Frog--><g id="link_Animal_Frog"><path d="M186,94.2 C186,107.61 186,121.63 186,133.71 " fill="none" id="Animal-backto-Frog" style="stroke:#181818;stroke-width:1.0;"/><polygon fill="none" points="179,94.02,186,74.02,193,94.02,179,94.02" style="stroke:#181818;stroke-width:1.0;"/></g><!--MD5=[a84a51317509fe0330c0e17948498a29]
reverse link Animal to Bird--><g id="link_Animal_Bird"><path d="M234.77,88.03 C250.68,103.22 268.01,119.76 282.64,133.71 " fill="none" id="Animal-backto-Bird" style="stroke:#181818;stroke-width:1.0;"/><polygon fill="none" points="229.71,92.89,220.08,74.02,239.38,82.76,229.71,92.89" style="stroke:#181818;stroke-width:1.0;"/></g><!--MD5=[da22acf95949f1f4f45170c42a3426db]
@startuml 10-polymorphism9
skinparam classAttributeIconSize 0
class Animal {
	+ void move()
}
class Fish {
	+ void move()
}
class Frog {
	+ void move()
}
class Bird {
	+ void move()
}

class Fish extends Animal
class Frog extends Animal
class Bird extends Animal
@enduml

PlantUML version 1.2022.6(Wed Jun 22 02:34:49 KST 2022)
(GPL source distribution)
Java Runtime: OpenJDK Runtime Environment
JVM: OpenJDK 64-Bit Server VM
Default Encoding: UTF-8
Language: en
Country: US
--></g></svg>