<?xml version="1.0" encoding="UTF-8" standalone="no"?><svg xmlns="http://www.w3.org/2000/svg" xmlns:xlink="http://www.w3.org/1999/xlink" contentStyleType="text/css" height="227px" preserveAspectRatio="none" style="width:110px;height:227px;background:#FFFFFF;" version="1.1" viewBox="0 0 110 227" width="110px" zoomAndPan="magnify"><defs/><g><!--MD5=[7fd4401f5c5cb0e3d029c879cad30c04]
class Animal--><g id="elem_Animal"><rect codeLine="1391" fill="#F1F1F1" height="86.1358" id="Animal" rx="2.5" ry="2.5" style="stroke:#181818;stroke-width:0.5;" width="96" x="7" y="7"/><ellipse cx="29.65" cy="23" fill="#ADD1B2" rx="11" ry="11" style="stroke:#181818;stroke-width:1.0;"/><path d="M29.1188,29.9219 Q27.3688,29.9219 26.2281,29.1875 Q25.1031,28.4375 24.5406,27.0938 Q23.9938,25.7344 23.9938,23.9375 Q23.9938,21.9063 24.65,20.4531 Q25.3063,19 26.5875,18.2188 Q27.8688,17.4375 29.7438,17.4375 Q30.6344,17.4375 31.3063,17.625 Q31.9781,17.7969 32.6656,18.1406 L31.8531,20.1563 Q31.2281,19.8438 30.6813,19.7188 Q30.15,19.5938 29.6656,19.5938 Q28.4938,19.5938 27.7906,20.125 Q27.0875,20.6563 26.7906,21.6094 Q26.4938,22.5625 26.4938,23.8281 Q26.4938,25.8438 27.2125,26.8125 Q27.9313,27.7656 29.525,27.7656 Q30.1188,27.7656 30.7438,27.6094 Q31.3688,27.4531 32.1969,27.0781 L32.1969,29.2969 Q31.4625,29.6094 30.6656,29.7656 Q29.8844,29.9219 29.1188,29.9219 Z " fill="#000000"/><text fill="#000000" font-family="sans-serif" font-size="14" lengthAdjust="spacing" textLength="47" x="45.35" y="28.432">Animal</text><line style="stroke:#181818;stroke-width:0.5;" x1="8" x2="102" y1="39" y2="39"/><line style="stroke:#181818;stroke-width:0.5;" x1="8" x2="102" y1="47" y2="47"/><text fill="#000000" font-family="sans-serif" font-size="14" lengthAdjust="spacing" textLength="83" x="13" y="65.9659">+void show()</text><text fill="#000000" font-family="sans-serif" font-size="14" lengthAdjust="spacing" textLength="84" x="13" y="85.0339">+void move()</text></g><!--MD5=[0ba60c1c7eece7977c024cb94d0d3fa3]
class Fish--><g id="elem_Fish"><rect codeLine="1398" fill="#F1F1F1" height="67.0679" id="Fish" rx="2.5" ry="2.5" style="stroke:#181818;stroke-width:0.5;" width="94" x="8" y="153"/><ellipse cx="38.75" cy="169" fill="#ADD1B2" rx="11" ry="11" style="stroke:#181818;stroke-width:1.0;"/><path d="M38.2188,175.9219 Q36.4688,175.9219 35.3281,175.1875 Q34.2031,174.4375 33.6406,173.0938 Q33.0938,171.7344 33.0938,169.9375 Q33.0938,167.9063 33.75,166.4531 Q34.4063,165 35.6875,164.2188 Q36.9688,163.4375 38.8438,163.4375 Q39.7344,163.4375 40.4063,163.625 Q41.0781,163.7969 41.7656,164.1406 L40.9531,166.1563 Q40.3281,165.8438 39.7813,165.7188 Q39.25,165.5938 38.7656,165.5938 Q37.5938,165.5938 36.8906,166.125 Q36.1875,166.6563 35.8906,167.6094 Q35.5938,168.5625 35.5938,169.8281 Q35.5938,171.8438 36.3125,172.8125 Q37.0313,173.7656 38.625,173.7656 Q39.2188,173.7656 39.8438,173.6094 Q40.4688,173.4531 41.2969,173.0781 L41.2969,175.2969 Q40.5625,175.6094 39.7656,175.7656 Q38.9844,175.9219 38.2188,175.9219 Z " fill="#000000"/><text fill="#000000" font-family="sans-serif" font-size="14" lengthAdjust="spacing" textLength="27" x="56.25" y="174.432">Fish</text><line style="stroke:#181818;stroke-width:0.5;" x1="9" x2="101" y1="185" y2="185"/><line style="stroke:#181818;stroke-width:0.5;" x1="9" x2="101" y1="193" y2="193"/><text fill="#000000" font-family="sans-serif" font-size="14" lengthAdjust="spacing" textLength="82" x="14" y="211.9659">+void draw()</text></g><!--MD5=[148c53dede49fe4472cc2dd7d4afcf03]
reverse link Animal to Fish--><g id="link_Animal_Fish"><path d="M55,113.39 C55,127.03 55,140.94 55,152.85 " fill="none" id="Animal-backto-Fish" style="stroke:#181818;stroke-width:1.0;"/><polygon fill="none" points="48,113.19,55,93.19,62,113.19,48,113.19" style="stroke:#181818;stroke-width:1.0;"/></g><!--MD5=[93cf88643ab646dbe12d5a38a600c2af]
@startuml 10-polymorphism1
skinparam classAttributeIconSize 0
class Animal {
	+ void show()
	+ void move()
}
class Fish {
	+ void draw()
}
class Fish extends Animal
@enduml

PlantUML version 1.2022.6(Wed Jun 22 02:34:49 KST 2022)
(GPL source distribution)
Java Runtime: OpenJDK Runtime Environment
JVM: OpenJDK 64-Bit Server VM
Default Encoding: UTF-8
Language: en
Country: US
--></g></svg>