<?xml version="1.0" encoding="UTF-8" standalone="no"?><svg xmlns="http://www.w3.org/2000/svg" xmlns:xlink="http://www.w3.org/1999/xlink" contentStyleType="text/css" height="278px" preserveAspectRatio="none" style="width:251px;height:278px;background:#FFFFFF;" version="1.1" viewBox="0 0 251 278" width="251px" zoomAndPan="magnify"><defs/><g><!--MD5=[690bdd5a5fcc261aa2ec0857313066c2]
class Payable--><g id="elem_Payable"><rect codeLine="982" fill="#F1F1F1" height="48" id="Payable" rx="2.5" ry="2.5" style="stroke:#181818;stroke-width:0.5;" width="82" x="66" y="7"/><ellipse cx="81" cy="23" fill="#B4A7E5" rx="11" ry="11" style="stroke:#181818;stroke-width:1.0;"/><path d="M77.0313,29.5 L77.0313,27.7969 L79.3906,27.5313 L79.3906,19.3281 L77.0313,19.0625 L77.0313,17.3594 L84.1719,17.3594 L84.1719,19.0625 L81.75,19.3281 L81.75,27.5313 L84.1719,27.7969 L84.1719,29.5 L77.0313,29.5 Z " fill="#000000"/><text fill="#000000" font-family="sans-serif" font-size="14" font-style="italic" lengthAdjust="spacing" textLength="50" x="95" y="28.432">Payable</text><line style="stroke:#181818;stroke-width:0.5;" x1="67" x2="147" y1="39" y2="39"/><line style="stroke:#181818;stroke-width:0.5;" x1="67" x2="147" y1="47" y2="47"/></g><!--MD5=[894442645724153f40a9f7a43026dbfc]
class Invoice--><g id="elem_Invoice"><rect codeLine="983" fill="#F1F1F1" height="48" id="Invoice" rx="2.5" ry="2.5" style="stroke:#181818;stroke-width:0.5;" width="80" x="7" y="115"/><ellipse cx="22" cy="131" fill="#ADD1B2" rx="11" ry="11" style="stroke:#181818;stroke-width:1.0;"/><path d="M21.4688,137.9219 Q19.7188,137.9219 18.5781,137.1875 Q17.4531,136.4375 16.8906,135.0938 Q16.3438,133.7344 16.3438,131.9375 Q16.3438,129.9063 17,128.4531 Q17.6563,127 18.9375,126.2188 Q20.2188,125.4375 22.0938,125.4375 Q22.9844,125.4375 23.6563,125.625 Q24.3281,125.7969 25.0156,126.1406 L24.2031,128.1563 Q23.5781,127.8438 23.0313,127.7188 Q22.5,127.5938 22.0156,127.5938 Q20.8438,127.5938 20.1406,128.125 Q19.4375,128.6563 19.1406,129.6094 Q18.8438,130.5625 18.8438,131.8281 Q18.8438,133.8438 19.5625,134.8125 Q20.2813,135.7656 21.875,135.7656 Q22.4688,135.7656 23.0938,135.6094 Q23.7188,135.4531 24.5469,135.0781 L24.5469,137.2969 Q23.8125,137.6094 23.0156,137.7656 Q22.2344,137.9219 21.4688,137.9219 Z " fill="#000000"/><text fill="#000000" font-family="sans-serif" font-size="14" lengthAdjust="spacing" textLength="48" x="36" y="136.432">Invoice</text><line style="stroke:#181818;stroke-width:0.5;" x1="8" x2="86" y1="147" y2="147"/><line style="stroke:#181818;stroke-width:0.5;" x1="8" x2="86" y1="155" y2="155"/></g><!--MD5=[7421f545a0d8420c5bec41e74b387d9c]
class Employee--><g id="elem_Employee"><rect codeLine="984" fill="#F1F1F1" height="48" id="Employee" rx="2.5" ry="2.5" style="stroke:#181818;stroke-width:0.5;" width="92" x="122" y="115"/><ellipse cx="137" cy="131" fill="#A9DCDF" rx="11" ry="11" style="stroke:#181818;stroke-width:1.0;"/><path d="M132.1719,136.75 L135.5156,124.5625 L138.6563,124.5625 L142.0313,136.75 L139.5625,136.75 L138.8281,133.7344 L135.3125,133.7344 L134.5625,136.75 L132.1719,136.75 Z M136.5781,128.7031 L135.8281,131.7031 L138.3438,131.7031 L137.625,128.7031 Q137.4844,128.125 137.3594,127.5781 Q137.2344,127.0156 137.0938,126.4375 Q136.9844,127.0156 136.8438,127.5781 Q136.7031,128.125 136.5781,128.7031 Z " fill="#000000"/><text fill="#000000" font-family="sans-serif" font-size="14" font-style="italic" lengthAdjust="spacing" textLength="60" x="151" y="136.432">Employee</text><line style="stroke:#181818;stroke-width:0.5;" x1="123" x2="213" y1="147" y2="147"/><line style="stroke:#181818;stroke-width:0.5;" x1="123" x2="213" y1="155" y2="155"/></g><!--MD5=[1f570ed761f4e3402fcd142935c16e01]
class SalariedEmployee--><g id="elem_SalariedEmployee"><rect codeLine="985" fill="#F1F1F1" height="48" id="SalariedEmployee" rx="2.5" ry="2.5" style="stroke:#181818;stroke-width:0.5;" width="152" x="92" y="223"/><ellipse cx="107" cy="239" fill="#ADD1B2" rx="11" ry="11" style="stroke:#181818;stroke-width:1.0;"/><path d="M106.4688,245.9219 Q104.7188,245.9219 103.5781,245.1875 Q102.4531,244.4375 101.8906,243.0938 Q101.3438,241.7344 101.3438,239.9375 Q101.3438,237.9063 102,236.4531 Q102.6563,235 103.9375,234.2188 Q105.2188,233.4375 107.0938,233.4375 Q107.9844,233.4375 108.6563,233.625 Q109.3281,233.7969 110.0156,234.1406 L109.2031,236.1563 Q108.5781,235.8438 108.0313,235.7188 Q107.5,235.5938 107.0156,235.5938 Q105.8438,235.5938 105.1406,236.125 Q104.4375,236.6563 104.1406,237.6094 Q103.8438,238.5625 103.8438,239.8281 Q103.8438,241.8438 104.5625,242.8125 Q105.2813,243.7656 106.875,243.7656 Q107.4688,243.7656 108.0938,243.6094 Q108.7188,243.4531 109.5469,243.0781 L109.5469,245.2969 Q108.8125,245.6094 108.0156,245.7656 Q107.2344,245.9219 106.4688,245.9219 Z " fill="#000000"/><text fill="#000000" font-family="sans-serif" font-size="14" lengthAdjust="spacing" textLength="120" x="121" y="244.432">SalariedEmployee</text><line style="stroke:#181818;stroke-width:0.5;" x1="93" x2="243" y1="255" y2="255"/><line style="stroke:#181818;stroke-width:0.5;" x1="93" x2="243" y1="263" y2="263"/></g><!--MD5=[2816e1f7ded47e4b1a2160a38e996543]
reverse link Payable to Invoice--><g id="link_Payable_Invoice"><path d="M84.01,72.61 C75.95,86.85 67.18,102.35 60.2,114.68 " fill="none" id="Payable-backto-Invoice" style="stroke:#181818;stroke-width:1.0;stroke-dasharray:7.0,7.0;"/><polygon fill="none" points="78.04,68.96,93.98,55,90.22,75.85,78.04,68.96" style="stroke:#181818;stroke-width:1.0;"/></g><!--MD5=[803efb3966bf0ee498cd7df458fdeab3]
reverse link Payable to Employee--><g id="link_Payable_Employee"><path d="M130.37,72.61 C138.56,86.85 147.48,102.35 154.58,114.68 " fill="none" id="Payable-backto-Employee" style="stroke:#181818;stroke-width:1.0;stroke-dasharray:7.0,7.0;"/><polygon fill="none" points="124.14,75.83,120.24,55,136.28,68.84,124.14,75.83" style="stroke:#181818;stroke-width:1.0;"/></g><!--MD5=[14f1b6234bf78c2a4d17b2496aa205af]
reverse link Employee to SalariedEmployee--><g id="link_Employee_SalariedEmployee"><path d="M168,183.02 C168,196.58 168,211.04 168,222.68 " fill="none" id="Employee-backto-SalariedEmployee" style="stroke:#181818;stroke-width:1.0;"/><polygon fill="none" points="161,183,168,163,175,183,161,183" style="stroke:#181818;stroke-width:1.0;"/></g><!--MD5=[ec282761d06fef988c8116ff92fcd61c]
@startuml 10-payable-interface-hierachy
skinparam classAttributeIconSize 0
interface Payable
class Invoice implements Payable
abstract Employee implements Payable
class SalariedEmployee extends Employee
@enduml

PlantUML version 1.2022.6(Wed Jun 22 02:34:49 KST 2022)
(GPL source distribution)
Java Runtime: OpenJDK Runtime Environment
JVM: OpenJDK 64-Bit Server VM
Default Encoding: UTF-8
Language: en
Country: US
--></g></svg>