<?xml version="1.0" encoding="UTF-8" standalone="no"?><svg xmlns="http://www.w3.org/2000/svg" xmlns:xlink="http://www.w3.org/1999/xlink" contentStyleType="text/css" height="335px" preserveAspectRatio="none" style="width:110px;height:335px;background:#FFFFFF;" version="1.1" viewBox="0 0 110 335" width="110px" zoomAndPan="magnify"><defs/><g><!--MD5=[7fd4401f5c5cb0e3d029c879cad30c04]
class Animal--><g id="elem_Animal"><rect codeLine="1554" fill="#F1F1F1" height="67.0679" id="Animal" rx="2.5" ry="2.5" style="stroke:#181818;stroke-width:0.5;" width="95" x="7.5" y="7"/><ellipse cx="29.7" cy="23" fill="#ADD1B2" rx="11" ry="11" style="stroke:#181818;stroke-width:1.0;"/><path d="M29.1688,29.9219 Q27.4188,29.9219 26.2781,29.1875 Q25.1531,28.4375 24.5906,27.0938 Q24.0438,25.7344 24.0438,23.9375 Q24.0438,21.9063 24.7,20.4531 Q25.3563,19 26.6375,18.2188 Q27.9188,17.4375 29.7938,17.4375 Q30.6844,17.4375 31.3563,17.625 Q32.0281,17.7969 32.7156,18.1406 L31.9031,20.1563 Q31.2781,19.8438 30.7313,19.7188 Q30.2,19.5938 29.7156,19.5938 Q28.5438,19.5938 27.8406,20.125 Q27.1375,20.6563 26.8406,21.6094 Q26.5438,22.5625 26.5438,23.8281 Q26.5438,25.8438 27.2625,26.8125 Q27.9813,27.7656 29.575,27.7656 Q30.1688,27.7656 30.7938,27.6094 Q31.4188,27.4531 32.2469,27.0781 L32.2469,29.2969 Q31.5125,29.6094 30.7156,29.7656 Q29.9344,29.9219 29.1688,29.9219 Z " fill="#000000"/><text fill="#000000" font-family="sans-serif" font-size="14" lengthAdjust="spacing" textLength="47" x="45.3" y="28.432">Animal</text><line style="stroke:#181818;stroke-width:0.5;" x1="8.5" x2="101.5" y1="39" y2="39"/><line style="stroke:#181818;stroke-width:0.5;" x1="8.5" x2="101.5" y1="47" y2="47"/><text fill="#000000" font-family="sans-serif" font-size="14" lengthAdjust="spacing" textLength="83" x="13.5" y="65.9659">+void show()</text></g><!--MD5=[0ba60c1c7eece7977c024cb94d0d3fa3]
class Fish--><g id="elem_Fish"><rect codeLine="1563" fill="#F1F1F1" height="67.0679" id="Fish" rx="2.5" ry="2.5" style="stroke:#181818;stroke-width:0.5;" width="94" x="8" y="134"/><ellipse cx="38.75" cy="150" fill="#ADD1B2" rx="11" ry="11" style="stroke:#181818;stroke-width:1.0;"/><path d="M38.2188,156.9219 Q36.4688,156.9219 35.3281,156.1875 Q34.2031,155.4375 33.6406,154.0938 Q33.0938,152.7344 33.0938,150.9375 Q33.0938,148.9063 33.75,147.4531 Q34.4063,146 35.6875,145.2188 Q36.9688,144.4375 38.8438,144.4375 Q39.7344,144.4375 40.4063,144.625 Q41.0781,144.7969 41.7656,145.1406 L40.9531,147.1563 Q40.3281,146.8438 39.7813,146.7188 Q39.25,146.5938 38.7656,146.5938 Q37.5938,146.5938 36.8906,147.125 Q36.1875,147.6563 35.8906,148.6094 Q35.5938,149.5625 35.5938,150.8281 Q35.5938,152.8438 36.3125,153.8125 Q37.0313,154.7656 38.625,154.7656 Q39.2188,154.7656 39.8438,154.6094 Q40.4688,154.4531 41.2969,154.0781 L41.2969,156.2969 Q40.5625,156.6094 39.7656,156.7656 Q38.9844,156.9219 38.2188,156.9219 Z " fill="#000000"/><text fill="#000000" font-family="sans-serif" font-size="14" lengthAdjust="spacing" textLength="27" x="56.25" y="155.432">Fish</text><line style="stroke:#181818;stroke-width:0.5;" x1="9" x2="101" y1="166" y2="166"/><line style="stroke:#181818;stroke-width:0.5;" x1="9" x2="101" y1="174" y2="174"/><text fill="#000000" font-family="sans-serif" font-size="14" lengthAdjust="spacing" textLength="82" x="14" y="192.9659">+void draw()</text></g><!--MD5=[6113e5c4515ad319fb6b60dc3703394e]
class GoldFish--><g id="elem_GoldFish"><rect codeLine="1564" fill="#F1F1F1" height="67.0679" id="GoldFish" rx="2.5" ry="2.5" style="stroke:#181818;stroke-width:0.5;" width="96" x="7" y="261"/><ellipse cx="24.7" cy="277" fill="#ADD1B2" rx="11" ry="11" style="stroke:#181818;stroke-width:1.0;"/><path d="M24.1688,283.9219 Q22.4188,283.9219 21.2781,283.1875 Q20.1531,282.4375 19.5906,281.0938 Q19.0438,279.7344 19.0438,277.9375 Q19.0438,275.9063 19.7,274.4531 Q20.3563,273 21.6375,272.2188 Q22.9188,271.4375 24.7938,271.4375 Q25.6844,271.4375 26.3563,271.625 Q27.0281,271.7969 27.7156,272.1406 L26.9031,274.1563 Q26.2781,273.8438 25.7313,273.7188 Q25.2,273.5938 24.7156,273.5938 Q23.5438,273.5938 22.8406,274.125 Q22.1375,274.6563 21.8406,275.6094 Q21.5438,276.5625 21.5438,277.8281 Q21.5438,279.8438 22.2625,280.8125 Q22.9813,281.7656 24.575,281.7656 Q25.1688,281.7656 25.7938,281.6094 Q26.4188,281.4531 27.2469,281.0781 L27.2469,283.2969 Q26.5125,283.6094 25.7156,283.7656 Q24.9344,283.9219 24.1688,283.9219 Z " fill="#000000"/><text fill="#000000" font-family="sans-serif" font-size="14" lengthAdjust="spacing" textLength="58" x="39.3" y="282.432">GoldFish</text><line style="stroke:#181818;stroke-width:0.5;" x1="8" x2="102" y1="293" y2="293"/><line style="stroke:#181818;stroke-width:0.5;" x1="8" x2="102" y1="301" y2="301"/><text fill="#000000" font-family="sans-serif" font-size="14" lengthAdjust="spacing" textLength="84" x="13" y="319.9659">+void move()</text></g><!--MD5=[148c53dede49fe4472cc2dd7d4afcf03]
reverse link Animal to Fish--><g id="link_Animal_Fish"><path d="M55,94.2 C55,107.61 55,121.63 55,133.71 " fill="none" id="Animal-backto-Fish" style="stroke:#181818;stroke-width:1.0;"/><polygon fill="none" points="48,94.02,55,74.02,62,94.02,48,94.02" style="stroke:#181818;stroke-width:1.0;"/></g><!--MD5=[5dde25c4ca70d7e3a68ccdf54d90888f]
reverse link Fish to GoldFish--><g id="link_Fish_GoldFish"><path d="M55,221.2 C55,234.61 55,248.63 55,260.71 " fill="none" id="Fish-backto-GoldFish" style="stroke:#181818;stroke-width:1.0;"/><polygon fill="none" points="48,221.02,55,201.02,62,221.02,48,221.02" style="stroke:#181818;stroke-width:1.0;"/></g><!--MD5=[03458d8aef5b56691c847930f674f9a5]
@startuml 10-polymorphism4
skinparam classAttributeIconSize 0
class Animal {
	+ void show()
}
class Fish {
	+ void draw()
}
class GoldFish {
	+ void move()
}
class Fish extends Animal
class GoldFish extends Fish
@enduml

PlantUML version 1.2022.6(Wed Jun 22 02:34:49 KST 2022)
(GPL source distribution)
Java Runtime: OpenJDK Runtime Environment
JVM: OpenJDK 64-Bit Server VM
Default Encoding: UTF-8
Language: en
Country: US
--></g></svg>