<?xml version="1.0" encoding="UTF-8" standalone="no"?><svg xmlns="http://www.w3.org/2000/svg" xmlns:xlink="http://www.w3.org/1999/xlink" contentStyleType="text/css" height="170px" preserveAspectRatio="none" style="width:129px;height:170px;background:#FFFFFF;" version="1.1" viewBox="0 0 129 170" width="129px" zoomAndPan="magnify"><defs/><g><!--MD5=[a46ee5ce0ceb0380cf446a08a056dce4]
class A--><g id="elem_A"><rect codeLine="1079" fill="#F1F1F1" height="48" id="A" rx="2.5" ry="2.5" style="stroke:#181818;stroke-width:0.5;" width="40" x="7" y="7"/><ellipse cx="22" cy="23" fill="#B4A7E5" rx="11" ry="11" style="stroke:#181818;stroke-width:1.0;"/><path d="M18.0313,29.5 L18.0313,27.7969 L20.3906,27.5313 L20.3906,19.3281 L18.0313,19.0625 L18.0313,17.3594 L25.1719,17.3594 L25.1719,19.0625 L22.75,19.3281 L22.75,27.5313 L25.1719,27.7969 L25.1719,29.5 L18.0313,29.5 Z " fill="#000000"/><text fill="#000000" font-family="sans-serif" font-size="14" font-style="italic" lengthAdjust="spacing" textLength="8" x="36" y="28.432">A</text><line style="stroke:#181818;stroke-width:0.5;" x1="8" x2="46" y1="39" y2="39"/><line style="stroke:#181818;stroke-width:0.5;" x1="8" x2="46" y1="47" y2="47"/></g><!--MD5=[69c451c751c414e37549b782190fef46]
class B--><g id="elem_B"><rect codeLine="1080" fill="#F1F1F1" height="48" id="B" rx="2.5" ry="2.5" style="stroke:#181818;stroke-width:0.5;" width="40" x="82" y="7"/><ellipse cx="97" cy="23" fill="#B4A7E5" rx="11" ry="11" style="stroke:#181818;stroke-width:1.0;"/><path d="M93.0313,29.5 L93.0313,27.7969 L95.3906,27.5313 L95.3906,19.3281 L93.0313,19.0625 L93.0313,17.3594 L100.1719,17.3594 L100.1719,19.0625 L97.75,19.3281 L97.75,27.5313 L100.1719,27.7969 L100.1719,29.5 L93.0313,29.5 Z " fill="#000000"/><text fill="#000000" font-family="sans-serif" font-size="14" font-style="italic" lengthAdjust="spacing" textLength="8" x="111" y="28.432">B</text><line style="stroke:#181818;stroke-width:0.5;" x1="83" x2="121" y1="39" y2="39"/><line style="stroke:#181818;stroke-width:0.5;" x1="83" x2="121" y1="47" y2="47"/></g><!--MD5=[998480934a6e94aace003a7b0ca894a1]
class ExClass--><g id="elem_ExClass"><rect codeLine="1082" fill="#F1F1F1" height="48" id="ExClass" rx="2.5" ry="2.5" style="stroke:#181818;stroke-width:0.5;" width="82" x="23" y="115"/><ellipse cx="38" cy="131" fill="#ADD1B2" rx="11" ry="11" style="stroke:#181818;stroke-width:1.0;"/><path d="M37.4688,137.9219 Q35.7188,137.9219 34.5781,137.1875 Q33.4531,136.4375 32.8906,135.0938 Q32.3438,133.7344 32.3438,131.9375 Q32.3438,129.9063 33,128.4531 Q33.6563,127 34.9375,126.2188 Q36.2188,125.4375 38.0938,125.4375 Q38.9844,125.4375 39.6563,125.625 Q40.3281,125.7969 41.0156,126.1406 L40.2031,128.1563 Q39.5781,127.8438 39.0313,127.7188 Q38.5,127.5938 38.0156,127.5938 Q36.8438,127.5938 36.1406,128.125 Q35.4375,128.6563 35.1406,129.6094 Q34.8438,130.5625 34.8438,131.8281 Q34.8438,133.8438 35.5625,134.8125 Q36.2813,135.7656 37.875,135.7656 Q38.4688,135.7656 39.0938,135.6094 Q39.7188,135.4531 40.5469,135.0781 L40.5469,137.2969 Q39.8125,137.6094 39.0156,137.7656 Q38.2344,137.9219 37.4688,137.9219 Z " fill="#000000"/><text fill="#000000" font-family="sans-serif" font-size="14" lengthAdjust="spacing" textLength="50" x="52" y="136.432">ExClass</text><line style="stroke:#181818;stroke-width:0.5;" x1="24" x2="104" y1="147" y2="147"/><line style="stroke:#181818;stroke-width:0.5;" x1="24" x2="104" y1="155" y2="155"/></g><!--MD5=[0ff17addb7fc671f72f6fbe708341ec6]
reverse link A to ExClass--><g id="link_A_ExClass"><path d="M41.68,74.06 C46.51,87.89 51.7,102.76 55.86,114.68 " fill="none" id="A-backto-ExClass" style="stroke:#181818;stroke-width:1.0;stroke-dasharray:7.0,7.0;"/><polygon fill="none" points="35.01,76.19,35.03,55,48.23,71.58,35.01,76.19" style="stroke:#181818;stroke-width:1.0;"/></g><!--MD5=[b67e351457c1a77ee45a3d8bd0cb254d]
reverse link B to ExClass--><g id="link_B_ExClass"><path d="M86.92,74.06 C81.96,87.89 76.63,102.76 72.36,114.68 " fill="none" id="B-backto-ExClass" style="stroke:#181818;stroke-width:1.0;stroke-dasharray:7.0,7.0;"/><polygon fill="none" points="80.42,71.46,93.75,55,93.59,76.19,80.42,71.46" style="stroke:#181818;stroke-width:1.0;"/></g><!--MD5=[a65e0457abaa69ee917de2b1164a7ef0]
@startuml 10-software-engineering-observation-9
skinparam classAttributeIconSize 0
interface A
interface B
class ExClass implements A
class ExClass implements B
@enduml

PlantUML version 1.2022.6(Wed Jun 22 02:34:49 KST 2022)
(GPL source distribution)
Java Runtime: OpenJDK Runtime Environment
JVM: OpenJDK 64-Bit Server VM
Default Encoding: UTF-8
Language: en
Country: US
--></g></svg>