<?xml version="1.0" encoding="UTF-8" standalone="no"?><svg xmlns="http://www.w3.org/2000/svg" xmlns:xlink="http://www.w3.org/1999/xlink" contentStyleType="text/css" height="386px" preserveAspectRatio="none" style="width:120px;height:386px;background:#FFFFFF;" version="1.1" viewBox="0 0 120 386" width="120px" zoomAndPan="magnify"><defs/><g><!--MD5=[4b29317d989f98348c95916f169be12d]
class ExceptionA--><g id="elem_ExceptionA"><rect codeLine="470" fill="#F1F1F1" height="48" id="ExceptionA" rx="2.5" ry="2.5" style="stroke:#181818;stroke-width:0.5;" width="106" x="7" y="115"/><ellipse cx="22" cy="131" fill="#ADD1B2" rx="11" ry="11" style="stroke:#181818;stroke-width:1.0;"/><path d="M21.4688,137.9219 Q19.7188,137.9219 18.5781,137.1875 Q17.4531,136.4375 16.8906,135.0938 Q16.3438,133.7344 16.3438,131.9375 Q16.3438,129.9063 17,128.4531 Q17.6563,127 18.9375,126.2188 Q20.2188,125.4375 22.0938,125.4375 Q22.9844,125.4375 23.6563,125.625 Q24.3281,125.7969 25.0156,126.1406 L24.2031,128.1563 Q23.5781,127.8438 23.0313,127.7188 Q22.5,127.5938 22.0156,127.5938 Q20.8438,127.5938 20.1406,128.125 Q19.4375,128.6563 19.1406,129.6094 Q18.8438,130.5625 18.8438,131.8281 Q18.8438,133.8438 19.5625,134.8125 Q20.2813,135.7656 21.875,135.7656 Q22.4688,135.7656 23.0938,135.6094 Q23.7188,135.4531 24.5469,135.0781 L24.5469,137.2969 Q23.8125,137.6094 23.0156,137.7656 Q22.2344,137.9219 21.4688,137.9219 Z " fill="#000000"/><text fill="#000000" font-family="sans-serif" font-size="14" lengthAdjust="spacing" textLength="74" x="36" y="136.432">ExceptionA</text><line style="stroke:#181818;stroke-width:0.5;" x1="8" x2="112" y1="147" y2="147"/><line style="stroke:#181818;stroke-width:0.5;" x1="8" x2="112" y1="155" y2="155"/></g><!--MD5=[8db60afef7a3447bbe27c5ed187fdac2]
class Exception--><g id="elem_Exception"><rect fill="#F1F1F1" height="48" id="Exception" rx="2.5" ry="2.5" style="stroke:#181818;stroke-width:0.5;" width="97" x="11.5" y="7"/><ellipse cx="26.5" cy="23" fill="#ADD1B2" rx="11" ry="11" style="stroke:#181818;stroke-width:1.0;"/><path d="M25.9688,29.9219 Q24.2188,29.9219 23.0781,29.1875 Q21.9531,28.4375 21.3906,27.0938 Q20.8438,25.7344 20.8438,23.9375 Q20.8438,21.9063 21.5,20.4531 Q22.1563,19 23.4375,18.2188 Q24.7188,17.4375 26.5938,17.4375 Q27.4844,17.4375 28.1563,17.625 Q28.8281,17.7969 29.5156,18.1406 L28.7031,20.1563 Q28.0781,19.8438 27.5313,19.7188 Q27,19.5938 26.5156,19.5938 Q25.3438,19.5938 24.6406,20.125 Q23.9375,20.6563 23.6406,21.6094 Q23.3438,22.5625 23.3438,23.8281 Q23.3438,25.8438 24.0625,26.8125 Q24.7813,27.7656 26.375,27.7656 Q26.9688,27.7656 27.5938,27.6094 Q28.2188,27.4531 29.0469,27.0781 L29.0469,29.2969 Q28.3125,29.6094 27.5156,29.7656 Q26.7344,29.9219 25.9688,29.9219 Z " fill="#000000"/><text fill="#000000" font-family="sans-serif" font-size="14" lengthAdjust="spacing" textLength="65" x="40.5" y="28.432">Exception</text><line style="stroke:#181818;stroke-width:0.5;" x1="12.5" x2="107.5" y1="39" y2="39"/><line style="stroke:#181818;stroke-width:0.5;" x1="12.5" x2="107.5" y1="47" y2="47"/></g><!--MD5=[0e9dd8d72e3b47bbec53320a9f89159c]
class ExceptionB--><g id="elem_ExceptionB"><rect codeLine="471" fill="#F1F1F1" height="48" id="ExceptionB" rx="2.5" ry="2.5" style="stroke:#181818;stroke-width:0.5;" width="106" x="7" y="223"/><ellipse cx="22" cy="239" fill="#ADD1B2" rx="11" ry="11" style="stroke:#181818;stroke-width:1.0;"/><path d="M21.4688,245.9219 Q19.7188,245.9219 18.5781,245.1875 Q17.4531,244.4375 16.8906,243.0938 Q16.3438,241.7344 16.3438,239.9375 Q16.3438,237.9063 17,236.4531 Q17.6563,235 18.9375,234.2188 Q20.2188,233.4375 22.0938,233.4375 Q22.9844,233.4375 23.6563,233.625 Q24.3281,233.7969 25.0156,234.1406 L24.2031,236.1563 Q23.5781,235.8438 23.0313,235.7188 Q22.5,235.5938 22.0156,235.5938 Q20.8438,235.5938 20.1406,236.125 Q19.4375,236.6563 19.1406,237.6094 Q18.8438,238.5625 18.8438,239.8281 Q18.8438,241.8438 19.5625,242.8125 Q20.2813,243.7656 21.875,243.7656 Q22.4688,243.7656 23.0938,243.6094 Q23.7188,243.4531 24.5469,243.0781 L24.5469,245.2969 Q23.8125,245.6094 23.0156,245.7656 Q22.2344,245.9219 21.4688,245.9219 Z " fill="#000000"/><text fill="#000000" font-family="sans-serif" font-size="14" lengthAdjust="spacing" textLength="74" x="36" y="244.432">ExceptionB</text><line style="stroke:#181818;stroke-width:0.5;" x1="8" x2="112" y1="255" y2="255"/><line style="stroke:#181818;stroke-width:0.5;" x1="8" x2="112" y1="263" y2="263"/></g><!--MD5=[102566798ea1a6f3ebb437c9849d659e]
class ExceptionC--><g id="elem_ExceptionC"><rect codeLine="472" fill="#F1F1F1" height="48" id="ExceptionC" rx="2.5" ry="2.5" style="stroke:#181818;stroke-width:0.5;" width="106" x="7" y="331"/><ellipse cx="22" cy="347" fill="#ADD1B2" rx="11" ry="11" style="stroke:#181818;stroke-width:1.0;"/><path d="M21.4688,353.9219 Q19.7188,353.9219 18.5781,353.1875 Q17.4531,352.4375 16.8906,351.0938 Q16.3438,349.7344 16.3438,347.9375 Q16.3438,345.9063 17,344.4531 Q17.6563,343 18.9375,342.2188 Q20.2188,341.4375 22.0938,341.4375 Q22.9844,341.4375 23.6563,341.625 Q24.3281,341.7969 25.0156,342.1406 L24.2031,344.1563 Q23.5781,343.8438 23.0313,343.7188 Q22.5,343.5938 22.0156,343.5938 Q20.8438,343.5938 20.1406,344.125 Q19.4375,344.6563 19.1406,345.6094 Q18.8438,346.5625 18.8438,347.8281 Q18.8438,349.8438 19.5625,350.8125 Q20.2813,351.7656 21.875,351.7656 Q22.4688,351.7656 23.0938,351.6094 Q23.7188,351.4531 24.5469,351.0781 L24.5469,353.2969 Q23.8125,353.6094 23.0156,353.7656 Q22.2344,353.9219 21.4688,353.9219 Z " fill="#000000"/><text fill="#000000" font-family="sans-serif" font-size="14" lengthAdjust="spacing" textLength="74" x="36" y="352.432">ExceptionC</text><line style="stroke:#181818;stroke-width:0.5;" x1="8" x2="112" y1="363" y2="363"/><line style="stroke:#181818;stroke-width:0.5;" x1="8" x2="112" y1="371" y2="371"/></g><!--MD5=[cf71e8801026e12f931e6b5e7c0af2eb]
reverse link Exception to ExceptionA--><g id="link_Exception_ExceptionA"><path d="M60,75.02 C60,88.58 60,103.04 60,114.68 " fill="none" id="Exception-backto-ExceptionA" style="stroke:#181818;stroke-width:1.0;"/><polygon fill="none" points="53,75,60,55,67,75,53,75" style="stroke:#181818;stroke-width:1.0;"/></g><!--MD5=[fd6f77fba7e6db1329b265df1303fab4]
reverse link ExceptionA to ExceptionB--><g id="link_ExceptionA_ExceptionB"><path d="M60,183.02 C60,196.58 60,211.04 60,222.68 " fill="none" id="ExceptionA-backto-ExceptionB" style="stroke:#181818;stroke-width:1.0;"/><polygon fill="none" points="53,183,60,163,67,183,53,183" style="stroke:#181818;stroke-width:1.0;"/></g><!--MD5=[9745647d629292cb815928ac4b6551c6]
reverse link ExceptionB to ExceptionC--><g id="link_ExceptionB_ExceptionC"><path d="M60,291.02 C60,304.58 60,319.04 60,330.68 " fill="none" id="ExceptionB-backto-ExceptionC" style="stroke:#181818;stroke-width:1.0;"/><polygon fill="none" points="53,291,60,271,67,291,53,291" style="stroke:#181818;stroke-width:1.0;"/></g><!--MD5=[6bf8bcab4f7da93f84cba97d331e3344]
@startuml 11-polymorphic-catch
class ExceptionA extends Exception
class ExceptionB extends ExceptionA
class ExceptionC extends ExceptionB
@enduml

PlantUML version 1.2022.6(Wed Jun 22 02:34:49 KST 2022)
(GPL source distribution)
Java Runtime: OpenJDK Runtime Environment
JVM: OpenJDK 64-Bit Server VM
Default Encoding: UTF-8
Language: en
Country: US
--></g></svg>