<?xml version="1.0" encoding="UTF-8" standalone="no"?><svg xmlns="http://www.w3.org/2000/svg" xmlns:xlink="http://www.w3.org/1999/xlink" contentStyleType="text/css" height="636px" preserveAspectRatio="none" style="width:1118px;height:636px;background:#FFFFFF;" version="1.1" viewBox="0 0 1118 636" width="1118px" zoomAndPan="magnify"><defs/><g><!--MD5=[4cc935d74cc635b2f0f75f4d3211754d]
cluster uc1--><g id="cluster_uc1"><path d="M8.5,311 L84.5,311 A3.75,3.75 0 0 1 87,313.5 L94,336.0679 L1108.5,336.0679 A2.5,2.5 0 0 1 1111,338.5679 L1111,626.5 A2.5,2.5 0 0 1 1108.5,629 L8.5,629 A2.5,2.5 0 0 1 6,626.5 L6,313.5 A2.5,2.5 0 0 1 8.5,311 " style="stroke:#000000;stroke-width:1.5;fill:none;"/><line style="stroke:#000000;stroke-width:1.5;fill:none;" x1="6" x2="94" y1="336.0679" y2="336.0679"/><text fill="#000000" font-family="sans-serif" font-size="14" font-weight="bold" lengthAdjust="spacing" textLength="75" x="10" y="327.9659">unchecked</text></g><!--MD5=[f27547282063f2792adae15998e0e9bf]
cluster uc2--><g id="cluster_uc2"><path d="M616.5,77 L692.5,77 A3.75,3.75 0 0 1 695,79.5 L702,102.0679 L1097.5,102.0679 A2.5,2.5 0 0 1 1100,104.5679 L1100,284.5 A2.5,2.5 0 0 1 1097.5,287 L616.5,287 A2.5,2.5 0 0 1 614,284.5 L614,79.5 A2.5,2.5 0 0 1 616.5,77 " style="stroke:#000000;stroke-width:1.5;fill:none;"/><line style="stroke:#000000;stroke-width:1.5;fill:none;" x1="614" x2="702" y1="102.0679" y2="102.0679"/><text fill="#000000" font-family="sans-serif" font-size="14" font-weight="bold" lengthAdjust="spacing" textLength="75" x="618" y="93.9659">unchecked</text></g><!--MD5=[747a08847db06fcbf7bdfaac08d44319]
cluster checked--><g id="cluster_checked"><path d="M396.5,77 L454.5,77 A3.75,3.75 0 0 1 457,79.5 L464,102.0679 L537.5,102.0679 A2.5,2.5 0 0 1 540,104.5679 L540,284.5 A2.5,2.5 0 0 1 537.5,287 L396.5,287 A2.5,2.5 0 0 1 394,284.5 L394,79.5 A2.5,2.5 0 0 1 396.5,77 " style="stroke:#000000;stroke-width:1.5;fill:none;"/><line style="stroke:#000000;stroke-width:1.5;fill:none;" x1="394" x2="464" y1="102.0679" y2="102.0679"/><text fill="#000000" font-family="sans-serif" font-size="14" font-weight="bold" lengthAdjust="spacing" textLength="57" x="398" y="93.9659">checked</text></g><!--MD5=[5c6c7d52e42032554528404b62c1d271]
class RuntimeException--><g id="elem_RuntimeException"><rect codeLine="355" fill="#F1F1F1" height="48" id="RuntimeException" rx="2.5" ry="2.5" style="stroke:#181818;stroke-width:0.5;" width="154" x="490" y="349"/><ellipse cx="505" cy="365" fill="#ADD1B2" rx="11" ry="11" style="stroke:#181818;stroke-width:1.0;"/><path d="M504.4688,371.9219 Q502.7188,371.9219 501.5781,371.1875 Q500.4531,370.4375 499.8906,369.0938 Q499.3438,367.7344 499.3438,365.9375 Q499.3438,363.9063 500,362.4531 Q500.6563,361 501.9375,360.2188 Q503.2188,359.4375 505.0938,359.4375 Q505.9844,359.4375 506.6563,359.625 Q507.3281,359.7969 508.0156,360.1406 L507.2031,362.1563 Q506.5781,361.8438 506.0313,361.7188 Q505.5,361.5938 505.0156,361.5938 Q503.8438,361.5938 503.1406,362.125 Q502.4375,362.6563 502.1406,363.6094 Q501.8438,364.5625 501.8438,365.8281 Q501.8438,367.8438 502.5625,368.8125 Q503.2813,369.7656 504.875,369.7656 Q505.4688,369.7656 506.0938,369.6094 Q506.7188,369.4531 507.5469,369.0781 L507.5469,371.2969 Q506.8125,371.6094 506.0156,371.7656 Q505.2344,371.9219 504.4688,371.9219 Z " fill="#000000"/><text fill="#000000" font-family="sans-serif" font-size="14" lengthAdjust="spacing" textLength="122" x="519" y="370.432">RuntimeException</text><line style="stroke:#181818;stroke-width:0.5;" x1="491" x2="643" y1="381" y2="381"/><line style="stroke:#181818;stroke-width:0.5;" x1="491" x2="643" y1="389" y2="389"/></g><!--MD5=[f33a0c0adceb123cbcd0954733980279]
class ClassCastException--><g id="elem_ClassCastException"><rect codeLine="360" fill="#F1F1F1" height="48" id="ClassCastException" rx="2.5" ry="2.5" style="stroke:#181818;stroke-width:0.5;" width="161" x="22.5" y="457"/><ellipse cx="37.5" cy="473" fill="#ADD1B2" rx="11" ry="11" style="stroke:#181818;stroke-width:1.0;"/><path d="M36.9688,479.9219 Q35.2188,479.9219 34.0781,479.1875 Q32.9531,478.4375 32.3906,477.0938 Q31.8438,475.7344 31.8438,473.9375 Q31.8438,471.9063 32.5,470.4531 Q33.1563,469 34.4375,468.2188 Q35.7188,467.4375 37.5938,467.4375 Q38.4844,467.4375 39.1563,467.625 Q39.8281,467.7969 40.5156,468.1406 L39.7031,470.1563 Q39.0781,469.8438 38.5313,469.7188 Q38,469.5938 37.5156,469.5938 Q36.3438,469.5938 35.6406,470.125 Q34.9375,470.6563 34.6406,471.6094 Q34.3438,472.5625 34.3438,473.8281 Q34.3438,475.8438 35.0625,476.8125 Q35.7813,477.7656 37.375,477.7656 Q37.9688,477.7656 38.5938,477.6094 Q39.2188,477.4531 40.0469,477.0781 L40.0469,479.2969 Q39.3125,479.6094 38.5156,479.7656 Q37.7344,479.9219 36.9688,479.9219 Z " fill="#000000"/><text fill="#000000" font-family="sans-serif" font-size="14" lengthAdjust="spacing" textLength="129" x="51.5" y="478.432">ClassCastException</text><line style="stroke:#181818;stroke-width:0.5;" x1="23.5" x2="182.5" y1="489" y2="489"/><line style="stroke:#181818;stroke-width:0.5;" x1="23.5" x2="182.5" y1="497" y2="497"/></g><!--MD5=[f051b9b9c91aac1ef80da0cf973f3e0c]
class IndexOutOfBoundsException--><g id="elem_IndexOutOfBoundsException"><rect codeLine="361" fill="#F1F1F1" height="48" id="IndexOutOfBoundsException" rx="2.5" ry="2.5" style="stroke:#181818;stroke-width:0.5;" width="227" x="218.5" y="457"/><ellipse cx="233.5" cy="473" fill="#ADD1B2" rx="11" ry="11" style="stroke:#181818;stroke-width:1.0;"/><path d="M232.9688,479.9219 Q231.2188,479.9219 230.0781,479.1875 Q228.9531,478.4375 228.3906,477.0938 Q227.8438,475.7344 227.8438,473.9375 Q227.8438,471.9063 228.5,470.4531 Q229.1563,469 230.4375,468.2188 Q231.7188,467.4375 233.5938,467.4375 Q234.4844,467.4375 235.1563,467.625 Q235.8281,467.7969 236.5156,468.1406 L235.7031,470.1563 Q235.0781,469.8438 234.5313,469.7188 Q234,469.5938 233.5156,469.5938 Q232.3438,469.5938 231.6406,470.125 Q230.9375,470.6563 230.6406,471.6094 Q230.3438,472.5625 230.3438,473.8281 Q230.3438,475.8438 231.0625,476.8125 Q231.7813,477.7656 233.375,477.7656 Q233.9688,477.7656 234.5938,477.6094 Q235.2188,477.4531 236.0469,477.0781 L236.0469,479.2969 Q235.3125,479.6094 234.5156,479.7656 Q233.7344,479.9219 232.9688,479.9219 Z " fill="#000000"/><text fill="#000000" font-family="sans-serif" font-size="14" lengthAdjust="spacing" textLength="195" x="247.5" y="478.432">IndexOutOfBoundsException</text><line style="stroke:#181818;stroke-width:0.5;" x1="219.5" x2="444.5" y1="489" y2="489"/><line style="stroke:#181818;stroke-width:0.5;" x1="219.5" x2="444.5" y1="497" y2="497"/></g><!--MD5=[312b0335a2edee9f3d3b1802358d9f2b]
class NullPointerException--><g id="elem_NullPointerException"><rect codeLine="362" fill="#F1F1F1" height="48" id="NullPointerException" rx="2.5" ry="2.5" style="stroke:#181818;stroke-width:0.5;" width="173" x="480.5" y="457"/><ellipse cx="495.5" cy="473" fill="#ADD1B2" rx="11" ry="11" style="stroke:#181818;stroke-width:1.0;"/><path d="M494.9688,479.9219 Q493.2188,479.9219 492.0781,479.1875 Q490.9531,478.4375 490.3906,477.0938 Q489.8438,475.7344 489.8438,473.9375 Q489.8438,471.9063 490.5,470.4531 Q491.1563,469 492.4375,468.2188 Q493.7188,467.4375 495.5938,467.4375 Q496.4844,467.4375 497.1563,467.625 Q497.8281,467.7969 498.5156,468.1406 L497.7031,470.1563 Q497.0781,469.8438 496.5313,469.7188 Q496,469.5938 495.5156,469.5938 Q494.3438,469.5938 493.6406,470.125 Q492.9375,470.6563 492.6406,471.6094 Q492.3438,472.5625 492.3438,473.8281 Q492.3438,475.8438 493.0625,476.8125 Q493.7813,477.7656 495.375,477.7656 Q495.9688,477.7656 496.5938,477.6094 Q497.2188,477.4531 498.0469,477.0781 L498.0469,479.2969 Q497.3125,479.6094 496.5156,479.7656 Q495.7344,479.9219 494.9688,479.9219 Z " fill="#000000"/><text fill="#000000" font-family="sans-serif" font-size="14" lengthAdjust="spacing" textLength="141" x="509.5" y="478.432">NullPointerException</text><line style="stroke:#181818;stroke-width:0.5;" x1="481.5" x2="652.5" y1="489" y2="489"/><line style="stroke:#181818;stroke-width:0.5;" x1="481.5" x2="652.5" y1="497" y2="497"/></g><!--MD5=[5a4cbcf5d85586a3d6447ab439fcc460]
class NoSuchElementException--><g id="elem_NoSuchElementException"><rect codeLine="363" fill="#F1F1F1" height="48" id="NoSuchElementException" rx="2.5" ry="2.5" style="stroke:#181818;stroke-width:0.5;" width="204" x="689" y="457"/><ellipse cx="704" cy="473" fill="#ADD1B2" rx="11" ry="11" style="stroke:#181818;stroke-width:1.0;"/><path d="M703.4688,479.9219 Q701.7188,479.9219 700.5781,479.1875 Q699.4531,478.4375 698.8906,477.0938 Q698.3438,475.7344 698.3438,473.9375 Q698.3438,471.9063 699,470.4531 Q699.6563,469 700.9375,468.2188 Q702.2188,467.4375 704.0938,467.4375 Q704.9844,467.4375 705.6563,467.625 Q706.3281,467.7969 707.0156,468.1406 L706.2031,470.1563 Q705.5781,469.8438 705.0313,469.7188 Q704.5,469.5938 704.0156,469.5938 Q702.8438,469.5938 702.1406,470.125 Q701.4375,470.6563 701.1406,471.6094 Q700.8438,472.5625 700.8438,473.8281 Q700.8438,475.8438 701.5625,476.8125 Q702.2813,477.7656 703.875,477.7656 Q704.4688,477.7656 705.0938,477.6094 Q705.7188,477.4531 706.5469,477.0781 L706.5469,479.2969 Q705.8125,479.6094 705.0156,479.7656 Q704.2344,479.9219 703.4688,479.9219 Z " fill="#000000"/><text fill="#000000" font-family="sans-serif" font-size="14" lengthAdjust="spacing" textLength="172" x="718" y="478.432">NoSuchElementException</text><line style="stroke:#181818;stroke-width:0.5;" x1="690" x2="892" y1="489" y2="489"/><line style="stroke:#181818;stroke-width:0.5;" x1="690" x2="892" y1="497" y2="497"/></g><!--MD5=[c592f3252b7084a8ff6d06757de85840]
class ArithmeticException--><g id="elem_ArithmeticException"><rect codeLine="364" fill="#F1F1F1" height="48" id="ArithmeticException" rx="2.5" ry="2.5" style="stroke:#181818;stroke-width:0.5;" width="167" x="928.5" y="457"/><ellipse cx="943.5" cy="473" fill="#ADD1B2" rx="11" ry="11" style="stroke:#181818;stroke-width:1.0;"/><path d="M942.9688,479.9219 Q941.2188,479.9219 940.0781,479.1875 Q938.9531,478.4375 938.3906,477.0938 Q937.8438,475.7344 937.8438,473.9375 Q937.8438,471.9063 938.5,470.4531 Q939.1563,469 940.4375,468.2188 Q941.7188,467.4375 943.5938,467.4375 Q944.4844,467.4375 945.1563,467.625 Q945.8281,467.7969 946.5156,468.1406 L945.7031,470.1563 Q945.0781,469.8438 944.5313,469.7188 Q944,469.5938 943.5156,469.5938 Q942.3438,469.5938 941.6406,470.125 Q940.9375,470.6563 940.6406,471.6094 Q940.3438,472.5625 940.3438,473.8281 Q940.3438,475.8438 941.0625,476.8125 Q941.7813,477.7656 943.375,477.7656 Q943.9688,477.7656 944.5938,477.6094 Q945.2188,477.4531 946.0469,477.0781 L946.0469,479.2969 Q945.3125,479.6094 944.5156,479.7656 Q943.7344,479.9219 942.9688,479.9219 Z " fill="#000000"/><text fill="#000000" font-family="sans-serif" font-size="14" lengthAdjust="spacing" textLength="135" x="957.5" y="478.432">ArithmeticException</text><line style="stroke:#181818;stroke-width:0.5;" x1="929.5" x2="1094.5" y1="489" y2="489"/><line style="stroke:#181818;stroke-width:0.5;" x1="929.5" x2="1094.5" y1="497" y2="497"/></g><!--MD5=[30c286f6ca9464b3d2d21fee394e515d]
class ArrayIndexOutOfBoundsException--><g id="elem_ArrayIndexOutOfBoundsException"><rect codeLine="365" fill="#F1F1F1" height="48" id="ArrayIndexOutOfBoundsException" rx="2.5" ry="2.5" style="stroke:#181818;stroke-width:0.5;" width="263" x="200.5" y="565"/><ellipse cx="215.5" cy="581" fill="#ADD1B2" rx="11" ry="11" style="stroke:#181818;stroke-width:1.0;"/><path d="M214.9688,587.9219 Q213.2188,587.9219 212.0781,587.1875 Q210.9531,586.4375 210.3906,585.0938 Q209.8438,583.7344 209.8438,581.9375 Q209.8438,579.9063 210.5,578.4531 Q211.1563,577 212.4375,576.2188 Q213.7188,575.4375 215.5938,575.4375 Q216.4844,575.4375 217.1563,575.625 Q217.8281,575.7969 218.5156,576.1406 L217.7031,578.1563 Q217.0781,577.8438 216.5313,577.7188 Q216,577.5938 215.5156,577.5938 Q214.3438,577.5938 213.6406,578.125 Q212.9375,578.6563 212.6406,579.6094 Q212.3438,580.5625 212.3438,581.8281 Q212.3438,583.8438 213.0625,584.8125 Q213.7813,585.7656 215.375,585.7656 Q215.9688,585.7656 216.5938,585.6094 Q217.2188,585.4531 218.0469,585.0781 L218.0469,587.2969 Q217.3125,587.6094 216.5156,587.7656 Q215.7344,587.9219 214.9688,587.9219 Z " fill="#000000"/><text fill="#000000" font-family="sans-serif" font-size="14" lengthAdjust="spacing" textLength="231" x="229.5" y="586.432">ArrayIndexOutOfBoundsException</text><line style="stroke:#181818;stroke-width:0.5;" x1="201.5" x2="462.5" y1="597" y2="597"/><line style="stroke:#181818;stroke-width:0.5;" x1="201.5" x2="462.5" y1="605" y2="605"/></g><!--MD5=[16ac206526c0a16222ae7eadf25955b0]
class InputMismatchException--><g id="elem_InputMismatchException"><rect codeLine="366" fill="#F1F1F1" height="48" id="InputMismatchException" rx="2.5" ry="2.5" style="stroke:#181818;stroke-width:0.5;" width="200" x="691" y="565"/><ellipse cx="706" cy="581" fill="#ADD1B2" rx="11" ry="11" style="stroke:#181818;stroke-width:1.0;"/><path d="M705.4688,587.9219 Q703.7188,587.9219 702.5781,587.1875 Q701.4531,586.4375 700.8906,585.0938 Q700.3438,583.7344 700.3438,581.9375 Q700.3438,579.9063 701,578.4531 Q701.6563,577 702.9375,576.2188 Q704.2188,575.4375 706.0938,575.4375 Q706.9844,575.4375 707.6563,575.625 Q708.3281,575.7969 709.0156,576.1406 L708.2031,578.1563 Q707.5781,577.8438 707.0313,577.7188 Q706.5,577.5938 706.0156,577.5938 Q704.8438,577.5938 704.1406,578.125 Q703.4375,578.6563 703.1406,579.6094 Q702.8438,580.5625 702.8438,581.8281 Q702.8438,583.8438 703.5625,584.8125 Q704.2813,585.7656 705.875,585.7656 Q706.4688,585.7656 707.0938,585.6094 Q707.7188,585.4531 708.5469,585.0781 L708.5469,587.2969 Q707.8125,587.6094 707.0156,587.7656 Q706.2344,587.9219 705.4688,587.9219 Z " fill="#000000"/><text fill="#000000" font-family="sans-serif" font-size="14" lengthAdjust="spacing" textLength="168" x="720" y="586.432">InputMismatchException</text><line style="stroke:#181818;stroke-width:0.5;" x1="692" x2="890" y1="597" y2="597"/><line style="stroke:#181818;stroke-width:0.5;" x1="692" x2="890" y1="605" y2="605"/></g><!--MD5=[b8cfd8c4119a3b0a7a46bfc5fc780f85]
class Error--><g id="elem_Error"><rect codeLine="354" fill="#F1F1F1" height="48" id="Error" rx="2.5" ry="2.5" style="stroke:#181818;stroke-width:0.5;" width="66" x="645" y="115"/><ellipse cx="660" cy="131" fill="#ADD1B2" rx="11" ry="11" style="stroke:#181818;stroke-width:1.0;"/><path d="M659.4688,137.9219 Q657.7188,137.9219 656.5781,137.1875 Q655.4531,136.4375 654.8906,135.0938 Q654.3438,133.7344 654.3438,131.9375 Q654.3438,129.9063 655,128.4531 Q655.6563,127 656.9375,126.2188 Q658.2188,125.4375 660.0938,125.4375 Q660.9844,125.4375 661.6563,125.625 Q662.3281,125.7969 663.0156,126.1406 L662.2031,128.1563 Q661.5781,127.8438 661.0313,127.7188 Q660.5,127.5938 660.0156,127.5938 Q658.8438,127.5938 658.1406,128.125 Q657.4375,128.6563 657.1406,129.6094 Q656.8438,130.5625 656.8438,131.8281 Q656.8438,133.8438 657.5625,134.8125 Q658.2813,135.7656 659.875,135.7656 Q660.4688,135.7656 661.0938,135.6094 Q661.7188,135.4531 662.5469,135.0781 L662.5469,137.2969 Q661.8125,137.6094 661.0156,137.7656 Q660.2344,137.9219 659.4688,137.9219 Z " fill="#000000"/><text fill="#000000" font-family="sans-serif" font-size="14" lengthAdjust="spacing" textLength="34" x="674" y="136.432">Error</text><line style="stroke:#181818;stroke-width:0.5;" x1="646" x2="710" y1="147" y2="147"/><line style="stroke:#181818;stroke-width:0.5;" x1="646" x2="710" y1="155" y2="155"/></g><!--MD5=[794a1fa3162cdf0fdbe75b6a877f5ffe]
class AWTError--><g id="elem_AWTError"><rect codeLine="357" fill="#F1F1F1" height="48" id="AWTError" rx="2.5" ry="2.5" style="stroke:#181818;stroke-width:0.5;" width="96" x="630" y="223"/><ellipse cx="645" cy="239" fill="#ADD1B2" rx="11" ry="11" style="stroke:#181818;stroke-width:1.0;"/><path d="M644.4688,245.9219 Q642.7188,245.9219 641.5781,245.1875 Q640.4531,244.4375 639.8906,243.0938 Q639.3438,241.7344 639.3438,239.9375 Q639.3438,237.9063 640,236.4531 Q640.6563,235 641.9375,234.2188 Q643.2188,233.4375 645.0938,233.4375 Q645.9844,233.4375 646.6563,233.625 Q647.3281,233.7969 648.0156,234.1406 L647.2031,236.1563 Q646.5781,235.8438 646.0313,235.7188 Q645.5,235.5938 645.0156,235.5938 Q643.8438,235.5938 643.1406,236.125 Q642.4375,236.6563 642.1406,237.6094 Q641.8438,238.5625 641.8438,239.8281 Q641.8438,241.8438 642.5625,242.8125 Q643.2813,243.7656 644.875,243.7656 Q645.4688,243.7656 646.0938,243.6094 Q646.7188,243.4531 647.5469,243.0781 L647.5469,245.2969 Q646.8125,245.6094 646.0156,245.7656 Q645.2344,245.9219 644.4688,245.9219 Z " fill="#000000"/><text fill="#000000" font-family="sans-serif" font-size="14" lengthAdjust="spacing" textLength="64" x="659" y="244.432">AWTError</text><line style="stroke:#181818;stroke-width:0.5;" x1="631" x2="725" y1="255" y2="255"/><line style="stroke:#181818;stroke-width:0.5;" x1="631" x2="725" y1="263" y2="263"/></g><!--MD5=[fe2619b618b55f776493bc861ea6e715]
class ThreadDeath--><g id="elem_ThreadDeath"><rect codeLine="358" fill="#F1F1F1" height="48" id="ThreadDeath" rx="2.5" ry="2.5" style="stroke:#181818;stroke-width:0.5;" width="120" x="761" y="223"/><ellipse cx="776" cy="239" fill="#ADD1B2" rx="11" ry="11" style="stroke:#181818;stroke-width:1.0;"/><path d="M775.4688,245.9219 Q773.7188,245.9219 772.5781,245.1875 Q771.4531,244.4375 770.8906,243.0938 Q770.3438,241.7344 770.3438,239.9375 Q770.3438,237.9063 771,236.4531 Q771.6563,235 772.9375,234.2188 Q774.2188,233.4375 776.0938,233.4375 Q776.9844,233.4375 777.6563,233.625 Q778.3281,233.7969 779.0156,234.1406 L778.2031,236.1563 Q777.5781,235.8438 777.0313,235.7188 Q776.5,235.5938 776.0156,235.5938 Q774.8438,235.5938 774.1406,236.125 Q773.4375,236.6563 773.1406,237.6094 Q772.8438,238.5625 772.8438,239.8281 Q772.8438,241.8438 773.5625,242.8125 Q774.2813,243.7656 775.875,243.7656 Q776.4688,243.7656 777.0938,243.6094 Q777.7188,243.4531 778.5469,243.0781 L778.5469,245.2969 Q777.8125,245.6094 777.0156,245.7656 Q776.2344,245.9219 775.4688,245.9219 Z " fill="#000000"/><text fill="#000000" font-family="sans-serif" font-size="14" lengthAdjust="spacing" textLength="88" x="790" y="244.432">ThreadDeath</text><line style="stroke:#181818;stroke-width:0.5;" x1="762" x2="880" y1="255" y2="255"/><line style="stroke:#181818;stroke-width:0.5;" x1="762" x2="880" y1="263" y2="263"/></g><!--MD5=[c1a3ba06f308b79ba28082c5614ea4c9]
class VirtualMachineError--><g id="elem_VirtualMachineError"><rect codeLine="359" fill="#F1F1F1" height="48" id="VirtualMachineError" rx="2.5" ry="2.5" style="stroke:#181818;stroke-width:0.5;" width="168" x="916" y="223"/><ellipse cx="931" cy="239" fill="#ADD1B2" rx="11" ry="11" style="stroke:#181818;stroke-width:1.0;"/><path d="M930.4688,245.9219 Q928.7188,245.9219 927.5781,245.1875 Q926.4531,244.4375 925.8906,243.0938 Q925.3438,241.7344 925.3438,239.9375 Q925.3438,237.9063 926,236.4531 Q926.6563,235 927.9375,234.2188 Q929.2188,233.4375 931.0938,233.4375 Q931.9844,233.4375 932.6563,233.625 Q933.3281,233.7969 934.0156,234.1406 L933.2031,236.1563 Q932.5781,235.8438 932.0313,235.7188 Q931.5,235.5938 931.0156,235.5938 Q929.8438,235.5938 929.1406,236.125 Q928.4375,236.6563 928.1406,237.6094 Q927.8438,238.5625 927.8438,239.8281 Q927.8438,241.8438 928.5625,242.8125 Q929.2813,243.7656 930.875,243.7656 Q931.4688,243.7656 932.0938,243.6094 Q932.7188,243.4531 933.5469,243.0781 L933.5469,245.2969 Q932.8125,245.6094 932.0156,245.7656 Q931.2344,245.9219 930.4688,245.9219 Z " fill="#000000"/><text fill="#000000" font-family="sans-serif" font-size="14" lengthAdjust="spacing" textLength="136" x="945" y="244.432">VirtualMachineError</text><line style="stroke:#181818;stroke-width:0.5;" x1="917" x2="1083" y1="255" y2="255"/><line style="stroke:#181818;stroke-width:0.5;" x1="917" x2="1083" y1="263" y2="263"/></g><!--MD5=[8db60afef7a3447bbe27c5ed187fdac2]
class Exception--><g id="elem_Exception"><rect codeLine="353" fill="#F1F1F1" height="48" id="Exception" rx="2.5" ry="2.5" style="stroke:#181818;stroke-width:0.5;" width="97" x="427.5" y="115"/><ellipse cx="442.5" cy="131" fill="#ADD1B2" rx="11" ry="11" style="stroke:#181818;stroke-width:1.0;"/><path d="M441.9688,137.9219 Q440.2188,137.9219 439.0781,137.1875 Q437.9531,136.4375 437.3906,135.0938 Q436.8438,133.7344 436.8438,131.9375 Q436.8438,129.9063 437.5,128.4531 Q438.1563,127 439.4375,126.2188 Q440.7188,125.4375 442.5938,125.4375 Q443.4844,125.4375 444.1563,125.625 Q444.8281,125.7969 445.5156,126.1406 L444.7031,128.1563 Q444.0781,127.8438 443.5313,127.7188 Q443,127.5938 442.5156,127.5938 Q441.3438,127.5938 440.6406,128.125 Q439.9375,128.6563 439.6406,129.6094 Q439.3438,130.5625 439.3438,131.8281 Q439.3438,133.8438 440.0625,134.8125 Q440.7813,135.7656 442.375,135.7656 Q442.9688,135.7656 443.5938,135.6094 Q444.2188,135.4531 445.0469,135.0781 L445.0469,137.2969 Q444.3125,137.6094 443.5156,137.7656 Q442.7344,137.9219 441.9688,137.9219 Z " fill="#000000"/><text fill="#000000" font-family="sans-serif" font-size="14" lengthAdjust="spacing" textLength="65" x="456.5" y="136.432">Exception</text><line style="stroke:#181818;stroke-width:0.5;" x1="428.5" x2="523.5" y1="147" y2="147"/><line style="stroke:#181818;stroke-width:0.5;" x1="428.5" x2="523.5" y1="155" y2="155"/></g><!--MD5=[1ece49953b1ba24a21a2daf00b0b04f7]
class IOException--><g id="elem_IOException"><rect codeLine="356" fill="#F1F1F1" height="48" id="IOException" rx="2.5" ry="2.5" style="stroke:#181818;stroke-width:0.5;" width="113" x="410.5" y="223"/><ellipse cx="425.5" cy="239" fill="#ADD1B2" rx="11" ry="11" style="stroke:#181818;stroke-width:1.0;"/><path d="M424.9688,245.9219 Q423.2188,245.9219 422.0781,245.1875 Q420.9531,244.4375 420.3906,243.0938 Q419.8438,241.7344 419.8438,239.9375 Q419.8438,237.9063 420.5,236.4531 Q421.1563,235 422.4375,234.2188 Q423.7188,233.4375 425.5938,233.4375 Q426.4844,233.4375 427.1563,233.625 Q427.8281,233.7969 428.5156,234.1406 L427.7031,236.1563 Q427.0781,235.8438 426.5313,235.7188 Q426,235.5938 425.5156,235.5938 Q424.3438,235.5938 423.6406,236.125 Q422.9375,236.6563 422.6406,237.6094 Q422.3438,238.5625 422.3438,239.8281 Q422.3438,241.8438 423.0625,242.8125 Q423.7813,243.7656 425.375,243.7656 Q425.9688,243.7656 426.5938,243.6094 Q427.2188,243.4531 428.0469,243.0781 L428.0469,245.2969 Q427.3125,245.6094 426.5156,245.7656 Q425.7344,245.9219 424.9688,245.9219 Z " fill="#000000"/><text fill="#000000" font-family="sans-serif" font-size="14" lengthAdjust="spacing" textLength="81" x="439.5" y="244.432">IOException</text><line style="stroke:#181818;stroke-width:0.5;" x1="411.5" x2="522.5" y1="255" y2="255"/><line style="stroke:#181818;stroke-width:0.5;" x1="411.5" x2="522.5" y1="263" y2="263"/></g><!--MD5=[1171ddf7f6a3c83b7d2312c80850c25d]
class Throwable--><g id="elem_Throwable"><rect fill="#F1F1F1" height="48" id="Throwable" rx="2.5" ry="2.5" style="stroke:#181818;stroke-width:0.5;" width="103" x="525.5" y="7"/><ellipse cx="540.5" cy="23" fill="#ADD1B2" rx="11" ry="11" style="stroke:#181818;stroke-width:1.0;"/><path d="M539.9688,29.9219 Q538.2188,29.9219 537.0781,29.1875 Q535.9531,28.4375 535.3906,27.0938 Q534.8438,25.7344 534.8438,23.9375 Q534.8438,21.9063 535.5,20.4531 Q536.1563,19 537.4375,18.2188 Q538.7188,17.4375 540.5938,17.4375 Q541.4844,17.4375 542.1563,17.625 Q542.8281,17.7969 543.5156,18.1406 L542.7031,20.1563 Q542.0781,19.8438 541.5313,19.7188 Q541,19.5938 540.5156,19.5938 Q539.3438,19.5938 538.6406,20.125 Q537.9375,20.6563 537.6406,21.6094 Q537.3438,22.5625 537.3438,23.8281 Q537.3438,25.8438 538.0625,26.8125 Q538.7813,27.7656 540.375,27.7656 Q540.9688,27.7656 541.5938,27.6094 Q542.2188,27.4531 543.0469,27.0781 L543.0469,29.2969 Q542.3125,29.6094 541.5156,29.7656 Q540.7344,29.9219 539.9688,29.9219 Z " fill="#000000"/><text fill="#000000" font-family="sans-serif" font-size="14" lengthAdjust="spacing" textLength="71" x="554.5" y="28.432">Throwable</text><line style="stroke:#181818;stroke-width:0.5;" x1="526.5" x2="627.5" y1="39" y2="39"/><line style="stroke:#181818;stroke-width:0.5;" x1="526.5" x2="627.5" y1="47" y2="47"/></g><!--MD5=[2460a353b68f8388d801976b817ecbdd]
reverse link Throwable to Exception--><g id="link_Throwable_Exception"><path d="M541.03,69.75 C526.74,84.74 510.77,101.51 498.22,114.68 " fill="none" id="Throwable-backto-Exception" style="stroke:#181818;stroke-width:1.0;"/><polygon fill="none" points="536.22,64.65,555.08,55,546.36,74.31,536.22,64.65" style="stroke:#181818;stroke-width:1.0;"/></g><!--MD5=[b74aaf1dd121c467b9fb078f9c5d9a8f]
reverse link Throwable to Error--><g id="link_Throwable_Error"><path d="M612.97,69.75 C627.26,84.74 643.23,101.51 655.78,114.68 " fill="none" id="Throwable-backto-Error" style="stroke:#181818;stroke-width:1.0;"/><polygon fill="none" points="607.64,74.31,598.92,55,617.78,64.65,607.64,74.31" style="stroke:#181818;stroke-width:1.0;"/></g><!--MD5=[3c8f6ad3ba12231f364f8b4b81630d92]
reverse link Exception to RuntimeException--><g id="link_Exception_RuntimeException"><path d="M512.67,178.67 C523.34,191.84 533.99,207.24 541,223 C559.57,264.75 564.91,318.58 566.42,348.78 " fill="none" id="Exception-backto-RuntimeException" style="stroke:#181818;stroke-width:1.0;"/><polygon fill="none" points="507.19,183.03,499.42,163.32,517.79,173.89,507.19,183.03" style="stroke:#181818;stroke-width:1.0;"/></g><!--MD5=[81c923f96fe09b4f2449488b41c12df7]
reverse link Exception to IOException--><g id="link_Exception_IOException"><path d="M472.35,183.02 C471.2,196.58 469.97,211.04 468.98,222.68 " fill="none" id="Exception-backto-IOException" style="stroke:#181818;stroke-width:1.0;"/><polygon fill="none" points="465.38,182.34,474.05,163,479.33,183.52,465.38,182.34" style="stroke:#181818;stroke-width:1.0;"/></g><!--MD5=[d74339b36bd53a5ddef424e17cdab381]
reverse link Error to AWTError--><g id="link_Error_AWTError"><path d="M678,183.02 C678,196.58 678,211.04 678,222.68 " fill="none" id="Error-backto-AWTError" style="stroke:#181818;stroke-width:1.0;"/><polygon fill="none" points="671,183,678,163,685,183,671,183" style="stroke:#181818;stroke-width:1.0;"/></g><!--MD5=[7117ad749c41906ace34d4c530fe18a1]
reverse link Error to ThreadDeath--><g id="link_Error_ThreadDeath"><path d="M725.13,174.94 C746.28,190.61 770.66,208.68 789.54,222.68 " fill="none" id="Error-backto-ThreadDeath" style="stroke:#181818;stroke-width:1.0;"/><polygon fill="none" points="720.93,180.53,709.03,163,729.26,169.29,720.93,180.53" style="stroke:#181818;stroke-width:1.0;"/></g><!--MD5=[45d08a1bd82a2bb108aa54dbe06cf0be]
reverse link Error to VirtualMachineError--><g id="link_Error_VirtualMachineError"><path d="M730.44,157.26 C784.77,175.15 869.96,203.19 930.01,222.96 " fill="none" id="Error-backto-VirtualMachineError" style="stroke:#181818;stroke-width:1.0;"/><polygon fill="none" points="728.06,163.85,711.25,150.94,732.43,150.55,728.06,163.85" style="stroke:#181818;stroke-width:1.0;"/></g><!--MD5=[ab26274b57ce55ccf74aff3f4086d054]
reverse link RuntimeException to ClassCastException--><g id="link_RuntimeException_ClassCastException"><path d="M469.87,395.82 C396.09,412.44 292.11,435.98 201,457 C195.38,458.3 189.58,459.64 183.74,461 " fill="none" id="RuntimeException-backto-ClassCastException" style="stroke:#181818;stroke-width:1.0;"/><polygon fill="none" points="468.8,388.88,489.85,391.32,471.87,402.54,468.8,388.88" style="stroke:#181818;stroke-width:1.0;"/></g><!--MD5=[daed306bd8af7b186de5a47b8bbd22df]
reverse link RuntimeException to IndexOutOfBoundsException--><g id="link_RuntimeException_IndexOutOfBoundsException"><path d="M497.63,405.29 C461,421.81 416.81,441.74 383.3,456.86 " fill="none" id="RuntimeException-backto-IndexOutOfBoundsException" style="stroke:#181818;stroke-width:1.0;"/><polygon fill="none" points="494.9,398.84,516.01,397,500.66,411.6,494.9,398.84" style="stroke:#181818;stroke-width:1.0;"/></g><!--MD5=[532698459b0015bfb9eba89dc839e152]
reverse link RuntimeException to NullPointerException--><g id="link_RuntimeException_NullPointerException"><path d="M567,417.02 C567,430.58 567,445.04 567,456.68 " fill="none" id="RuntimeException-backto-NullPointerException" style="stroke:#181818;stroke-width:1.0;"/><polygon fill="none" points="560,417,567,397,574,417,560,417" style="stroke:#181818;stroke-width:1.0;"/></g><!--MD5=[a774db3afa914c66ba882efa4871896d]
reverse link RuntimeException to NoSuchElementException--><g id="link_RuntimeException_NoSuchElementException"><path d="M634.08,405.74 C668.81,422.18 710.45,441.88 742.1,456.86 " fill="none" id="RuntimeException-backto-NoSuchElementException" style="stroke:#181818;stroke-width:1.0;"/><polygon fill="none" points="630.69,411.88,615.6,397,636.68,399.23,630.69,411.88" style="stroke:#181818;stroke-width:1.0;"/></g><!--MD5=[5b54c975a10294a6efed64aa5feaa663]
reverse link RuntimeException to ArithmeticException--><g id="link_RuntimeException_ArithmeticException"><path d="M663.62,397.01 C742.61,415.83 853.14,442.16 928.38,460.08 " fill="none" id="RuntimeException-backto-ArithmeticException" style="stroke:#181818;stroke-width:1.0;"/><polygon fill="none" points="661.84,403.79,644.01,392.34,665.08,390.17,661.84,403.79" style="stroke:#181818;stroke-width:1.0;"/></g><!--MD5=[6bccc9c2eb0adcde34338a9f83974bde]
reverse link IndexOutOfBoundsException to ArrayIndexOutOfBoundsException--><g id="link_IndexOutOfBoundsException_ArrayIndexOutOfBoundsException"><path d="M332,525.02 C332,538.58 332,553.04 332,564.68 " fill="none" id="IndexOutOfBoundsException-backto-ArrayIndexOutOfBoundsException" style="stroke:#181818;stroke-width:1.0;"/><polygon fill="none" points="325,525,332,505,339,525,325,525" style="stroke:#181818;stroke-width:1.0;"/></g><!--MD5=[e94c3e4cd95eeff0b8d8a51407ff7fbc]
reverse link NoSuchElementException to InputMismatchException--><g id="link_NoSuchElementException_InputMismatchException"><path d="M791,525.02 C791,538.58 791,553.04 791,564.68 " fill="none" id="NoSuchElementException-backto-InputMismatchException" style="stroke:#181818;stroke-width:1.0;"/><polygon fill="none" points="784,525,791,505,798,525,784,525" style="stroke:#181818;stroke-width:1.0;"/></g><!--MD5=[26a391c276a7c98ee0018fac0bc255e3]
link Exception to Error--><!--MD5=[a5a4946077daa9991100fee8d8a701cc]
reverse link IOException to RuntimeException--><!--MD5=[307177042dde65ea37ad6557941078bb]
@startuml 11-portion-throwable-inheritance-hierarchy
package unchecked as uc1 {
	class RuntimeException
	class ClassCastException
	class IndexOutOfBoundsException
	class NullPointerException
	class NoSuchElementException
	class ArithmeticException
	class ArrayIndexOutOfBoundsException
	class InputMismatchException
}
package unchecked as uc2 {
	class Error
	class AWTError
	class ThreadDeath
	class VirtualMachineError
}
package checked {
	class Exception
	class IOException
}
class Exception extends Throwable
class Error extends Throwable
class RuntimeException extends Exception
class IOException extends Exception
class AWTError extends Error
class ThreadDeath extends Error
class VirtualMachineError extends Error
class ClassCastException extends RuntimeException
class IndexOutOfBoundsException extends RuntimeException
class NullPointerException extends RuntimeException
class NoSuchElementException extends RuntimeException
class ArithmeticException extends RuntimeException
class ArrayIndexOutOfBoundsException extends IndexOutOfBoundsException
class InputMismatchException extends NoSuchElementException
Exception -[hidden]> Error
RuntimeException -u[hidden]-> IOException
@enduml

PlantUML version 1.2022.6(Wed Jun 22 02:34:49 KST 2022)
(GPL source distribution)
Java Runtime: OpenJDK Runtime Environment
JVM: OpenJDK 64-Bit Server VM
Default Encoding: UTF-8
Language: en
Country: US
--></g></svg>