<?xml version="1.0" encoding="UTF-8" standalone="no"?><svg xmlns="http://www.w3.org/2000/svg" xmlns:xlink="http://www.w3.org/1999/xlink" contentStyleType="text/css" height="126px" preserveAspectRatio="none" style="width:192px;height:126px;background:#FFFFFF;" version="1.1" viewBox="0 0 192 126" width="192px" zoomAndPan="magnify"><defs/><g><!--MD5=[f9a29335b499db729be669fd1bd54958]
class Account--><g id="elem_Account"><rect codeLine="232" fill="#F1F1F1" height="105.2038" id="Account" rx="2.5" ry="2.5" style="stroke:#181818;stroke-width:0.5;" width="171" x="7" y="7"/><ellipse cx="61.25" cy="23" fill="#ADD1B2" rx="11" ry="11" style="stroke:#181818;stroke-width:1.0;"/><path d="M60.7188,29.9219 Q58.9688,29.9219 57.8281,29.1875 Q56.7031,28.4375 56.1406,27.0938 Q55.5938,25.7344 55.5938,23.9375 Q55.5938,21.9063 56.25,20.4531 Q56.9063,19 58.1875,18.2188 Q59.4688,17.4375 61.3438,17.4375 Q62.2344,17.4375 62.9063,17.625 Q63.5781,17.7969 64.2656,18.1406 L63.4531,20.1563 Q62.8281,19.8438 62.2813,19.7188 Q61.75,19.5938 61.2656,19.5938 Q60.0938,19.5938 59.3906,20.125 Q58.6875,20.6563 58.3906,21.6094 Q58.0938,22.5625 58.0938,23.8281 Q58.0938,25.8438 58.8125,26.8125 Q59.5313,27.7656 61.125,27.7656 Q61.7188,27.7656 62.3438,27.6094 Q62.9688,27.4531 63.7969,27.0781 L63.7969,29.2969 Q63.0625,29.6094 62.2656,29.7656 Q61.4844,29.9219 60.7188,29.9219 Z " fill="#000000"/><text fill="#000000" font-family="sans-serif" font-size="14" lengthAdjust="spacing" textLength="54" x="81.75" y="28.432">Account</text><line style="stroke:#181818;stroke-width:0.5;" x1="8" x2="177" y1="39" y2="39"/><text fill="#000000" font-family="sans-serif" font-size="14" lengthAdjust="spacing" textLength="88" x="13" y="57.9659">-String name</text><line style="stroke:#181818;stroke-width:0.5;" x1="8" x2="177" y1="66.0679" y2="66.0679"/><text fill="#000000" font-family="sans-serif" font-size="14" lengthAdjust="spacing" textLength="159" x="13" y="85.0339">+setName(String name)</text><text fill="#000000" font-family="sans-serif" font-size="14" lengthAdjust="spacing" textLength="123" x="13" y="104.1018">+String getName()</text></g><!--MD5=[c51608246bebfdc2d668744289671ed0]
@startuml 3-class-diagram-fig_3-1
skinparam classAttributeIconSize 0
class Account {
	- String name
	+ setName(String name)
	+ String getName()
}
@enduml

PlantUML version 1.2022.6(Wed Jun 22 02:34:49 KST 2022)
(GPL source distribution)
Java Runtime: OpenJDK Runtime Environment
JVM: OpenJDK 64-Bit Server VM
Default Encoding: UTF-8
Language: en
Country: US
--></g></svg>