<?xml version="1.0" encoding="UTF-8" standalone="no"?><svg xmlns="http://www.w3.org/2000/svg" xmlns:xlink="http://www.w3.org/1999/xlink" contentStyleType="text/css" height="145px" preserveAspectRatio="none" style="width:273px;height:145px;background:#FFFFFF;" version="1.1" viewBox="0 0 273 145" width="273px" zoomAndPan="magnify"><defs/><g><!--MD5=[f9a29335b499db729be669fd1bd54958]
class Account--><g id="elem_Account"><rect codeLine="349" fill="#F1F1F1" height="124.2717" id="Account" rx="2.5" ry="2.5" style="stroke:#181818;stroke-width:0.5;" width="252" x="7" y="7"/><ellipse cx="101.75" cy="23" fill="#ADD1B2" rx="11" ry="11" style="stroke:#181818;stroke-width:1.0;"/><path d="M101.2188,29.9219 Q99.4688,29.9219 98.3281,29.1875 Q97.2031,28.4375 96.6406,27.0938 Q96.0938,25.7344 96.0938,23.9375 Q96.0938,21.9063 96.75,20.4531 Q97.4063,19 98.6875,18.2188 Q99.9688,17.4375 101.8438,17.4375 Q102.7344,17.4375 103.4063,17.625 Q104.0781,17.7969 104.7656,18.1406 L103.9531,20.1563 Q103.3281,19.8438 102.7813,19.7188 Q102.25,19.5938 101.7656,19.5938 Q100.5938,19.5938 99.8906,20.125 Q99.1875,20.6563 98.8906,21.6094 Q98.5938,22.5625 98.5938,23.8281 Q98.5938,25.8438 99.3125,26.8125 Q100.0313,27.7656 101.625,27.7656 Q102.2188,27.7656 102.8438,27.6094 Q103.4688,27.4531 104.2969,27.0781 L104.2969,29.2969 Q103.5625,29.6094 102.7656,29.7656 Q101.9844,29.9219 101.2188,29.9219 Z " fill="#000000"/><text fill="#000000" font-family="sans-serif" font-size="14" lengthAdjust="spacing" textLength="54" x="122.25" y="28.432">Account</text><line style="stroke:#181818;stroke-width:0.5;" x1="8" x2="258" y1="39" y2="39"/><text fill="#000000" font-family="sans-serif" font-size="14" lengthAdjust="spacing" textLength="88" x="13" y="57.9659">-String name</text><line style="stroke:#181818;stroke-width:0.5;" x1="8" x2="258" y1="66.0679" y2="66.0679"/><text fill="#000000" font-family="sans-serif" font-size="14" lengthAdjust="spacing" textLength="240" x="13" y="85.0339">«constructor» Account(String name)</text><text fill="#000000" font-family="sans-serif" font-size="14" lengthAdjust="spacing" textLength="159" x="13" y="104.1018">+setName(String name)</text><text fill="#000000" font-family="sans-serif" font-size="14" lengthAdjust="spacing" textLength="123" x="13" y="123.1697">+String getName()</text></g><!--MD5=[ee6ba0fbaf70cef71e0645bab6419053]
@startuml 3-class-diagram-fig_3-5
skinparam classAttributeIconSize 0
class Account {
	- String name
	<<constructor>> Account(String name)
	+ setName(String name)
	+ String getName()
}
@enduml

PlantUML version 1.2022.6(Wed Jun 22 02:34:49 KST 2022)
(GPL source distribution)
Java Runtime: OpenJDK Runtime Environment
JVM: OpenJDK 64-Bit Server VM
Default Encoding: UTF-8
Language: en
Country: US
--></g></svg>