<?xml version="1.0" encoding="UTF-8" standalone="no"?><svg xmlns="http://www.w3.org/2000/svg" xmlns:xlink="http://www.w3.org/1999/xlink" contentStyleType="text/css" height="202px" preserveAspectRatio="none" style="width:385px;height:202px;background:#FFFFFF;" version="1.1" viewBox="0 0 385 202" width="385px" zoomAndPan="magnify"><defs/><g><!--MD5=[f9a29335b499db729be669fd1bd54958]
class Account--><g id="elem_Account"><rect codeLine="590" fill="#F1F1F1" height="181.4754" id="Account" rx="2.5" ry="2.5" style="stroke:#181818;stroke-width:0.5;" width="364" x="7" y="7"/><ellipse cx="157.75" cy="23" fill="#ADD1B2" rx="11" ry="11" style="stroke:#181818;stroke-width:1.0;"/><path d="M157.2188,29.9219 Q155.4688,29.9219 154.3281,29.1875 Q153.2031,28.4375 152.6406,27.0938 Q152.0938,25.7344 152.0938,23.9375 Q152.0938,21.9063 152.75,20.4531 Q153.4063,19 154.6875,18.2188 Q155.9688,17.4375 157.8438,17.4375 Q158.7344,17.4375 159.4063,17.625 Q160.0781,17.7969 160.7656,18.1406 L159.9531,20.1563 Q159.3281,19.8438 158.7813,19.7188 Q158.25,19.5938 157.7656,19.5938 Q156.5938,19.5938 155.8906,20.125 Q155.1875,20.6563 154.8906,21.6094 Q154.5938,22.5625 154.5938,23.8281 Q154.5938,25.8438 155.3125,26.8125 Q156.0313,27.7656 157.625,27.7656 Q158.2188,27.7656 158.8438,27.6094 Q159.4688,27.4531 160.2969,27.0781 L160.2969,29.2969 Q159.5625,29.6094 158.7656,29.7656 Q157.9844,29.9219 157.2188,29.9219 Z " fill="#000000"/><text fill="#000000" font-family="sans-serif" font-size="14" lengthAdjust="spacing" textLength="54" x="178.25" y="28.432">Account</text><line style="stroke:#181818;stroke-width:0.5;" x1="8" x2="370" y1="39" y2="39"/><text fill="#000000" font-family="sans-serif" font-size="14" lengthAdjust="spacing" textLength="88" x="13" y="57.9659">-String name</text><text fill="#000000" font-family="sans-serif" font-size="14" lengthAdjust="spacing" textLength="109" x="13" y="77.0339">-double balance</text><line style="stroke:#181818;stroke-width:0.5;" x1="8" x2="370" y1="85.1358" y2="85.1358"/><text fill="#000000" font-family="sans-serif" font-size="14" lengthAdjust="spacing" textLength="352" x="13" y="104.1018">«constructor» Account(String name, double balance)</text><text fill="#000000" font-family="sans-serif" font-size="14" lengthAdjust="spacing" textLength="220" x="13" y="123.1697">+deposit(double depositAmount)</text><text fill="#000000" font-family="sans-serif" font-size="14" lengthAdjust="spacing" textLength="142" x="13" y="142.2376">+double getBalance()</text><text fill="#000000" font-family="sans-serif" font-size="14" lengthAdjust="spacing" textLength="159" x="13" y="161.3055">+setName(String name)</text><text fill="#000000" font-family="sans-serif" font-size="14" lengthAdjust="spacing" textLength="123" x="13" y="180.3734">+String getName()</text></g><!--MD5=[e960aee8cfaadcd05e401ff0d5eee3b6]
@startuml 3-class-diagram-fig_3-8
skinparam classAttributeIconSize 0
class Account {
	- String name
	- double balance
	<<constructor>> Account(String name, double balance)
	+ deposit(double depositAmount)
	+ double getBalance()
	+ setName(String name)
	+ String getName()
}
@enduml

PlantUML version 1.2022.6(Wed Jun 22 02:34:49 KST 2022)
(GPL source distribution)
Java Runtime: OpenJDK Runtime Environment
JVM: OpenJDK 64-Bit Server VM
Default Encoding: UTF-8
Language: en
Country: US
--></g></svg>