<?xml version="1.0" encoding="UTF-8" standalone="no"?><svg xmlns="http://www.w3.org/2000/svg" xmlns:xlink="http://www.w3.org/1999/xlink" contentStyleType="text/css" height="273px" preserveAspectRatio="none" style="width:200px;height:273px;background:#FFFFFF;" version="1.1" viewBox="0 0 200 273" width="200px" zoomAndPan="magnify"><defs/><g><g id="elem_array"><rect fill="#F1F1F1" height="39.0679" style="stroke:#181818;stroke-width:0.5;" width="49" x="7" y="56.5"/><text fill="#000000" font-family="sans-serif" font-size="14" lengthAdjust="spacing" textLength="35" x="14" y="73.4659">array</text><line style="stroke:#181818;stroke-width:0.5;" x1="8" x2="55" y1="79.5679" y2="79.5679"/></g><g id="elem_array2"><rect fill="#F1F1F1" height="39.0679" style="stroke:#181818;stroke-width:0.5;" width="57" x="60" y="228"/><text fill="#000000" font-family="sans-serif" font-size="14" lengthAdjust="spacing" textLength="43" x="67" y="244.9659">array2</text><line style="stroke:#181818;stroke-width:0.5;" x1="61" x2="116" y1="251.0679" y2="251.0679"/></g><g id="elem_ao"><rect fill="#F1F1F1" height="138.4075" style="stroke:#181818;stroke-width:0.5;" width="94" x="99.5" y="7"/><text fill="#000000" font-family="sans-serif" font-size="14" lengthAdjust="spacing" textLength="80" x="106.5" y="23.9659">array object</text><line style="stroke:#181818;stroke-width:1.0;" x1="99.5" x2="193.5" y1="30.0679" y2="30.0679"/><text fill="#000000" font-family="sans-serif" font-size="14" lengthAdjust="spacing" textLength="8" x="104.5" y="47.0339">0</text><text fill="#000000" font-family="sans-serif" font-size="14" lengthAdjust="spacing" textLength="8" x="122.5" y="47.0339">1</text><line style="stroke:#181818;stroke-width:1.0;" x1="117.5" x2="117.5" y1="30.0679" y2="53.1358"/><line style="stroke:#181818;stroke-width:1.0;" x1="99.5" x2="193.5" y1="53.1358" y2="53.1358"/><text fill="#000000" font-family="sans-serif" font-size="14" lengthAdjust="spacing" textLength="8" x="104.5" y="70.1018">1</text><text fill="#000000" font-family="sans-serif" font-size="14" lengthAdjust="spacing" textLength="8" x="122.5" y="70.1018">2</text><line style="stroke:#181818;stroke-width:1.0;" x1="117.5" x2="117.5" y1="53.1358" y2="76.2038"/><line style="stroke:#181818;stroke-width:1.0;" x1="99.5" x2="193.5" y1="76.2038" y2="76.2038"/><text fill="#000000" font-family="sans-serif" font-size="14" lengthAdjust="spacing" textLength="8" x="104.5" y="93.1697">2</text><text fill="#000000" font-family="sans-serif" font-size="14" lengthAdjust="spacing" textLength="8" x="122.5" y="93.1697">3</text><line style="stroke:#181818;stroke-width:1.0;" x1="117.5" x2="117.5" y1="76.2038" y2="99.2717"/><line style="stroke:#181818;stroke-width:1.0;" x1="99.5" x2="193.5" y1="99.2717" y2="99.2717"/><text fill="#000000" font-family="sans-serif" font-size="14" lengthAdjust="spacing" textLength="8" x="104.5" y="116.2376">3</text><text fill="#000000" font-family="sans-serif" font-size="14" lengthAdjust="spacing" textLength="8" x="122.5" y="116.2376">4</text><line style="stroke:#181818;stroke-width:1.0;" x1="117.5" x2="117.5" y1="99.2717" y2="122.3396"/><line style="stroke:#181818;stroke-width:1.0;" x1="99.5" x2="193.5" y1="122.3396" y2="122.3396"/><text fill="#000000" font-family="sans-serif" font-size="14" lengthAdjust="spacing" textLength="8" x="104.5" y="139.3055">4</text><text fill="#000000" font-family="sans-serif" font-size="14" lengthAdjust="spacing" textLength="8" x="122.5" y="139.3055">5</text><line style="stroke:#181818;stroke-width:1.0;" x1="117.5" x2="117.5" y1="122.3396" y2="145.4075"/></g><!--MD5=[6c424463d5a7300d9375094164397a34]
link array to ao--><g id="link_array_ao"><path codeLine="697" d="M56.02,56.45 C65.36,50.19 76.69,44.28 88.5,42 " fill="none" id="array-to-ao" style="stroke:#181818;stroke-width:1.0;"/><polygon fill="#181818" points="98.5,41,89.1458,37.918,93.525,41.4989,89.9441,45.8781,98.5,41" style="stroke:#181818;stroke-width:1.0;"/></g><!--MD5=[9712425454d1502c377b4538f83018fd]
reverse link ao to array2--><g id="link_ao_array2"><path codeLine="698" d="M93.28,41.27 C53.71,45.71 92.59,103.39 99.5,149 C101.59,162.76 106.48,165.23 108.5,179 C109.73,187.35 110.14,189.72 108.5,198 C106.48,208.19 102.3,218.92 98.27,227.69 " fill="none" id="ao-backto-array2" style="stroke:#181818;stroke-width:1.0;"/><polygon fill="#181818" points="98.5,41,89.3064,37.4675,93.5066,41.2568,89.7173,45.457,98.5,41" style="stroke:#181818;stroke-width:1.0;"/></g><!--MD5=[dbc33f7b3273f38074844de672608039]
link array to array2--><g id="link_array_array2"><path codeLine="699" d="M37.82,95.79 C48.29,126.92 69.21,189.15 80.63,223.09 " fill="none" id="array-to-array2" style="stroke:#181818;stroke-width:1.0;"/><polygon fill="#181818" points="82.24,227.89,83.1533,218.0836,80.6417,223.1523,75.573,220.6408,82.24,227.89" style="stroke:#181818;stroke-width:1.0;"/><text fill="#000000" font-family="sans-serif" font-size="13" lengthAdjust="spacing" textLength="29" x="73.5" y="193.897">copy</text></g><!--MD5=[4a6677dad8dabd098d7ac5efae4388b0]
@startuml 7-object-diagram-array-passing
object array
object array2

map "array object" as ao {
 0=>1
 1=>2
 2=>3
 3=>4
 4=>5
}

array -r-> ao::0
array2 -u-> ao::0
array -d-> array2 : copy
@enduml

PlantUML version 1.2022.6(Wed Jun 22 02:34:49 KST 2022)
(GPL source distribution)
Java Runtime: OpenJDK Runtime Environment
JVM: OpenJDK 64-Bit Server VM
Default Encoding: UTF-8
Language: en
Country: US
--></g></svg>