<?xml version="1.0" encoding="UTF-8" standalone="no"?><svg xmlns="http://www.w3.org/2000/svg" xmlns:xlink="http://www.w3.org/1999/xlink" contentStyleType="text/css" height="152px" preserveAspectRatio="none" style="width:342px;height:152px;background:#FFFFFF;" version="1.1" viewBox="0 0 342 152" width="342px" zoomAndPan="magnify"><defs/><g><g id="elem_array"><rect fill="#F1F1F1" height="39.0679" style="stroke:#181818;stroke-width:0.5;" width="49" x="7" y="56.5"/><text fill="#000000" font-family="sans-serif" font-size="14" lengthAdjust="spacing" textLength="35" x="14" y="73.4659">array</text><line style="stroke:#181818;stroke-width:0.5;" x1="8" x2="55" y1="79.5679" y2="79.5679"/></g><g id="elem_element"><rect fill="#F1F1F1" height="39.0679" style="stroke:#181818;stroke-width:0.5;" width="69" x="267" y="56.5"/><text fill="#000000" font-family="sans-serif" font-size="14" lengthAdjust="spacing" textLength="55" x="274" y="73.4659">element</text><line style="stroke:#181818;stroke-width:0.5;" x1="268" x2="335" y1="79.5679" y2="79.5679"/></g><g id="elem_ao"><rect fill="#F1F1F1" height="138.4075" style="stroke:#181818;stroke-width:0.5;" width="94" x="99.5" y="7"/><text fill="#000000" font-family="sans-serif" font-size="14" lengthAdjust="spacing" textLength="80" x="106.5" y="23.9659">array object</text><line style="stroke:#181818;stroke-width:1.0;" x1="99.5" x2="193.5" y1="30.0679" y2="30.0679"/><text fill="#000000" font-family="sans-serif" font-size="14" lengthAdjust="spacing" textLength="8" x="104.5" y="47.0339">0</text><text fill="#000000" font-family="sans-serif" font-size="14" lengthAdjust="spacing" textLength="8" x="122.5" y="47.0339">2</text><line style="stroke:#181818;stroke-width:1.0;" x1="117.5" x2="117.5" y1="30.0679" y2="53.1358"/><line style="stroke:#181818;stroke-width:1.0;" x1="99.5" x2="193.5" y1="53.1358" y2="53.1358"/><text fill="#000000" font-family="sans-serif" font-size="14" lengthAdjust="spacing" textLength="8" x="104.5" y="70.1018">1</text><text fill="#000000" font-family="sans-serif" font-size="14" lengthAdjust="spacing" textLength="8" x="122.5" y="70.1018">4</text><line style="stroke:#181818;stroke-width:1.0;" x1="117.5" x2="117.5" y1="53.1358" y2="76.2038"/><line style="stroke:#181818;stroke-width:1.0;" x1="99.5" x2="193.5" y1="76.2038" y2="76.2038"/><text fill="#000000" font-family="sans-serif" font-size="14" lengthAdjust="spacing" textLength="8" x="104.5" y="93.1697">2</text><text fill="#000000" font-family="sans-serif" font-size="14" lengthAdjust="spacing" textLength="8" x="122.5" y="93.1697">6</text><line style="stroke:#181818;stroke-width:1.0;" x1="117.5" x2="117.5" y1="76.2038" y2="99.2717"/><line style="stroke:#181818;stroke-width:1.0;" x1="99.5" x2="193.5" y1="99.2717" y2="99.2717"/><text fill="#000000" font-family="sans-serif" font-size="14" lengthAdjust="spacing" textLength="8" x="104.5" y="116.2376">3</text><text fill="#000000" font-family="sans-serif" font-size="14" lengthAdjust="spacing" textLength="8" x="122.5" y="116.2376">8</text><line style="stroke:#181818;stroke-width:1.0;" x1="117.5" x2="117.5" y1="99.2717" y2="122.3396"/><line style="stroke:#181818;stroke-width:1.0;" x1="99.5" x2="193.5" y1="122.3396" y2="122.3396"/><text fill="#000000" font-family="sans-serif" font-size="14" lengthAdjust="spacing" textLength="8" x="104.5" y="139.3055">4</text><text fill="#000000" font-family="sans-serif" font-size="14" lengthAdjust="spacing" textLength="16" x="122.5" y="139.3055">10</text><line style="stroke:#181818;stroke-width:1.0;" x1="117.5" x2="117.5" y1="122.3396" y2="145.4075"/></g><!--MD5=[6c424463d5a7300d9375094164397a34]
link array to ao--><g id="link_array_ao"><path codeLine="716" d="M56.02,56.45 C66.67,49.31 79.91,42.63 93.49,41.26 " fill="none" id="array-to-ao" style="stroke:#181818;stroke-width:1.0;"/><polygon fill="#181818" points="98.5,41,89.3059,37.4689,93.5066,41.2575,89.718,45.4583,98.5,41" style="stroke:#181818;stroke-width:1.0;"/></g><!--MD5=[8b05a721135edea57ff2c1e2b3c43661]
link ao to element--><g id="link_ao_element"><path codeLine="717" d="M194.5,111 C206.26,111 207.46,118.74 219,121 C232.52,123.65 237.12,125.9 250,121 C261.71,116.54 272.44,107.97 280.97,99.5 " fill="none" id="ao-to-element" style="stroke:#181818;stroke-width:1.0;"/><polygon fill="#181818" points="284.48,95.89,275.3385,99.5552,280.9948,99.4752,281.0748,105.1315,284.48,95.89" style="stroke:#181818;stroke-width:1.0;"/><text fill="#000000" font-family="sans-serif" font-size="13" lengthAdjust="spacing" textLength="29" x="220" y="116.897">copy</text></g><!--MD5=[fad799eada21305c201b23e20144c4fe]
@startuml 7-object-diagram-array-element-passing
object array
object element

map "array object" as ao {
 0=>2
 1=>4
 2=>6
 3=>8
 4=>10
}

array -right-> ao::0
ao::3 -right-> element : copy
@enduml

PlantUML version 1.2022.6(Wed Jun 22 02:34:49 KST 2022)
(GPL source distribution)
Java Runtime: OpenJDK Runtime Environment
JVM: OpenJDK 64-Bit Server VM
Default Encoding: UTF-8
Language: en
Country: US
--></g></svg>