<?xml version="1.0" encoding="UTF-8" standalone="no"?><svg xmlns="http://www.w3.org/2000/svg" xmlns:xlink="http://www.w3.org/1999/xlink" contentStyleType="text/css" height="284px" preserveAspectRatio="none" style="width:312px;height:284px;background:#FFFFFF;" version="1.1" viewBox="0 0 312 284" width="312px" zoomAndPan="magnify"><defs/><g><!--MD5=[8765f861fd42954bd40cfb715577b685]
cluster stack--><g id="cluster_stack"><path d="M96.5,6.602 L134.5,6.602 A3.75,3.75 0 0 1 137,9.102 L144,31.6699 L213.5,31.6699 A2.5,2.5 0 0 1 216,34.1699 L216,97.102 A2.5,2.5 0 0 1 213.5,99.602 L96.5,99.602 A2.5,2.5 0 0 1 94,97.102 L94,9.102 A2.5,2.5 0 0 1 96.5,6.602 " style="stroke:#000000;stroke-width:1.5;fill:none;"/><line style="stroke:#000000;stroke-width:1.5;fill:none;" x1="94" x2="144" y1="31.6699" y2="31.6699"/><text fill="#000000" font-family="sans-serif" font-size="14" font-weight="bold" lengthAdjust="spacing" textLength="37" x="98" y="23.5679">stack</text></g><!--MD5=[0a23fe4d889dfa79a5b3efbc10542ce3]
cluster heap--><g id="cluster_heap"><path d="M8.5,123.602 L43.5,123.602 A3.75,3.75 0 0 1 46,126.102 L53,148.6699 L302.5,148.6699 A2.5,2.5 0 0 1 305,151.1699 L305,275.102 A2.5,2.5 0 0 1 302.5,277.602 L8.5,277.602 A2.5,2.5 0 0 1 6,275.102 L6,126.102 A2.5,2.5 0 0 1 8.5,123.602 " style="stroke:#000000;stroke-width:1.5;fill:none;"/><line style="stroke:#000000;stroke-width:1.5;fill:none;" x1="6" x2="53" y1="148.6699" y2="148.6699"/><text fill="#000000" font-family="sans-serif" font-size="14" font-weight="bold" lengthAdjust="spacing" textLength="34" x="10" y="140.5679">heap</text></g><g id="elem_t2"><rect fill="#F1F1F1" height="39.0679" style="stroke:#181818;stroke-width:0.5;" width="27" x="172.5" y="44.602"/><text fill="#000000" font-family="sans-serif" font-size="14" lengthAdjust="spacing" textLength="13" x="179.5" y="61.5679">t2</text><line style="stroke:#181818;stroke-width:0.5;" x1="173.5" x2="198.5" y1="67.6699" y2="67.6699"/></g><g id="elem_t1"><rect fill="#F1F1F1" height="39.0679" style="stroke:#181818;stroke-width:0.5;" width="27" x="110.5" y="44.602"/><text fill="#000000" font-family="sans-serif" font-size="14" lengthAdjust="spacing" textLength="13" x="117.5" y="61.5679">t1</text><line style="stroke:#181818;stroke-width:0.5;" x1="111.5" x2="136.5" y1="67.6699" y2="67.6699"/></g><g id="elem_o1"><rect fill="#F1F1F1" height="92.2717" style="stroke:#181818;stroke-width:0.5;" width="100" x="30" y="165.602"/><text fill="#000000" font-family="sans-serif" font-size="14" lengthAdjust="spacing" textLength="86" x="37" y="182.5679">Time1 object</text><line style="stroke:#181818;stroke-width:1.0;" x1="30" x2="130" y1="188.6699" y2="188.6699"/><text fill="#000000" font-family="sans-serif" font-size="14" lengthAdjust="spacing" textLength="32" x="43" y="205.6358">hour</text><text fill="#000000" font-family="sans-serif" font-size="14" lengthAdjust="spacing" textLength="8" x="93" y="205.6358">0</text><line style="stroke:#181818;stroke-width:1.0;" x1="88" x2="88" y1="188.6699" y2="211.7378"/><line style="stroke:#181818;stroke-width:1.0;" x1="30" x2="130" y1="211.7378" y2="211.7378"/><text fill="#000000" font-family="sans-serif" font-size="14" lengthAdjust="spacing" textLength="48" x="35" y="228.7038">minute</text><text fill="#000000" font-family="sans-serif" font-size="14" lengthAdjust="spacing" textLength="8" x="93" y="228.7038">0</text><line style="stroke:#181818;stroke-width:1.0;" x1="88" x2="88" y1="211.7378" y2="234.8057"/><line style="stroke:#181818;stroke-width:1.0;" x1="30" x2="130" y1="234.8057" y2="234.8057"/><text fill="#000000" font-family="sans-serif" font-size="14" lengthAdjust="spacing" textLength="48" x="35" y="251.7717">second</text><text fill="#000000" font-family="sans-serif" font-size="14" lengthAdjust="spacing" textLength="8" x="93" y="251.7717">0</text><line style="stroke:#181818;stroke-width:1.0;" x1="88" x2="88" y1="234.8057" y2="257.8736"/></g><g id="elem_o2"><rect fill="#F1F1F1" height="92.2717" style="stroke:#181818;stroke-width:0.5;" width="100" x="181" y="165.602"/><text fill="#000000" font-family="sans-serif" font-size="14" lengthAdjust="spacing" textLength="86" x="188" y="182.5679">Time1 object</text><line style="stroke:#181818;stroke-width:1.0;" x1="181" x2="281" y1="188.6699" y2="188.6699"/><text fill="#000000" font-family="sans-serif" font-size="14" lengthAdjust="spacing" textLength="32" x="194" y="205.6358">hour</text><text fill="#000000" font-family="sans-serif" font-size="14" lengthAdjust="spacing" textLength="8" x="244" y="205.6358">0</text><line style="stroke:#181818;stroke-width:1.0;" x1="239" x2="239" y1="188.6699" y2="211.7378"/><line style="stroke:#181818;stroke-width:1.0;" x1="181" x2="281" y1="211.7378" y2="211.7378"/><text fill="#000000" font-family="sans-serif" font-size="14" lengthAdjust="spacing" textLength="48" x="186" y="228.7038">minute</text><text fill="#000000" font-family="sans-serif" font-size="14" lengthAdjust="spacing" textLength="8" x="244" y="228.7038">0</text><line style="stroke:#181818;stroke-width:1.0;" x1="239" x2="239" y1="211.7378" y2="234.8057"/><line style="stroke:#181818;stroke-width:1.0;" x1="181" x2="281" y1="234.8057" y2="234.8057"/><text fill="#000000" font-family="sans-serif" font-size="14" lengthAdjust="spacing" textLength="48" x="186" y="251.7717">second</text><text fill="#000000" font-family="sans-serif" font-size="14" lengthAdjust="spacing" textLength="8" x="244" y="251.7717">0</text><line style="stroke:#181818;stroke-width:1.0;" x1="239" x2="239" y1="234.8057" y2="257.8736"/></g><!--MD5=[78bdde337cc0faa3735334bf074bbd90]
link t1 to o1--><g id="link_t1_o1"><path codeLine="241" d="M132.53,83.802 C147.76,119.312 174.63,193.502 136.04,199.252 " fill="none" id="t1-to-o1" style="stroke:#181818;stroke-width:1.0;"/><polygon fill="#181818" points="131,199.602,140.2526,202.9769,135.9883,199.2599,139.7053,194.9957,131,199.602" style="stroke:#181818;stroke-width:1.0;"/></g><!--MD5=[e1a37c6d736ffad6ee4808bd7df2a413]
link t2 to o2--><g id="link_t2_o2"><path codeLine="242" d="M181.39,83.802 C173.52,117.582 159.74,186.362 174.92,197.932 " fill="none" id="t2-to-o2" style="stroke:#181818;stroke-width:1.0;"/><polygon fill="#181818" points="180,199.602,172.7148,192.9744,175.2537,198.0294,170.1987,200.5684,180,199.602" style="stroke:#181818;stroke-width:1.0;"/></g><!--MD5=[c27deef8dea97f710ea8e910902c0936]
@startuml 8-object-diagram-time
package stack {
	object t2
	object t1
}

package heap {
	map "Time1 object" as o1 {
		hour => 0
		minute => 0
		second => 0
	}
	map "Time1 object" as o2 {
		hour => 0
		minute => 0
		second => 0
	}
}

t1 -d-> o1::hour
t2 -d-> o2::hour
@enduml

PlantUML version 1.2022.6(Wed Jun 22 02:34:49 KST 2022)
(GPL source distribution)
Java Runtime: OpenJDK Runtime Environment
JVM: OpenJDK 64-Bit Server VM
Default Encoding: UTF-8
Language: en
Country: US
--></g></svg>