<?xml version="1.0" encoding="UTF-8" standalone="no"?><svg xmlns="http://www.w3.org/2000/svg" xmlns:xlink="http://www.w3.org/1999/xlink" contentStyleType="text/css" height="278px" preserveAspectRatio="none" style="width:55px;height:278px;background:#FFFFFF;" version="1.1" viewBox="0 0 55 278" width="55px" zoomAndPan="magnify"><defs/><g><!--MD5=[378b18254a1b2429f435e93f5e5cc50c]
class C--><g id="elem_C"><rect fill="#F1F1F1" height="48" id="C" rx="2.5" ry="2.5" style="stroke:#181818;stroke-width:0.5;" width="41" x="7" y="223"/><ellipse cx="22" cy="239" fill="#ADD1B2" rx="11" ry="11" style="stroke:#181818;stroke-width:1.0;"/><path d="M21.4688,245.9219 Q19.7188,245.9219 18.5781,245.1875 Q17.4531,244.4375 16.8906,243.0938 Q16.3438,241.7344 16.3438,239.9375 Q16.3438,237.9063 17,236.4531 Q17.6563,235 18.9375,234.2188 Q20.2188,233.4375 22.0938,233.4375 Q22.9844,233.4375 23.6563,233.625 Q24.3281,233.7969 25.0156,234.1406 L24.2031,236.1563 Q23.5781,235.8438 23.0313,235.7188 Q22.5,235.5938 22.0156,235.5938 Q20.8438,235.5938 20.1406,236.125 Q19.4375,236.6563 19.1406,237.6094 Q18.8438,238.5625 18.8438,239.8281 Q18.8438,241.8438 19.5625,242.8125 Q20.2813,243.7656 21.875,243.7656 Q22.4688,243.7656 23.0938,243.6094 Q23.7188,243.4531 24.5469,243.0781 L24.5469,245.2969 Q23.8125,245.6094 23.0156,245.7656 Q22.2344,245.9219 21.4688,245.9219 Z " fill="#000000"/><text fill="#000000" font-family="sans-serif" font-size="14" lengthAdjust="spacing" textLength="9" x="36" y="244.432">C</text><line style="stroke:#181818;stroke-width:0.5;" x1="8" x2="47" y1="255" y2="255"/><line style="stroke:#181818;stroke-width:0.5;" x1="8" x2="47" y1="263" y2="263"/></g><!--MD5=[69c451c751c414e37549b782190fef46]
class B--><g id="elem_B"><rect fill="#F1F1F1" height="48" id="B" rx="2.5" ry="2.5" style="stroke:#181818;stroke-width:0.5;" width="41" x="7" y="115"/><ellipse cx="22" cy="131" fill="#ADD1B2" rx="11" ry="11" style="stroke:#181818;stroke-width:1.0;"/><path d="M21.4688,137.9219 Q19.7188,137.9219 18.5781,137.1875 Q17.4531,136.4375 16.8906,135.0938 Q16.3438,133.7344 16.3438,131.9375 Q16.3438,129.9063 17,128.4531 Q17.6563,127 18.9375,126.2188 Q20.2188,125.4375 22.0938,125.4375 Q22.9844,125.4375 23.6563,125.625 Q24.3281,125.7969 25.0156,126.1406 L24.2031,128.1563 Q23.5781,127.8438 23.0313,127.7188 Q22.5,127.5938 22.0156,127.5938 Q20.8438,127.5938 20.1406,128.125 Q19.4375,128.6563 19.1406,129.6094 Q18.8438,130.5625 18.8438,131.8281 Q18.8438,133.8438 19.5625,134.8125 Q20.2813,135.7656 21.875,135.7656 Q22.4688,135.7656 23.0938,135.6094 Q23.7188,135.4531 24.5469,135.0781 L24.5469,137.2969 Q23.8125,137.6094 23.0156,137.7656 Q22.2344,137.9219 21.4688,137.9219 Z " fill="#000000"/><text fill="#000000" font-family="sans-serif" font-size="14" lengthAdjust="spacing" textLength="9" x="36" y="136.432">B</text><line style="stroke:#181818;stroke-width:0.5;" x1="8" x2="47" y1="147" y2="147"/><line style="stroke:#181818;stroke-width:0.5;" x1="8" x2="47" y1="155" y2="155"/></g><!--MD5=[a46ee5ce0ceb0380cf446a08a056dce4]
class A--><g id="elem_A"><rect fill="#F1F1F1" height="48" id="A" rx="2.5" ry="2.5" style="stroke:#181818;stroke-width:0.5;" width="41" x="7" y="7"/><ellipse cx="22" cy="23" fill="#ADD1B2" rx="11" ry="11" style="stroke:#181818;stroke-width:1.0;"/><path d="M21.4688,29.9219 Q19.7188,29.9219 18.5781,29.1875 Q17.4531,28.4375 16.8906,27.0938 Q16.3438,25.7344 16.3438,23.9375 Q16.3438,21.9063 17,20.4531 Q17.6563,19 18.9375,18.2188 Q20.2188,17.4375 22.0938,17.4375 Q22.9844,17.4375 23.6563,17.625 Q24.3281,17.7969 25.0156,18.1406 L24.2031,20.1563 Q23.5781,19.8438 23.0313,19.7188 Q22.5,19.5938 22.0156,19.5938 Q20.8438,19.5938 20.1406,20.125 Q19.4375,20.6563 19.1406,21.6094 Q18.8438,22.5625 18.8438,23.8281 Q18.8438,25.8438 19.5625,26.8125 Q20.2813,27.7656 21.875,27.7656 Q22.4688,27.7656 23.0938,27.6094 Q23.7188,27.4531 24.5469,27.0781 L24.5469,29.2969 Q23.8125,29.6094 23.0156,29.7656 Q22.2344,29.9219 21.4688,29.9219 Z " fill="#000000"/><text fill="#000000" font-family="sans-serif" font-size="14" lengthAdjust="spacing" textLength="9" x="36" y="28.432">A</text><line style="stroke:#181818;stroke-width:0.5;" x1="8" x2="47" y1="39" y2="39"/><line style="stroke:#181818;stroke-width:0.5;" x1="8" x2="47" y1="47" y2="47"/></g><!--MD5=[86a7f2f40e8d9a69bf1262f888265aa3]
reverse link B to C--><g id="link_B_C"><path codeLine="1507" d="M27.5,183.02 C27.5,196.58 27.5,211.04 27.5,222.68 " fill="none" id="B-backto-C" style="stroke:#181818;stroke-width:1.0;"/><polygon fill="none" points="20.5,183,27.5,163,34.5,183,20.5,183" style="stroke:#181818;stroke-width:1.0;"/></g><!--MD5=[81500ff05264bba268bb228b65a49ed8]
reverse link A to B--><g id="link_A_B"><path codeLine="1508" d="M27.5,75.02 C27.5,88.58 27.5,103.04 27.5,114.68 " fill="none" id="A-backto-B" style="stroke:#181818;stroke-width:1.0;"/><polygon fill="none" points="20.5,75,27.5,55,34.5,75,20.5,75" style="stroke:#181818;stroke-width:1.0;"/></g><!--MD5=[4be949bd7238b6aa7d75a6dd7749b273]
@startuml 9-constructor-calls-chain
C -u-|> B
B -u-|> A
@enduml

PlantUML version 1.2022.6(Wed Jun 22 02:34:49 KST 2022)
(GPL source distribution)
Java Runtime: OpenJDK Runtime Environment
JVM: OpenJDK 64-Bit Server VM
Default Encoding: UTF-8
Language: en
Country: US
--></g></svg>