<?xml version="1.0" encoding="UTF-8" standalone="no"?><svg xmlns="http://www.w3.org/2000/svg" xmlns:xlink="http://www.w3.org/1999/xlink" contentStyleType="text/css" height="386px" preserveAspectRatio="none" style="width:495px;height:386px;background:#FFFFFF;" version="1.1" viewBox="0 0 495 386" width="495px" zoomAndPan="magnify"><defs/><g><!--MD5=[7421f545a0d8420c5bec41e74b387d9c]
class Employee--><g id="elem_Employee"><rect fill="#F1F1F1" height="48" id="Employee" rx="2.5" ry="2.5" style="stroke:#181818;stroke-width:0.5;" width="97" x="144" y="115"/><ellipse cx="159" cy="131" fill="#ADD1B2" rx="11" ry="11" style="stroke:#181818;stroke-width:1.0;"/><path d="M158.4688,137.9219 Q156.7188,137.9219 155.5781,137.1875 Q154.4531,136.4375 153.8906,135.0938 Q153.3438,133.7344 153.3438,131.9375 Q153.3438,129.9063 154,128.4531 Q154.6563,127 155.9375,126.2188 Q157.2188,125.4375 159.0938,125.4375 Q159.9844,125.4375 160.6563,125.625 Q161.3281,125.7969 162.0156,126.1406 L161.2031,128.1563 Q160.5781,127.8438 160.0313,127.7188 Q159.5,127.5938 159.0156,127.5938 Q157.8438,127.5938 157.1406,128.125 Q156.4375,128.6563 156.1406,129.6094 Q155.8438,130.5625 155.8438,131.8281 Q155.8438,133.8438 156.5625,134.8125 Q157.2813,135.7656 158.875,135.7656 Q159.4688,135.7656 160.0938,135.6094 Q160.7188,135.4531 161.5469,135.0781 L161.5469,137.2969 Q160.8125,137.6094 160.0156,137.7656 Q159.2344,137.9219 158.4688,137.9219 Z " fill="#000000"/><text fill="#000000" font-family="sans-serif" font-size="14" lengthAdjust="spacing" textLength="65" x="173" y="136.432">Employee</text><line style="stroke:#181818;stroke-width:0.5;" x1="145" x2="240" y1="147" y2="147"/><line style="stroke:#181818;stroke-width:0.5;" x1="145" x2="240" y1="155" y2="155"/></g><!--MD5=[9cf9c1c075355342b99c369bce250936]
class CommunityMember--><g id="elem_CommunityMember"><rect fill="#F1F1F1" height="48" id="CommunityMember" rx="2.5" ry="2.5" style="stroke:#181818;stroke-width:0.5;" width="166" x="235.5" y="7"/><ellipse cx="250.5" cy="23" fill="#ADD1B2" rx="11" ry="11" style="stroke:#181818;stroke-width:1.0;"/><path d="M249.9688,29.9219 Q248.2188,29.9219 247.0781,29.1875 Q245.9531,28.4375 245.3906,27.0938 Q244.8438,25.7344 244.8438,23.9375 Q244.8438,21.9063 245.5,20.4531 Q246.1563,19 247.4375,18.2188 Q248.7188,17.4375 250.5938,17.4375 Q251.4844,17.4375 252.1563,17.625 Q252.8281,17.7969 253.5156,18.1406 L252.7031,20.1563 Q252.0781,19.8438 251.5313,19.7188 Q251,19.5938 250.5156,19.5938 Q249.3438,19.5938 248.6406,20.125 Q247.9375,20.6563 247.6406,21.6094 Q247.3438,22.5625 247.3438,23.8281 Q247.3438,25.8438 248.0625,26.8125 Q248.7813,27.7656 250.375,27.7656 Q250.9688,27.7656 251.5938,27.6094 Q252.2188,27.4531 253.0469,27.0781 L253.0469,29.2969 Q252.3125,29.6094 251.5156,29.7656 Q250.7344,29.9219 249.9688,29.9219 Z " fill="#000000"/><text fill="#000000" font-family="sans-serif" font-size="14" lengthAdjust="spacing" textLength="134" x="264.5" y="28.432">CommunityMember</text><line style="stroke:#181818;stroke-width:0.5;" x1="236.5" x2="400.5" y1="39" y2="39"/><line style="stroke:#181818;stroke-width:0.5;" x1="236.5" x2="400.5" y1="47" y2="47"/></g><!--MD5=[d6181cb537bdc20c0a3007a98a56832d]
class Student--><g id="elem_Student"><rect fill="#F1F1F1" height="48" id="Student" rx="2.5" ry="2.5" style="stroke:#181818;stroke-width:0.5;" width="85" x="276" y="115"/><ellipse cx="291" cy="131" fill="#ADD1B2" rx="11" ry="11" style="stroke:#181818;stroke-width:1.0;"/><path d="M290.4688,137.9219 Q288.7188,137.9219 287.5781,137.1875 Q286.4531,136.4375 285.8906,135.0938 Q285.3438,133.7344 285.3438,131.9375 Q285.3438,129.9063 286,128.4531 Q286.6563,127 287.9375,126.2188 Q289.2188,125.4375 291.0938,125.4375 Q291.9844,125.4375 292.6563,125.625 Q293.3281,125.7969 294.0156,126.1406 L293.2031,128.1563 Q292.5781,127.8438 292.0313,127.7188 Q291.5,127.5938 291.0156,127.5938 Q289.8438,127.5938 289.1406,128.125 Q288.4375,128.6563 288.1406,129.6094 Q287.8438,130.5625 287.8438,131.8281 Q287.8438,133.8438 288.5625,134.8125 Q289.2813,135.7656 290.875,135.7656 Q291.4688,135.7656 292.0938,135.6094 Q292.7188,135.4531 293.5469,135.0781 L293.5469,137.2969 Q292.8125,137.6094 292.0156,137.7656 Q291.2344,137.9219 290.4688,137.9219 Z " fill="#000000"/><text fill="#000000" font-family="sans-serif" font-size="14" lengthAdjust="spacing" textLength="53" x="305" y="136.432">Student</text><line style="stroke:#181818;stroke-width:0.5;" x1="277" x2="360" y1="147" y2="147"/><line style="stroke:#181818;stroke-width:0.5;" x1="277" x2="360" y1="155" y2="155"/></g><!--MD5=[99fbc0257732a9f9771663dcb533c304]
class Alumnus--><g id="elem_Alumnus"><rect fill="#F1F1F1" height="48" id="Alumnus" rx="2.5" ry="2.5" style="stroke:#181818;stroke-width:0.5;" width="92" x="396.5" y="115"/><ellipse cx="411.5" cy="131" fill="#ADD1B2" rx="11" ry="11" style="stroke:#181818;stroke-width:1.0;"/><path d="M410.9688,137.9219 Q409.2188,137.9219 408.0781,137.1875 Q406.9531,136.4375 406.3906,135.0938 Q405.8438,133.7344 405.8438,131.9375 Q405.8438,129.9063 406.5,128.4531 Q407.1563,127 408.4375,126.2188 Q409.7188,125.4375 411.5938,125.4375 Q412.4844,125.4375 413.1563,125.625 Q413.8281,125.7969 414.5156,126.1406 L413.7031,128.1563 Q413.0781,127.8438 412.5313,127.7188 Q412,127.5938 411.5156,127.5938 Q410.3438,127.5938 409.6406,128.125 Q408.9375,128.6563 408.6406,129.6094 Q408.3438,130.5625 408.3438,131.8281 Q408.3438,133.8438 409.0625,134.8125 Q409.7813,135.7656 411.375,135.7656 Q411.9688,135.7656 412.5938,135.6094 Q413.2188,135.4531 414.0469,135.0781 L414.0469,137.2969 Q413.3125,137.6094 412.5156,137.7656 Q411.7344,137.9219 410.9688,137.9219 Z " fill="#000000"/><text fill="#000000" font-family="sans-serif" font-size="14" lengthAdjust="spacing" textLength="60" x="425.5" y="136.432">Alumnus</text><line style="stroke:#181818;stroke-width:0.5;" x1="397.5" x2="487.5" y1="147" y2="147"/><line style="stroke:#181818;stroke-width:0.5;" x1="397.5" x2="487.5" y1="155" y2="155"/></g><!--MD5=[244939a14b868e2c127e3dbc5bed03b4]
class Faculty--><g id="elem_Faculty"><rect fill="#F1F1F1" height="48" id="Faculty" rx="2.5" ry="2.5" style="stroke:#181818;stroke-width:0.5;" width="79" x="100" y="223"/><ellipse cx="115" cy="239" fill="#ADD1B2" rx="11" ry="11" style="stroke:#181818;stroke-width:1.0;"/><path d="M114.4688,245.9219 Q112.7188,245.9219 111.5781,245.1875 Q110.4531,244.4375 109.8906,243.0938 Q109.3438,241.7344 109.3438,239.9375 Q109.3438,237.9063 110,236.4531 Q110.6563,235 111.9375,234.2188 Q113.2188,233.4375 115.0938,233.4375 Q115.9844,233.4375 116.6563,233.625 Q117.3281,233.7969 118.0156,234.1406 L117.2031,236.1563 Q116.5781,235.8438 116.0313,235.7188 Q115.5,235.5938 115.0156,235.5938 Q113.8438,235.5938 113.1406,236.125 Q112.4375,236.6563 112.1406,237.6094 Q111.8438,238.5625 111.8438,239.8281 Q111.8438,241.8438 112.5625,242.8125 Q113.2813,243.7656 114.875,243.7656 Q115.4688,243.7656 116.0938,243.6094 Q116.7188,243.4531 117.5469,243.0781 L117.5469,245.2969 Q116.8125,245.6094 116.0156,245.7656 Q115.2344,245.9219 114.4688,245.9219 Z " fill="#000000"/><text fill="#000000" font-family="sans-serif" font-size="14" lengthAdjust="spacing" textLength="47" x="129" y="244.432">Faculty</text><line style="stroke:#181818;stroke-width:0.5;" x1="101" x2="178" y1="255" y2="255"/><line style="stroke:#181818;stroke-width:0.5;" x1="101" x2="178" y1="263" y2="263"/></g><!--MD5=[6081a303407aa0c0464c8b50c38f5612]
class Staff--><g id="elem_Staff"><rect fill="#F1F1F1" height="48" id="Staff" rx="2.5" ry="2.5" style="stroke:#181818;stroke-width:0.5;" width="63" x="214" y="223"/><ellipse cx="229" cy="239" fill="#ADD1B2" rx="11" ry="11" style="stroke:#181818;stroke-width:1.0;"/><path d="M228.4688,245.9219 Q226.7188,245.9219 225.5781,245.1875 Q224.4531,244.4375 223.8906,243.0938 Q223.3438,241.7344 223.3438,239.9375 Q223.3438,237.9063 224,236.4531 Q224.6563,235 225.9375,234.2188 Q227.2188,233.4375 229.0938,233.4375 Q229.9844,233.4375 230.6563,233.625 Q231.3281,233.7969 232.0156,234.1406 L231.2031,236.1563 Q230.5781,235.8438 230.0313,235.7188 Q229.5,235.5938 229.0156,235.5938 Q227.8438,235.5938 227.1406,236.125 Q226.4375,236.6563 226.1406,237.6094 Q225.8438,238.5625 225.8438,239.8281 Q225.8438,241.8438 226.5625,242.8125 Q227.2813,243.7656 228.875,243.7656 Q229.4688,243.7656 230.0938,243.6094 Q230.7188,243.4531 231.5469,243.0781 L231.5469,245.2969 Q230.8125,245.6094 230.0156,245.7656 Q229.2344,245.9219 228.4688,245.9219 Z " fill="#000000"/><text fill="#000000" font-family="sans-serif" font-size="14" lengthAdjust="spacing" textLength="31" x="243" y="244.432">Staff</text><line style="stroke:#181818;stroke-width:0.5;" x1="215" x2="276" y1="255" y2="255"/><line style="stroke:#181818;stroke-width:0.5;" x1="215" x2="276" y1="263" y2="263"/></g><!--MD5=[da547346deef918ea16944ba046651ef]
class Administrator--><g id="elem_Administrator"><rect fill="#F1F1F1" height="48" id="Administrator" rx="2.5" ry="2.5" style="stroke:#181818;stroke-width:0.5;" width="125" x="7" y="331"/><ellipse cx="22" cy="347" fill="#ADD1B2" rx="11" ry="11" style="stroke:#181818;stroke-width:1.0;"/><path d="M21.4688,353.9219 Q19.7188,353.9219 18.5781,353.1875 Q17.4531,352.4375 16.8906,351.0938 Q16.3438,349.7344 16.3438,347.9375 Q16.3438,345.9063 17,344.4531 Q17.6563,343 18.9375,342.2188 Q20.2188,341.4375 22.0938,341.4375 Q22.9844,341.4375 23.6563,341.625 Q24.3281,341.7969 25.0156,342.1406 L24.2031,344.1563 Q23.5781,343.8438 23.0313,343.7188 Q22.5,343.5938 22.0156,343.5938 Q20.8438,343.5938 20.1406,344.125 Q19.4375,344.6563 19.1406,345.6094 Q18.8438,346.5625 18.8438,347.8281 Q18.8438,349.8438 19.5625,350.8125 Q20.2813,351.7656 21.875,351.7656 Q22.4688,351.7656 23.0938,351.6094 Q23.7188,351.4531 24.5469,351.0781 L24.5469,353.2969 Q23.8125,353.6094 23.0156,353.7656 Q22.2344,353.9219 21.4688,353.9219 Z " fill="#000000"/><text fill="#000000" font-family="sans-serif" font-size="14" lengthAdjust="spacing" textLength="93" x="36" y="352.432">Administrator</text><line style="stroke:#181818;stroke-width:0.5;" x1="8" x2="131" y1="363" y2="363"/><line style="stroke:#181818;stroke-width:0.5;" x1="8" x2="131" y1="371" y2="371"/></g><!--MD5=[61a83f88cb8b7d3a80bc8c481f3736bf]
class Teacher--><g id="elem_Teacher"><rect fill="#F1F1F1" height="48" id="Teacher" rx="2.5" ry="2.5" style="stroke:#181818;stroke-width:0.5;" width="86" x="167.5" y="331"/><ellipse cx="182.5" cy="347" fill="#ADD1B2" rx="11" ry="11" style="stroke:#181818;stroke-width:1.0;"/><path d="M181.9688,353.9219 Q180.2188,353.9219 179.0781,353.1875 Q177.9531,352.4375 177.3906,351.0938 Q176.8438,349.7344 176.8438,347.9375 Q176.8438,345.9063 177.5,344.4531 Q178.1563,343 179.4375,342.2188 Q180.7188,341.4375 182.5938,341.4375 Q183.4844,341.4375 184.1563,341.625 Q184.8281,341.7969 185.5156,342.1406 L184.7031,344.1563 Q184.0781,343.8438 183.5313,343.7188 Q183,343.5938 182.5156,343.5938 Q181.3438,343.5938 180.6406,344.125 Q179.9375,344.6563 179.6406,345.6094 Q179.3438,346.5625 179.3438,347.8281 Q179.3438,349.8438 180.0625,350.8125 Q180.7813,351.7656 182.375,351.7656 Q182.9688,351.7656 183.5938,351.6094 Q184.2188,351.4531 185.0469,351.0781 L185.0469,353.2969 Q184.3125,353.6094 183.5156,353.7656 Q182.7344,353.9219 181.9688,353.9219 Z " fill="#000000"/><text fill="#000000" font-family="sans-serif" font-size="14" lengthAdjust="spacing" textLength="54" x="196.5" y="352.432">Teacher</text><line style="stroke:#181818;stroke-width:0.5;" x1="168.5" x2="252.5" y1="363" y2="363"/><line style="stroke:#181818;stroke-width:0.5;" x1="168.5" x2="252.5" y1="371" y2="371"/></g><!--MD5=[929fd768eb04e6658040870c02c9350b]
reverse link CommunityMember to Employee--><g id="link_CommunityMember_Employee"><path codeLine="97" d="M275.58,68.1 C257.28,83.5 236.45,101.03 220.22,114.68 " fill="none" id="CommunityMember-backto-Employee" style="stroke:#181818;stroke-width:1.0;"/><polygon fill="none" points="271.35,62.52,291.16,55,280.36,73.23,271.35,62.52" style="stroke:#181818;stroke-width:1.0;"/></g><!--MD5=[f6be3aa8363bc754cbf18549fe16fb4c]
reverse link CommunityMember to Student--><g id="link_CommunityMember_Student"><path codeLine="98" d="M318.5,75.02 C318.5,88.58 318.5,103.04 318.5,114.68 " fill="none" id="CommunityMember-backto-Student" style="stroke:#181818;stroke-width:1.0;"/><polygon fill="none" points="311.5,75,318.5,55,325.5,75,311.5,75" style="stroke:#181818;stroke-width:1.0;"/></g><!--MD5=[7780b64c3c61dab35a2ed17b388cf9b5]
reverse link CommunityMember to Alumnus--><g id="link_CommunityMember_Alumnus"><path codeLine="99" d="M360.73,68.1 C378.75,83.5 399.25,101.03 415.22,114.68 " fill="none" id="CommunityMember-backto-Alumnus" style="stroke:#181818;stroke-width:1.0;"/><polygon fill="none" points="356.06,73.32,345.41,55,365.16,62.68,356.06,73.32" style="stroke:#181818;stroke-width:1.0;"/></g><!--MD5=[63862c65b366a7245e1ecfe870cf1dee]
reverse link Employee to Faculty--><g id="link_Employee_Faculty"><path codeLine="101" d="M171.95,181.09 C164.9,195.2 157.26,210.48 151.16,222.68 " fill="none" id="Employee-backto-Faculty" style="stroke:#181818;stroke-width:1.0;"/><polygon fill="none" points="165.79,177.76,181,163,178.32,184.02,165.79,177.76" style="stroke:#181818;stroke-width:1.0;"/></g><!--MD5=[e7aaab60f66744b4aa2b154dd24a8cbf]
reverse link Employee to Staff--><g id="link_Employee_Staff"><path codeLine="102" d="M213.05,181.09 C220.1,195.2 227.74,210.48 233.84,222.68 " fill="none" id="Employee-backto-Staff" style="stroke:#181818;stroke-width:1.0;"/><polygon fill="none" points="206.68,184.02,204,163,219.21,177.76,206.68,184.02" style="stroke:#181818;stroke-width:1.0;"/></g><!--MD5=[7c2a7a1a8e42e80732a75f6d45d866b9]
reverse link Faculty to Administrator--><g id="link_Faculty_Administrator"><path codeLine="104" d="M113,288.13 C103.51,302.5 93.14,318.21 84.9,330.68 " fill="none" id="Faculty-backto-Administrator" style="stroke:#181818;stroke-width:1.0;"/><polygon fill="none" points="107.45,283.83,124.31,271,119.13,291.55,107.45,283.83" style="stroke:#181818;stroke-width:1.0;"/></g><!--MD5=[6d64b7c2ff8d138843647eebd3b30878]
reverse link Faculty to Teacher--><g id="link_Faculty_Teacher"><path codeLine="105" d="M166.06,287.66 C175.77,302.15 186.43,318.07 194.88,330.68 " fill="none" id="Faculty-backto-Teacher" style="stroke:#181818;stroke-width:1.0;"/><polygon fill="none" points="160.22,291.51,154.91,271,171.85,283.72,160.22,291.51" style="stroke:#181818;stroke-width:1.0;"/></g><!--MD5=[ebcf59811731335d256cc76bd7ee1016]
@startuml 9-inheritance-hierarchy
Employee -u-|> CommunityMember
Student -u-|> CommunityMember
Alumnus -u-|> CommunityMember

Faculty -u-|> Employee
Staff -u-|> Employee

Administrator -u-|> Faculty
Teacher -u-|> Faculty
@enduml

PlantUML version 1.2022.6(Wed Jun 22 02:34:49 KST 2022)
(GPL source distribution)
Java Runtime: OpenJDK Runtime Environment
JVM: OpenJDK 64-Bit Server VM
Default Encoding: UTF-8
Language: en
Country: US
--></g></svg>